<svg width="58" height="57" viewBox="0 0 58 57" fill="none" xmlns="http://www.w3.org/2000/svg">
<path d="M28.9922 18.996C23.6672 18.996 19.3216 23.2667 19.3216 28.5C19.3216 33.7333 23.6672 38.004 28.9922 38.004C34.3172 38.004 38.6628 33.7333 38.6628 28.5C38.6628 23.2667 34.3172 18.996 28.9922 18.996ZM57.9968 28.5C57.9968 24.5643 58.033 20.6643 57.8081 16.7358C57.5832 12.1727 56.524 8.12298 53.1288 4.78623C49.7263 1.44234 45.6129 0.40852 40.9698 0.187496C36.9652 -0.0335285 32.9968 0.00212072 28.9995 0.00212072C24.9948 0.00212072 21.0265 -0.0335285 17.0291 0.187496C12.386 0.40852 8.26534 1.44947 4.87011 4.78623C1.46762 8.13011 0.415679 12.1727 0.190782 16.7358C-0.0341161 20.6715 0.00215789 24.5715 0.00215789 28.5C0.00215789 32.4285 -0.0341161 36.3357 0.190782 40.2642C0.415679 44.8273 1.47488 48.877 4.87011 52.2138C8.27259 55.5577 12.386 56.5915 17.0291 56.8125C21.0337 57.0335 25.0021 56.9979 28.9995 56.9979C33.0041 56.9979 36.9725 57.0335 40.9698 56.8125C45.6129 56.5915 49.7336 55.5505 53.1288 52.2138C56.5313 48.8699 57.5832 44.8273 57.8081 40.2642C58.0403 36.3357 57.9968 32.4357 57.9968 28.5ZM28.9922 43.1233C20.758 43.1233 14.1127 36.5923 14.1127 28.5C14.1127 20.4077 20.758 13.8767 28.9922 13.8767C37.2264 13.8767 43.8717 20.4077 43.8717 28.5C43.8717 36.5923 37.2264 43.1233 28.9922 43.1233ZM44.4811 16.693C42.5586 16.693 41.0061 15.1672 41.0061 13.2778C41.0061 11.3884 42.5586 9.86266 44.4811 9.86266C46.4036 9.86266 47.9562 11.3884 47.9562 13.2778C47.9567 13.7265 47.8672 14.1708 47.6928 14.5854C47.5184 15 47.2624 15.3768 46.9396 15.694C46.6168 16.0112 46.2335 16.2628 45.8116 16.4342C45.3898 16.6056 44.9376 16.6936 44.4811 16.693Z" fill="#EDA200"/>
</svg>
