<svg width="222" height="311" viewBox="0 0 222 311" fill="none" xmlns="http://www.w3.org/2000/svg">
<path fill-rule="evenodd" clip-rule="evenodd" d="M153.501 48.5188L110.172 0.0489398C109.624 0.121776 109.06 0.160929 108.486 0.160929C107.79 0.160929 107.112 0.105223 106.456 0L63.0833 48.5188L50.1588 76.8175H57.0626V86.3899C70.3327 89.6543 83.3948 93.4447 96.166 97.7791L108.71 102.893C126.963 96.5818 140.13 92.8371 159.267 90.1706L159.522 76.8175H166.425L153.501 48.5188ZM132.079 89.1141H86.8273V70.0046H132.079V89.1141ZM142.274 37.7238L128.858 36.4889L141.531 36.1158L142.274 37.7238ZM107.736 63.7842V63.154C112.639 63.1306 154.692 63.2487 158.284 62.9997L159.267 64.62C151.362 63.4371 116.358 63.8207 107.736 63.7842ZM102.258 63.7842C94.9895 63.8312 65.653 63.4134 59.0346 64.6333L59.6513 63.3853L60.4779 63.154H102.258V63.7842ZM62.4635 58.8189C69.2846 59.1566 103.56 59.0356 111.098 59.0508C111.231 59.2692 111.363 59.4753 111.51 59.6809C106.654 59.7544 65.1715 59.3787 61.6265 60.1699L62.4635 58.8189ZM63.3421 54.2526C68.9198 54.4668 80.6443 54.542 86.282 54.4973V55.1148C80.9294 55.0644 67.6521 55.0382 62.4904 55.6935L63.3421 54.2526ZM99.8727 55.1148H91.9284V54.4973H99.8439C99.8439 54.7028 99.8537 54.9085 99.8727 55.1148ZM66.1964 49.6862L79.0062 50.0467L78.9593 50.0595H100.498C100.415 50.2522 100.344 50.4583 100.273 50.677C95.5224 50.7379 69.5102 50.3757 65.4279 51.23L66.1964 49.6862ZM69.845 45.1842L83.0827 45.5059L82.5986 45.5446H111.51C111.192 45.7372 110.887 45.9428 110.583 46.1619C107.374 46.2187 70.9328 45.9244 69.0563 46.5479L69.845 45.1842ZM72.2887 40.6435L76.7645 40.9268H85.4769V41.5441C83.6694 41.598 73.4794 41.2927 71.9797 41.9944L72.2887 40.6435ZM144.129 41.4929L144.858 43.1002C139.141 42.323 127.634 41.7937 121.87 42.0331V41.4022H142.931V41.5313L144.129 41.4929ZM149.857 48.4899L141.871 47.7955H121.456V47.1783C128.184 47.2291 142.421 47.1567 149.046 46.8692L149.857 48.4899ZM153.945 53.8671C147.192 53.1187 117.043 53.363 109.683 53.3395V52.7216H131.664L129.61 52.6189L152.589 52.2461L153.945 53.8671ZM155.999 59.2436L147.911 58.7693H116.887C116.982 58.6286 117.053 58.4879 117.136 58.3384C124.93 58.3441 147.766 58.3905 155.194 58.1366L155.999 59.2436ZM77.7013 36.1029C78.7934 36.3054 80.9978 36.4321 82.1079 36.3734V36.9906C81.1308 36.9864 78.3714 36.8426 77.5489 37.4796L77.7013 36.1029ZM79.6593 31.5367C81.6667 31.7985 87.4281 31.7686 89.5235 31.755V32.373C87.4245 32.3589 81.2855 32.201 79.3668 33.0032L79.6593 31.5367ZM84.5321 26.5847L93.3422 26.893L82.56 28.038L84.5321 26.5847ZM89.793 22.713L98.4397 23.0084L87.8599 24.1276L89.793 22.713ZM95.0059 18.8668L110.866 19.1751C109.076 19.3097 94.5354 18.9401 93.3226 20.1014L95.0059 18.8668ZM100.546 14.7765L109.683 15.0848L98.5069 16.2811L100.546 14.7765ZM107.163 9.90109L110.164 9.79831L110.866 10.3259L107.125 9.92685L107.163 9.90109ZM115.762 14.0048L116.465 14.5318L112.53 14.1077L115.762 14.0048ZM121.446 18.288L122.177 18.8411L118.071 18.4035L121.446 18.288ZM131.811 24.7963C128.879 24.3294 121.391 24.0002 118.346 23.8962L129.974 23.4074L131.811 24.7963ZM135.566 28.913L125.13 27.8066L133.709 27.5105L135.566 28.913ZM138.172 33.8132L135.32 33.0161H130.093V32.3986C131.723 32.4061 136.379 32.449 137.925 32.1925L138.172 33.8132ZM94.1114 26.7322C98.0108 26.2758 101.94 26.083 105.859 26.227C105.839 29.8912 105.416 33.9044 104.954 36.965C101.534 37.5462 97.4833 38.0102 93.8869 37.5598C94.2944 33.9528 94.585 30.3513 94.1114 26.7322ZM110.042 26.7322C112.546 26.4392 115.062 26.2546 117.58 26.1985C118.983 26.167 120.387 26.1753 121.789 26.227C121.769 29.8912 121.347 33.9044 120.884 36.965C117.464 37.5462 113.413 38.0102 109.817 37.5598C110.225 33.9528 110.515 30.3513 110.042 26.7322Z" fill="white"/>
<path fill-rule="evenodd" clip-rule="evenodd" d="M53.9588 135.409C52.3399 132.524 50.9173 129.507 49.7112 126.372C52.8754 127.908 55.9676 129.526 58.9834 131.22C57.2825 132.582 55.6071 133.977 53.9588 135.409ZM66.2946 125.688C60.1247 122.718 53.6859 120.053 47.0106 117.721C46.2231 114.476 45.6529 111.136 45.3273 107.724C56.9275 110.15 68.0237 113.525 78.4681 117.734C74.3057 120.216 70.2423 122.865 66.2946 125.688ZM85.6917 113.647C73.0417 108.28 59.3897 104.155 45.0073 101.476L45 100.845C45 97.1557 45.2833 93.5371 45.8211 90.005C66.3631 92.4297 85.6649 97.7682 102.998 105.46C97.0993 107.902 91.3178 110.63 85.6917 113.647ZM176.888 93.2477C177.155 95.7429 177.297 98.276 177.297 100.845C177.297 102.047 177.267 103.243 177.207 104.43C134.378 111.369 97.3624 130.3 72.4738 156.396C65.9568 151.561 60.3241 145.533 55.8763 138.622C85.9268 112.721 128.785 95.6689 176.888 93.2477ZM176.888 108.443C176.453 112.497 175.672 116.441 174.581 120.25C144.477 129.081 118.665 146.126 100.597 168.356C93.0091 167.111 85.8515 164.534 79.3518 160.866C102.126 133.315 136.867 113.878 176.888 108.443ZM172.342 126.822C162.517 151.487 139.125 168.915 111.749 169.198C126.724 150.371 147.745 135.525 172.342 126.822Z" fill="white"/>
<path d="M165.838 60.4834L159.589 59.9382L160.183 61.0824L166.433 61.6276L165.838 60.4834ZM164.852 58.2783L158.603 57.7336L159.197 58.8778L165.448 59.4223L164.852 58.2783ZM163.808 55.7307L157.559 55.1862L158.154 56.3303L164.403 56.875L163.808 55.7307ZM166.651 62.6876L160.401 62.143L160.995 63.2871L167.246 63.8318L166.651 62.6876ZM167.753 65.0609L161.503 64.5164L162.098 65.6606L168.347 66.2052L167.753 65.0609ZM168.74 67.1743L162.49 66.6292L163.085 67.7734L169.335 68.3185L168.74 67.1743ZM169.727 69.2954L163.478 68.7508L164.073 69.895L170.322 70.4396L169.727 69.2954ZM170.87 71.6657L164.621 71.1211L165.215 72.2654L171.465 72.8101L170.87 71.6657ZM171.954 73.5373L165.704 72.9927L166.3 74.1368L172.549 74.6815L171.954 73.5373ZM112.53 0.66517L113.417 1.64543L120.043 2.45181C119.733 2.12937 119.417 1.84192 119.091 1.60081C119.044 1.56641 119.001 1.512 118.955 1.47961C118.893 1.43671 118.828 1.41426 118.765 1.37453C118.585 1.2588 118.403 1.15948 118.218 1.06908C118.14 1.0318 118.066 0.974073 117.987 0.940534C117.936 0.919662 117.883 0.914337 117.832 0.894761C117.651 0.824948 117.465 0.775431 117.281 0.729513C117.266 0.72649 117.253 0.721453 117.239 0.716559L111.899 0.0673676C112.112 0.257087 112.328 0.442632 112.53 0.66517ZM121.724 4.28149L115.07 3.47137L116.486 5.03648L123.14 5.8466L121.724 4.28149ZM124.796 7.67542L118.142 6.8653L119.557 8.42868L126.211 9.23866L124.796 7.67542ZM121.212 10.2568L122.627 11.8206L129.281 12.6301L127.866 11.0668L121.212 10.2568ZM125.697 15.2125L132.352 16.0226L130.937 14.4587L124.282 13.6485L125.697 15.2125ZM128.767 18.6037L135.421 19.4138L134.006 17.8506L127.351 17.0403L128.767 18.6037ZM131.836 21.994L138.49 22.8041L137.075 21.2402L130.42 20.4301L131.836 21.994ZM134.906 25.3865L141.56 26.196L140.145 24.6319L133.491 23.8218L134.906 25.3865ZM137.976 28.7787L144.631 29.5888L143.215 28.0236L136.56 27.2136L137.976 28.7787ZM140.132 31.16C140.432 31.491 140.68 31.8215 140.896 32.1507L147.7 32.979L146.285 31.4152L139.63 30.6052L140.132 31.16ZM143.371 35.1264L150.025 35.9363L148.611 34.3731L141.956 33.563L143.371 35.1264ZM146.441 38.5189L153.096 39.3283L151.681 37.7643L145.026 36.9549L146.441 38.5189ZM149.512 41.9109L156.167 42.721L154.75 41.1559L148.096 40.3458L149.512 41.9109ZM151.668 44.2926C151.967 44.6237 152.215 44.9542 152.431 45.2834L159.235 46.1112L157.82 44.5477L151.166 43.7379L151.668 44.2926ZM161.107 50.7524L154.857 50.2079L155.452 51.3521L161.702 51.8966L161.107 50.7524ZM159.782 47.5098L153.373 46.7132L154.037 47.9907L160.446 48.7867L159.782 47.5098ZM162.416 53.3569L156.167 52.8125L156.761 53.9566L163.011 54.5013L162.416 53.3569Z" fill="white"/>
<path fill-rule="evenodd" clip-rule="evenodd" d="M104.671 36.4106C104.302 33.1715 103.944 30.4444 103.822 27.7767C100.855 27.792 97.8913 27.6531 94.9354 27.3385C94.6582 30.1316 94.804 32.9121 95.1129 35.6941C98.3472 35.4885 101.258 35.986 104.671 36.4106Z" fill="white"/>
<path fill-rule="evenodd" clip-rule="evenodd" d="M120.602 36.4106C120.232 33.1715 119.874 30.4444 119.751 27.7767C116.785 27.792 113.822 27.6531 110.866 27.3385C110.588 30.1316 110.734 32.9121 111.043 35.6941C114.278 35.4885 117.188 35.986 120.602 36.4106Z" fill="white"/>
<path d="M130.041 87.4511C124.509 84.1715 116.112 81.5222 109.47 78.8513C102.492 76.0459 95.4919 73.224 88.185 70.6425C88.0833 70.6071 87.9267 70.6873 88.0276 70.7289C95.2043 73.7031 102.26 76.7531 109.434 79.7299C115.701 82.3304 122.423 85.8811 129.814 87.6071C129.989 87.6474 130.162 87.5232 130.041 87.4511Z" fill="white"/>
<path d="M130.377 70.4784C122.58 73.0599 115.338 76.3773 107.891 79.2347C100.82 81.9478 93.573 84.6234 87.149 87.7365C87.0609 87.7789 87.1661 87.857 87.2672 87.8137C94.9307 84.5401 103.268 81.6969 111.307 78.6749C117.596 76.3101 125.887 73.8554 130.605 70.5867C130.721 70.5072 130.52 70.4312 130.377 70.4784Z" fill="white"/>
<path d="M27.9144 204.599V206.425L32.3685 210.812V210.559C32.3685 210.193 32.3234 209.84 32.2473 209.498C32.2434 209.48 32.2452 209.46 32.2412 209.442C32.221 209.355 32.1768 209.28 32.1525 209.196C32.0826 208.956 32.006 208.722 31.9024 208.5C31.8854 208.463 31.8788 208.421 31.8612 208.384C31.8291 208.321 31.7768 208.271 31.742 208.208C31.6 207.95 31.4374 207.709 31.2527 207.482C31.2435 207.47 31.2361 207.458 31.2285 207.446L27.8676 204.136C27.8852 204.29 27.9144 204.44 27.9144 204.599Z" fill="white"/>
<path d="M32.3688 212.562L27.9146 208.175V210.415L32.3688 214.803V212.562Z" fill="white"/>
<path d="M32.3688 216.555L27.9146 212.168V214.406L32.3688 218.794V216.555Z" fill="white"/>
<path d="M32.2725 222.541C32.2785 222.528 32.2836 222.514 32.2891 222.5C32.2918 222.495 32.2934 222.489 32.2956 222.484C32.3034 222.465 32.3121 222.447 32.3182 222.428C32.3319 222.387 32.343 222.345 32.3513 222.302C32.3612 222.253 32.3666 222.202 32.3684 222.151C32.3684 222.14 32.3688 222.129 32.3688 222.118V220.547L27.9142 216.159C27.9142 216.785 27.6647 217.339 27.2938 217.786L32.2185 222.637C32.2383 222.606 32.2565 222.574 32.2725 222.541Z" fill="white"/>
<path d="M16.7537 209.158L15.7444 208.164H13.4715L16.7537 211.397V209.158Z" fill="white"/>
<path d="M25.365 218.731H24.1997L28.6269 223.092H30.8996L26.2819 218.544C25.996 218.656 25.6902 218.731 25.365 218.731Z" fill="white"/>
<path d="M20.5444 218.731L24.6942 222.818C24.8655 222.987 25.0977 223.092 25.3533 223.092H26.8485L22.4209 218.731H20.5444Z" fill="white"/>
<path d="M14.3117 212.818C14.3189 212.811 14.3255 212.804 14.3331 212.797C14.3938 212.738 14.4697 212.698 14.5454 212.656C14.58 212.638 14.6093 212.612 14.646 212.598C14.7591 212.554 14.8815 212.526 15.0125 212.526H16.1221L11.6935 208.164H9.58549V208.327L14.245 212.916C14.2692 212.885 14.2836 212.847 14.3117 212.818Z" fill="white"/>
<path d="M14.0392 214.466L9.58563 210.08V212.318L14.0392 216.705V214.466Z" fill="white"/>
<path d="M14.0392 218.457L9.58563 214.07V216.31L14.0392 220.696V218.457Z" fill="white"/>
<path d="M14.0392 222.451L9.58563 218.064V220.303L14.0392 224.689V222.451Z" fill="white"/>
<path d="M32.2991 246.092C32.2931 246.076 32.2885 246.06 32.2815 246.044C32.2765 246.033 32.2747 246.02 32.2694 246.009C32.2319 245.934 32.185 245.864 32.1295 245.802C32.1157 245.786 32.1002 245.77 32.0847 245.755L27.9143 241.647V242.348L32.3685 246.735V246.434C32.3685 246.359 32.3603 246.287 32.3437 246.217C32.3333 246.172 32.3151 246.133 32.2991 246.092Z" fill="white"/>
<path d="M14.0392 226.442L9.58563 222.055V224.294L14.0392 228.68V226.442Z" fill="white"/>
<path d="M14.0392 230.433L9.58563 226.046V228.285L14.0392 232.671V230.433Z" fill="white"/>
<path d="M27.9143 246.338L32.3685 250.725V248.487L27.9143 244.1V246.338Z" fill="white"/>
<path d="M14.0392 234.422L9.58563 230.035V232.276L14.0392 236.663V234.422Z" fill="white"/>
<path d="M27.9143 248.303C27.9143 248.917 27.802 249.499 27.6427 250.063L32.3372 254.687C32.3448 254.6 32.363 254.516 32.3663 254.428C32.3679 254.373 32.3685 254.318 32.3685 254.262V252.477L27.9143 248.089V248.303Z" fill="white"/>
<path d="M26.2187 252.651L31.1456 257.504C31.1633 257.487 31.1813 257.472 31.1973 257.453C31.2921 257.341 31.3747 257.22 31.4596 257.099C31.49 257.057 31.524 257.018 31.5528 256.974C31.5637 256.957 31.5781 256.943 31.5891 256.925C31.6988 256.755 31.7984 256.577 31.8871 256.392C31.9098 256.345 31.9246 256.295 31.9455 256.248C31.966 256.202 31.9836 256.155 32.0018 256.109L27.14 251.32C26.8859 251.803 26.5807 252.25 26.2187 252.651Z" fill="white"/>
<path d="M14.0392 238.416L9.58563 234.029V236.267L14.0392 240.654V238.416Z" fill="white"/>
<path d="M14.0392 242.408L9.58563 238.021V240.26L14.0392 244.646V242.408Z" fill="white"/>
<path d="M23.8636 254.324L28.6291 259.018C28.6554 259.009 28.6818 259.003 28.7088 258.996C28.9073 258.943 29.1045 258.89 29.2924 258.814C29.402 258.77 29.5039 258.714 29.6092 258.663C29.7745 258.582 29.9371 258.499 30.0907 258.401C30.1282 258.377 30.1623 258.349 30.1983 258.325L25.2957 253.495C24.8548 253.827 24.3808 254.112 23.8636 254.324Z" fill="white"/>
<path d="M21.4319 254.808H20.3029L24.7317 259.171L27.0044 259.17L22.4687 254.703C22.1293 254.758 21.7873 254.808 21.4319 254.808Z" fill="white"/>
<path d="M12.3527 244.738L9.58563 242.013V244.251L10.0799 244.738H12.3527Z" fill="white"/>
<path d="M22.9536 259.171L18.5243 254.808H16.2515L20.6809 259.171H22.9536Z" fill="white"/>
<path d="M18.9012 259.171L14.4718 254.808H12.1991L16.6284 259.171H18.9012Z" fill="white"/>
<path d="M14.8479 259.171L10.4185 254.808H8.14415L12.574 259.171H14.8479Z" fill="white"/>
<path d="M6.36672 254.808H4.74458C4.49508 254.808 4.27006 254.774 4.03668 254.753L7.4703 258.136C8.25479 258.816 9.35404 259.171 10.7954 259.171H10.7966L6.36672 254.808Z" fill="white"/>
<path d="M21.391 199.691C24.1079 199.691 26.3183 201.882 26.3183 204.599V216.158C26.3183 216.686 25.8925 217.132 25.3651 217.132H19.3028C18.7756 217.132 18.3496 216.686 18.3496 216.159V207.52C18.3496 206.992 17.9242 206.566 17.397 206.566H8.96211C8.41442 206.566 7.98858 206.992 7.98858 207.52V245.362C7.98858 245.91 8.41442 246.336 8.96211 246.336H17.397C17.9242 246.336 18.3496 245.91 18.3496 245.362V240.475C18.3496 239.947 18.7756 239.521 19.3028 239.521H25.3651C25.8925 239.521 26.3183 239.947 26.3183 240.475V248.303C26.3183 251.02 24.1282 253.21 21.4317 253.21L4.74429 253.211C1.58138 253.211 0 251.568 0 248.304V204.6C0 201.334 1.58138 199.691 4.74429 199.691H21.391Z" fill="white"/>
<path d="M57.5883 204.137L62.0424 208.524V206.605C62.0424 206.529 62.0336 206.456 62.0174 206.386C62.007 206.343 61.9883 206.303 61.9729 206.262C61.9662 206.246 61.9625 206.229 61.9553 206.213C61.951 206.205 61.9486 206.195 61.9453 206.186L57.5883 201.895V204.137Z" fill="white"/>
<path d="M61.8863 212.294C61.9078 212.26 61.9277 212.225 61.9453 212.189C61.9519 212.175 61.9568 212.16 61.9628 212.146C61.9652 212.141 61.9667 212.135 61.9689 212.13C61.9767 212.112 61.9843 212.095 61.9909 212.076C62.0047 212.035 62.0158 211.992 62.024 211.949C62.034 211.897 62.04 211.844 62.0416 211.79C62.0421 211.778 62.0421 211.767 62.0421 211.755V210.263L57.5749 205.863C57.5583 206.483 57.3138 207.036 56.9341 207.473L61.862 212.327C61.8698 212.315 61.879 212.305 61.8863 212.294Z" fill="white"/>
<path d="M60.5043 212.729L55.8971 208.191C55.6259 208.289 55.3434 208.366 55.0391 208.366H53.8016L58.2314 212.729H60.5043Z" fill="white"/>
<path d="M56.4648 212.729L52.0355 208.366H49.7628L54.1919 212.729H56.4648Z" fill="white"/>
<path d="M52.4242 212.729L47.9954 208.367L45.7233 208.368L50.1513 212.729H52.4242Z" fill="white"/>
<path d="M48.0518 213.683C48.0518 213.553 48.0799 213.431 48.1286 213.318C48.1301 213.315 48.1319 213.31 48.1329 213.306C48.1809 213.199 48.2491 213.105 48.3308 213.022C48.3384 213.015 48.3461 213.007 48.3539 213C48.4068 212.95 48.4719 212.915 48.5362 212.879L43.956 208.368H43.5978V210.253L48.0518 214.641V213.683Z" fill="white"/>
<path d="M48.0518 216.384L43.5978 211.997V214.236L48.0518 218.623V216.384Z" fill="white"/>
<path d="M48.0518 220.363L43.5978 215.976V218.215L48.0518 222.602V220.363Z" fill="white"/>
<path d="M48.0518 224.342L43.5978 219.955V222.195L48.0518 226.583V224.342Z" fill="white"/>
<path d="M55.6422 238.038L60.0956 242.424V240.185L55.6422 235.799V238.038Z" fill="white"/>
<path d="M48.0518 228.323L43.5978 223.935V226.174L48.0518 230.561V228.323Z" fill="white"/>
<path d="M47.1709 231.435L43.5978 227.915V230.154L44.8986 231.435L47.1709 231.435Z" fill="white"/>
<path d="M54.3462 240.741L59.1556 245.479C59.3689 245.475 59.5562 245.393 59.7134 245.273C59.7264 245.263 59.7474 245.266 59.7595 245.256C59.7755 245.242 59.7888 245.226 59.8036 245.211C59.8112 245.204 59.8185 245.197 59.8263 245.189C59.84 245.174 59.8554 245.162 59.8685 245.147C59.8962 245.115 59.9215 245.08 59.9447 245.045C59.9662 245.011 59.9854 244.977 60.0026 244.941C60.0074 244.929 60.0113 244.917 60.0168 244.906C60.0184 244.901 60.0207 244.896 60.0225 244.891C60.0307 244.872 60.0399 244.852 60.0467 244.832C60.0598 244.792 60.0709 244.751 60.0785 244.71C60.0879 244.661 60.0935 244.611 60.0956 244.56C60.0956 244.55 60.0961 244.539 60.0961 244.528V244.166L55.4327 239.572C55.2152 240.077 54.8178 240.466 54.3462 240.741Z" fill="white"/>
<path d="M55.2416 244.535C56.0306 244.535 56.7093 244.916 57.1777 245.481H57.3926L52.9654 241.12H50.6905L54.1571 244.535H55.2416Z" fill="white"/>
<path d="M57.7908 252.093L62.2448 256.481V254.242L57.7908 249.855V252.093Z" fill="white"/>
<path d="M52.3906 244.535L48.9238 241.12H46.6505L50.1179 244.535H52.3906Z" fill="white"/>
<path d="M48.349 244.535L44.8816 241.12H43.5974V242.094L46.0761 244.535H48.349Z" fill="white"/>
<path d="M56.2732 254.579L60.9339 259.171H61.2921C61.5032 259.171 61.6882 259.085 61.8463 258.965C61.8607 258.954 61.8834 258.959 61.8971 258.946C61.9162 258.93 61.9328 258.91 61.9516 258.892C61.9594 258.884 61.967 258.877 61.9747 258.869C61.9858 258.857 61.9991 258.847 62.0095 258.834C62.0375 258.801 62.0645 258.765 62.0882 258.728C62.1109 258.693 62.1308 258.657 62.1488 258.62C62.155 258.607 62.1593 258.593 62.1648 258.58C62.1675 258.574 62.1697 258.567 62.1726 258.562C62.1797 258.543 62.188 258.525 62.1945 258.506C62.2078 258.466 62.2195 258.424 62.2277 258.381C62.2371 258.331 62.2425 258.281 62.2447 258.229V258.222L57.4287 253.479C57.1604 253.956 56.7723 254.354 56.2732 254.579Z" fill="white"/>
<path d="M43.5975 243.833V244.535H44.3105L43.5975 243.833Z" fill="white"/>
<path d="M59.1685 259.171L54.7409 254.809H52.467L56.8952 259.171H59.1685Z" fill="white"/>
<path d="M55.1269 259.171L50.6993 254.809H48.4265L52.8541 259.171H55.1269Z" fill="white"/>
<path d="M51.0866 259.171L46.6584 254.809H44.3856L48.8138 259.171H51.0866Z" fill="white"/>
<path d="M47.0461 259.171L42.6179 254.809H40.345L44.7732 259.171H47.0461Z" fill="white"/>
<path d="M38.5786 254.809H36.3035L40.6578 259.098C40.7686 259.144 40.8894 259.171 41.016 259.171H43.0073L38.5786 254.809Z" fill="white"/>
<path d="M55.0387 199.692C55.5659 199.692 55.9913 200.117 55.9913 200.644V205.796C55.9913 206.344 55.5659 206.769 55.0387 206.769L42.9746 206.77C42.4472 206.77 42.0015 207.195 42.0015 207.723V232.059C42.0015 232.607 42.4472 233.033 42.9746 233.033L53.0922 233.032C53.6194 233.032 54.0453 233.458 54.0453 233.985V238.569C54.0453 239.096 53.6194 239.521 53.0922 239.521L42.9746 239.522C42.4472 239.522 42.0015 239.948 42.0015 240.475V245.16C42.0015 245.688 42.4472 246.133 42.9746 246.133H55.2413C55.7687 246.133 56.1945 246.559 56.1945 247.086V252.237C56.1945 252.765 55.7687 253.211 55.2413 253.211L34.9655 253.212C34.4383 253.212 34.0123 252.765 34.0123 252.238V200.645C34.0123 200.118 34.4383 199.692 34.9655 199.692L55.0387 199.692Z" fill="white"/>
<path d="M119.545 204.137L123.999 208.524V206.605C123.999 206.529 123.99 206.456 123.974 206.386C123.964 206.343 123.945 206.303 123.93 206.262C123.923 206.246 123.919 206.229 123.912 206.213C123.908 206.205 123.905 206.195 123.902 206.186L119.545 201.895V204.137Z" fill="white"/>
<path d="M123.843 212.294C123.865 212.26 123.884 212.225 123.902 212.189C123.909 212.175 123.913 212.16 123.92 212.146C123.922 212.141 123.924 212.135 123.926 212.13C123.933 212.112 123.942 212.095 123.948 212.076C123.961 212.035 123.972 211.992 123.981 211.949C123.991 211.897 123.997 211.844 123.998 211.79C123.999 211.778 123.999 211.767 123.999 211.755V210.263L119.532 205.863C119.515 206.483 119.27 207.036 118.891 207.473L123.819 212.327C123.827 212.315 123.836 212.305 123.843 212.294Z" fill="white"/>
<path d="M122.461 212.729L117.854 208.191C117.583 208.289 117.3 208.366 116.996 208.366H115.759L120.188 212.729H122.461Z" fill="white"/>
<path d="M118.421 212.729L113.992 208.366H111.72L116.149 212.729H118.421Z" fill="white"/>
<path d="M114.381 212.729L109.953 208.367L107.68 208.368L112.108 212.729H114.381Z" fill="white"/>
<path d="M110.009 213.683C110.009 213.553 110.037 213.431 110.085 213.318C110.087 213.315 110.089 213.31 110.09 213.306C110.138 213.199 110.206 213.105 110.288 213.022C110.295 213.015 110.302 213.007 110.311 213C110.364 212.95 110.429 212.915 110.493 212.879L105.913 208.368H105.555V210.253L110.009 214.641V213.683Z" fill="white"/>
<path d="M110.009 216.384L105.555 211.997V214.236L110.009 218.623V216.384Z" fill="white"/>
<path d="M110.009 220.363L105.555 215.976V218.215L110.009 222.602V220.363Z" fill="white"/>
<path d="M110.009 224.342L105.555 219.955V222.195L110.009 226.583V224.342Z" fill="white"/>
<path d="M117.599 238.038L122.053 242.424V240.185L117.599 235.799V238.038Z" fill="white"/>
<path d="M110.009 228.323L105.555 223.935V226.174L110.009 230.561V228.323Z" fill="white"/>
<path d="M109.128 231.435L105.554 227.915V230.154L106.855 231.435L109.128 231.435Z" fill="white"/>
<path d="M116.303 240.741L121.113 245.479C121.325 245.475 121.513 245.393 121.67 245.273C121.684 245.263 121.704 245.266 121.717 245.256C121.732 245.242 121.746 245.226 121.761 245.211C121.768 245.204 121.775 245.197 121.783 245.189C121.797 245.174 121.812 245.162 121.825 245.147C121.853 245.115 121.879 245.08 121.901 245.045C121.923 245.011 121.942 244.977 121.959 244.941C121.965 244.929 121.968 244.917 121.973 244.906C121.975 244.901 121.978 244.896 121.979 244.891C121.988 244.872 121.997 244.852 122.003 244.832C122.017 244.792 122.028 244.751 122.036 244.71C122.045 244.661 122.051 244.611 122.053 244.56C122.053 244.55 122.053 244.539 122.053 244.528V244.166L117.39 239.572C117.172 240.077 116.774 240.466 116.303 240.741Z" fill="white"/>
<path d="M117.199 244.535C117.987 244.535 118.666 244.916 119.135 245.481H119.35L114.922 241.12H112.647L116.114 244.535H117.199Z" fill="white"/>
<path d="M119.748 252.093L124.202 256.481V254.242L119.748 249.855V252.093Z" fill="white"/>
<path d="M114.347 244.535L110.88 241.12H108.608L112.075 244.535H114.347Z" fill="white"/>
<path d="M110.306 244.535L106.839 241.12H105.554V242.094L108.033 244.535H110.306Z" fill="white"/>
<path d="M118.23 254.579L122.891 259.171H123.249C123.46 259.171 123.645 259.085 123.803 258.965C123.818 258.954 123.84 258.959 123.854 258.946C123.873 258.93 123.89 258.91 123.909 258.892C123.916 258.884 123.924 258.877 123.932 258.869C123.942 258.857 123.956 258.847 123.966 258.834C123.995 258.801 124.021 258.765 124.045 258.728C124.067 258.693 124.088 258.657 124.106 258.62C124.112 258.607 124.117 258.593 124.121 258.58C124.124 258.574 124.127 258.567 124.129 258.562C124.137 258.543 124.145 258.525 124.151 258.506C124.164 258.466 124.176 258.424 124.184 258.381C124.194 258.331 124.2 258.281 124.202 258.229V258.222L119.385 253.479C119.117 253.956 118.73 254.354 118.23 254.579Z" fill="white"/>
<path d="M105.555 243.833V244.535H106.267L105.555 243.833Z" fill="white"/>
<path d="M121.125 259.171L116.698 254.809H114.424L118.852 259.171H121.125Z" fill="white"/>
<path d="M117.084 259.171L112.656 254.809H110.384L114.811 259.171H117.084Z" fill="white"/>
<path d="M113.043 259.171L108.615 254.809H106.343L110.771 259.171H113.043Z" fill="white"/>
<path d="M109.003 259.171L104.575 254.809H102.302L106.73 259.171H109.003Z" fill="white"/>
<path d="M100.535 254.809H98.2602L102.615 259.098C102.725 259.144 102.846 259.171 102.973 259.171H104.964L100.535 254.809Z" fill="white"/>
<path d="M116.996 199.692C117.523 199.692 117.948 200.117 117.948 200.644V205.796C117.948 206.344 117.523 206.769 116.996 206.769L104.931 206.77C104.404 206.77 103.958 207.195 103.958 207.723V232.059C103.958 232.607 104.404 233.033 104.931 233.033L115.049 233.032C115.576 233.032 116.002 233.458 116.002 233.985V238.569C116.002 239.096 115.576 239.521 115.049 239.521L104.931 239.522C104.404 239.522 103.958 239.948 103.958 240.475V245.16C103.958 245.688 104.404 246.133 104.931 246.133H117.198C117.726 246.133 118.152 246.559 118.152 247.086V252.237C118.152 252.765 117.726 253.211 117.198 253.211L96.9225 253.212C96.3953 253.212 95.9695 252.765 95.9695 252.238V200.645C95.9695 200.118 96.3953 199.692 96.9225 199.692L116.996 199.692Z" fill="white"/>
<path d="M139.931 204.082L144.385 208.469V206.605C144.385 206.529 144.376 206.456 144.359 206.386C144.35 206.344 144.331 206.303 144.315 206.262C144.309 206.246 144.304 206.229 144.298 206.214C144.293 206.203 144.29 206.19 144.285 206.18C144.259 206.128 144.224 206.083 144.189 206.037L139.931 201.842V204.082Z" fill="white"/>
<path d="M144.385 210.365L139.931 205.977V208.216L144.385 212.603V210.365Z" fill="white"/>
<path d="M144.385 214.498L139.931 210.112V212.351L144.385 216.738V214.498Z" fill="white"/>
<path d="M144.385 218.634L139.931 214.247V216.486L144.385 220.872V218.634Z" fill="white"/>
<path d="M144.385 222.765L139.931 218.378V220.618L144.385 225.005V222.765Z" fill="white"/>
<path d="M144.385 226.9L139.931 222.513V224.752L144.385 229.139V226.9Z" fill="white"/>
<path d="M144.385 231.034L139.931 226.647V228.888L144.385 233.276V231.034Z" fill="white"/>
<path d="M144.385 235.169L139.931 230.782V233.021L144.385 237.408V235.169Z" fill="white"/>
<path d="M144.385 239.302L139.931 234.915V237.154L144.385 241.54V239.302Z" fill="white"/>
<path d="M144.385 243.436L139.931 239.049V241.288L144.385 245.675V243.436Z" fill="white"/>
<path d="M144.385 249.81V247.571L139.931 243.184V245.423L144.385 249.81Z" fill="white"/>
<path d="M139.931 249.557L144.385 253.944V251.705L139.931 247.318V249.557Z" fill="white"/>
<path d="M139.931 252.237C139.931 252.658 139.805 253.039 139.627 253.391L144.385 258.076V255.838L139.931 251.451V252.237Z" fill="white"/>
<path d="M143.432 259.171C143.472 259.171 143.508 259.155 143.547 259.148L138.706 254.38C138.314 254.628 137.877 254.809 137.381 254.809H136.87L141.297 259.171H143.432Z" fill="white"/>
<path d="M134.945 254.809H132.673L137.036 259.107C137.135 259.143 137.238 259.171 137.349 259.171H139.373L134.945 254.809Z" fill="white"/>
<path d="M137.381 199.692C137.908 199.692 138.334 200.117 138.334 200.645V252.237C138.334 252.765 137.908 253.211 137.381 253.211H131.298C130.771 253.211 130.345 252.765 130.345 252.237V200.645C130.345 200.117 130.771 199.692 131.298 199.692H137.381Z" fill="white"/>
<path d="M76.4508 204.145L80.9044 208.531V206.605C80.9044 206.529 80.8955 206.456 80.8795 206.386C80.8696 206.343 80.851 206.303 80.8348 206.263C80.8283 206.246 80.8244 206.23 80.8172 206.214C80.8157 206.21 80.8139 206.206 80.8129 206.202L76.4508 201.905V204.145Z" fill="white"/>
<path d="M80.9046 210.433L76.451 206.047V208.285L80.9046 212.672V210.433Z" fill="white"/>
<path d="M80.9046 214.574L76.451 210.187V212.426L80.9046 216.813V214.574Z" fill="white"/>
<path d="M80.9046 218.713L76.451 214.327V216.566L80.9046 220.952V218.713Z" fill="white"/>
<path d="M80.9046 222.854L76.451 218.467V220.707L80.9046 225.094V222.854Z" fill="white"/>
<path d="M80.9046 226.996L76.451 222.609V224.847L80.9046 229.234V226.996Z" fill="white"/>
<path d="M80.9046 231.136L76.451 226.75V228.988L80.9046 233.375V231.136Z" fill="white"/>
<path d="M80.9046 235.276L76.451 230.889V233.128L80.9046 237.514V235.276Z" fill="white"/>
<path d="M93.8523 252.623C93.8456 252.606 93.8417 252.59 93.8347 252.574C93.8298 252.563 93.828 252.551 93.8225 252.54C93.785 252.464 93.7376 252.395 93.6826 252.333C93.6682 252.316 93.6534 252.301 93.6379 252.285L89.4676 248.178V250.091L93.9217 254.478V252.965C93.9217 252.889 93.9129 252.817 93.8968 252.746C93.8864 252.703 93.8683 252.663 93.8523 252.623Z" fill="white"/>
<path d="M80.9046 239.418L76.451 235.031V237.27L80.9046 241.657V239.418Z" fill="white"/>
<path d="M80.9046 244.454V243.558L76.451 239.171V241.41L79.5415 244.454H80.9046Z" fill="white"/>
<path d="M89.4678 252.237C89.4678 252.8 89.2508 253.294 88.9456 253.718L93.853 258.551C93.8592 258.536 93.8657 258.522 93.8713 258.506C93.885 258.466 93.896 258.424 93.9044 258.381C93.9137 258.332 93.9198 258.28 93.9214 258.229C93.9214 258.218 93.9214 258.207 93.9214 258.197V256.38L89.4678 251.993V252.237Z" fill="white"/>
<path d="M76.4508 243.311V244.454H77.6118L76.4508 243.311Z" fill="white"/>
<path d="M86.9185 254.807H85.8501L90.28 259.171L92.5522 259.17L87.9146 254.602C87.6083 254.734 87.2722 254.807 86.9185 254.807Z" fill="white"/>
<path d="M81.6468 254.808L86.0762 259.171H88.3483L83.9197 254.808H81.6468Z" fill="white"/>
<path d="M77.4427 254.808L81.8715 259.171H84.1442L79.7156 254.808H77.4427Z" fill="white"/>
<path d="M79.9404 259.171L75.5123 254.809H73.2394L77.6676 259.171H79.9404Z" fill="white"/>
<path d="M71.3104 254.809H69.0497L73.1898 258.887C73.3668 259.062 73.6081 259.171 73.8686 259.171H75.7386L71.3104 254.809Z" fill="white"/>
<path d="M72.2814 199.692C72.8087 199.692 73.2346 200.117 73.2346 200.644V245.099C73.2346 245.626 73.6599 246.052 74.1871 246.052H85.2987C85.826 246.052 86.2514 246.478 86.2514 247.005V252.237C86.2514 252.765 85.826 253.211 85.2987 253.211L66.1987 253.211C65.6713 253.211 65.225 252.765 65.225 252.238V200.645C65.225 200.118 65.6713 199.692 66.1987 199.692H72.2814Z" fill="white"/>
<path d="M217.427 204.6V206.005L221.862 210.373C221.849 209.901 221.806 209.458 221.726 209.054C221.714 208.997 221.718 208.922 221.706 208.867C221.688 208.793 221.655 208.735 221.635 208.664C221.578 208.457 221.508 208.264 221.431 208.079C221.398 208.001 221.381 207.907 221.344 207.832C221.321 207.785 221.284 207.75 221.26 207.705C221.17 207.54 221.066 207.393 220.957 207.249C220.949 207.238 220.942 207.226 220.934 207.214L217.36 203.694C217.391 203.989 217.427 204.281 217.427 204.6Z" fill="white"/>
<path d="M221.881 213.009L217.427 208.622V210.865L221.881 215.252V213.009Z" fill="white"/>
<path d="M221.881 217.873L217.427 213.485V215.726L221.881 220.113V217.873Z" fill="white"/>
<path d="M217.427 218.346V220.587L221.881 224.974V222.733L217.427 218.346Z" fill="white"/>
<path d="M206.244 208.165H204.816L206.244 209.571V208.165Z" fill="white"/>
<path d="M206.244 212.526V212.192L202.155 208.165H199.88L204.308 212.526H206.244Z" fill="white"/>
<path d="M217.427 225.448L221.881 229.835V227.595L217.427 223.207V225.448Z" fill="white"/>
<path d="M202.923 213.781L198.47 209.394V211.636L202.923 216.022V213.781Z" fill="white"/>
<path d="M217.427 230.308L221.881 234.696V232.455L217.427 228.068V230.308Z" fill="white"/>
<path d="M217.427 235.168L221.881 239.554V237.314L217.427 232.927V235.168Z" fill="white"/>
<path d="M202.923 218.64L198.47 214.254V216.495L202.923 220.882V218.64Z" fill="white"/>
<path d="M202.923 223.502L198.47 219.116V221.358L202.923 225.744V223.502Z" fill="white"/>
<path d="M217.427 240.029L221.881 244.416V242.175L217.427 237.788V240.029Z" fill="white"/>
<path d="M217.427 244.891L221.881 249.278V247.035L217.427 242.648V244.891Z" fill="white"/>
<path d="M202.923 228.361L198.47 223.975V226.217L202.923 230.604V228.361Z" fill="white"/>
<path d="M202.923 233.222L198.47 228.836V231.076L202.923 235.463V233.222Z" fill="white"/>
<path d="M217.427 248.304C217.427 248.778 217.388 249.223 217.327 249.651L221.881 254.137V251.896L217.427 247.509V248.304Z" fill="white"/>
<path d="M215.81 253.018L220.733 257.867C220.768 257.831 220.807 257.799 220.84 257.761C220.943 257.64 221.039 257.511 221.127 257.374C221.145 257.345 221.159 257.313 221.177 257.285C221.197 257.253 221.214 257.218 221.233 257.183C221.277 257.105 221.325 257.03 221.365 256.947C221.441 256.788 221.508 256.621 221.567 256.446L216.712 251.664C216.468 252.168 216.177 252.631 215.81 253.018Z" fill="white"/>
<path d="M202.923 238.083L198.47 233.697V235.939L202.923 240.326V238.083Z" fill="white"/>
<path d="M212.551 254.67L217.115 259.165C217.767 259.158 218.342 259.075 218.86 258.933C218.919 258.917 218.985 258.908 219.043 258.89C219.06 258.885 219.07 258.872 219.087 258.867L214.26 254.112C213.743 254.36 213.182 254.558 212.551 254.67Z" fill="white"/>
<path d="M202.923 244.739V242.945L198.47 238.558V240.799L202.47 244.739H202.923Z" fill="white"/>
<path d="M198.47 243.42V244.739H199.809L198.47 243.42Z" fill="white"/>
<path d="M207.757 254.808L212.185 259.171H214.46L210.032 254.808H207.757Z" fill="white"/>
<path d="M202.824 254.808L207.252 259.171H209.528L205.099 254.808H202.824Z" fill="white"/>
<path d="M197.889 254.808L202.318 259.171H204.593L200.164 254.808H197.889Z" fill="white"/>
<path d="M195.23 254.808H193.609C193.358 254.808 193.132 254.775 192.897 254.754L196.32 258.125C197.105 258.814 198.209 259.171 199.659 259.171H199.659L195.23 254.808Z" fill="white"/>
<path d="M207.842 245.363V207.52C207.842 206.993 207.417 206.567 206.889 206.567H197.825C197.298 206.567 196.873 206.993 196.873 207.52V245.363C196.873 245.911 197.298 246.336 197.825 246.336H206.889C207.417 246.336 207.842 245.91 207.842 245.363ZM210.985 199.692C214.229 199.692 215.831 201.334 215.831 204.599V248.302C215.831 251.568 214.229 253.211 210.985 253.211L193.608 253.212C190.446 253.212 188.864 251.569 188.864 248.304V204.6C188.864 201.335 190.446 199.692 193.608 199.692H210.985Z" fill="white"/>
<path d="M178.181 204.598V206.041L182.618 210.412C182.607 209.921 182.56 209.467 182.477 209.051C182.465 208.994 182.47 208.92 182.457 208.864C182.44 208.79 182.406 208.732 182.387 208.661C182.329 208.453 182.259 208.258 182.181 208.072C182.147 207.994 182.131 207.899 182.094 207.824C182.071 207.777 182.034 207.742 182.009 207.697C181.937 207.565 181.852 207.449 181.767 207.333L178.117 203.738C178.147 204.018 178.181 204.295 178.181 204.598Z" fill="white"/>
<path d="M182.633 212.798L178.181 208.414V210.656L182.633 215.041V212.798Z" fill="white"/>
<path d="M182.633 217.409L178.181 213.024V215.267L182.633 219.652V217.409Z" fill="white"/>
<path d="M178.181 217.637V219.878L182.633 224.263V222.022L178.181 217.637Z" fill="white"/>
<path d="M167.015 208.163H166.288L167.015 208.88V208.163Z" fill="white"/>
<path d="M178.181 224.492L182.633 228.878V226.638L178.181 222.252V224.492Z" fill="white"/>
<path d="M167.015 212.526V211.254L163.878 208.163H161.603L166.033 212.526H167.015Z" fill="white"/>
<path d="M178.181 229.104L182.633 233.49V231.249L178.181 226.864V229.104Z" fill="white"/>
<path d="M164.588 213.479C164.588 213.478 164.589 213.477 164.589 213.477L160.135 209.088V211.328L164.588 215.715V213.479Z" fill="white"/>
<path d="M178.181 233.72L182.633 238.105V235.862L178.181 231.477V233.72Z" fill="white"/>
<path d="M164.588 218.087L160.135 213.701V215.944L164.588 220.33V218.087Z" fill="white"/>
<path d="M177.687 237.845L182.504 242.588C182.51 242.56 182.519 242.536 182.525 242.507C182.534 242.461 182.534 242.4 182.542 242.352C182.575 242.143 182.599 241.919 182.612 241.677C182.615 241.623 182.626 241.581 182.628 241.526C182.632 241.421 182.633 241.313 182.633 241.202V240.475L178.102 236.012C178.045 236.699 177.906 237.31 177.687 237.845Z" fill="white"/>
<path d="M164.588 222.7L160.135 218.314V220.557L164.588 224.942V222.7Z" fill="white"/>
<path d="M175.438 240.241L180.313 245.043C180.32 245.04 180.334 245.038 180.342 245.035C180.786 244.842 181.156 244.626 181.469 244.369C181.483 244.357 181.506 244.35 181.519 244.339C181.564 244.301 181.6 244.256 181.643 244.216C181.66 244.199 181.677 244.181 181.695 244.164L176.745 239.288C176.386 239.65 175.949 239.968 175.438 240.241Z" fill="white"/>
<path d="M164.588 227.313L160.135 222.927V225.168L164.588 229.554V227.313Z" fill="white"/>
<path d="M164.089 231.434L160.135 227.539V229.782L161.813 231.435L164.089 231.434Z" fill="white"/>
<path d="M171.978 241.052L172.679 242.138L176.301 245.705C176.314 245.695 176.321 245.678 176.335 245.667C176.487 245.553 176.666 245.467 176.875 245.461C177.393 245.449 177.843 245.423 178.26 245.392L173.67 240.872C173.189 240.954 172.631 241.014 171.978 241.052Z" fill="white"/>
<path d="M181.68 255.615L177.714 249.468L176.875 248.642L178.311 250.866C178.657 251.401 178.765 252.035 178.666 252.647L181.68 255.615Z" fill="white"/>
<path d="M182.207 259.17C182.381 259.17 182.53 259.116 182.664 259.042C182.684 259.031 182.702 259.02 182.721 259.009L177.811 254.174C177.358 254.562 176.788 254.801 176.172 254.805L180.604 259.17H182.207Z" fill="white"/>
<path d="M171.494 254.807L175.865 259.112C175.956 259.142 176.048 259.17 176.145 259.17H178.2L173.77 254.807H171.494Z" fill="white"/>
<path d="M160.135 241.472V243.618L163.877 247.305L160.135 241.472Z" fill="white"/>
<path d="M160.135 248.232L164.588 252.619V252.215V250.378L160.135 245.992V248.232Z" fill="white"/>
<path d="M160.135 252.237C160.135 252.417 160.068 252.574 160.033 252.744L164.588 257.231V254.99L160.135 250.603V252.237Z" fill="white"/>
<path d="M157.584 254.81H157.448L161.875 259.171H163.635C163.782 259.171 163.911 259.121 164.032 259.055L159.133 254.228C158.699 254.572 158.177 254.81 157.584 254.81Z" fill="white"/>
<path d="M155.04 254.809H152.763L156.968 258.951C157.134 259.081 157.331 259.171 157.552 259.171H159.468L155.04 254.809Z" fill="white"/>
<path d="M168.614 232.058V207.52C168.614 206.992 168.189 206.566 167.661 206.566H159.49C158.962 206.566 158.537 206.992 158.537 207.52V232.059C158.537 232.607 158.962 233.032 159.49 233.032H167.661C168.189 233.032 168.614 232.606 168.614 232.058ZM176.968 251.73C177.373 252.359 176.927 253.21 176.156 253.21L170.094 253.211C169.77 253.211 169.466 253.029 169.303 252.765L165.532 246.924L161.092 240.009C160.889 239.704 160.565 239.522 160.22 239.522H159.571C159.003 239.522 158.537 239.989 158.537 240.576V246.255V252.238C158.537 252.765 158.111 253.211 157.583 253.211H151.501C150.974 253.211 150.528 252.765 150.528 252.238V200.645C150.528 200.118 150.974 199.692 151.501 199.692L171.777 199.691C174.981 199.691 176.583 201.334 176.583 204.599V235.242C176.583 237.514 175.832 238.406 174.291 239.075C173.683 239.319 172.528 239.461 170.825 239.501C170.094 239.521 169.628 240.353 170.033 240.982L176.968 251.73Z" fill="white"/>
<path d="M39.3894 271.984L42.5658 275.112C42.5571 275.052 42.5492 274.991 42.5362 274.933C42.5057 274.801 42.4418 274.692 42.4054 274.564C42.3124 274.238 42.2038 273.923 42.0721 273.625C42.0296 273.528 42.0111 273.415 41.9642 273.322C41.9195 273.232 41.8468 273.162 41.7983 273.075C41.6342 272.782 41.444 272.507 41.2375 272.245C41.1592 272.145 41.1095 272.026 41.0259 271.931C40.9772 271.878 40.9255 271.826 40.8754 271.773L39.0803 270.005C39.2411 270.627 39.3392 271.29 39.3894 271.984Z" fill="white"/>
<path d="M42.7685 277.117C42.7685 276.922 42.7376 276.75 42.7254 276.564L39.4384 273.326V275L42.7685 278.28V277.117Z" fill="white"/>
<path d="M42.7685 279.573L39.4384 276.293V277.966L42.7685 281.247V279.573Z" fill="white"/>
<path d="M29.9359 271.574L30.9094 272.532C30.7629 272.086 30.476 271.753 29.9359 271.574Z" fill="white"/>
<path d="M39.4381 280.933L42.7682 284.214V282.54L39.4381 279.259V280.933Z" fill="white"/>
<path d="M31.0473 274.676V273.963L28.4594 271.414H26.7602L30.0715 274.676H31.0473Z" fill="white"/>
<path d="M39.4381 283.902L42.7682 287.182V285.508L39.4381 282.227V283.902Z" fill="white"/>
<path d="M28.8063 275.388C28.8063 275.292 28.8272 275.2 28.8637 275.116L28.8674 275.107C28.8994 275.035 28.9479 274.972 29.0013 274.914L25.4756 271.442V273.115L28.8063 276.397V275.388Z" fill="white"/>
<path d="M39.4381 286.869L42.7682 290.15V288.476L39.4381 285.195V286.869Z" fill="white"/>
<path d="M28.8063 277.689L25.4756 274.409V276.083L28.8063 279.364V277.689Z" fill="white"/>
<path d="M39.4381 289.836L42.7682 293.116V291.442L39.4381 288.162V289.836Z" fill="white"/>
<path d="M39.4381 292.803L42.7682 296.084V294.41L39.4381 291.129V292.803Z" fill="white"/>
<path d="M28.8063 280.657L25.4756 277.376V279.05L28.8063 282.331V280.657Z" fill="white"/>
<path d="M28.8063 283.624L25.4756 280.343V282.017L28.8063 285.298V283.624Z" fill="white"/>
<path d="M39.4381 295.771L42.7682 299.052V297.378L39.4381 294.097V295.771Z" fill="white"/>
<path d="M39.4381 297.544C39.4381 297.932 39.383 298.285 39.3483 298.651L42.7682 302.02C42.7682 302.012 42.7682 302.006 42.7682 301.999V300.345L39.4381 297.064V297.544Z" fill="white"/>
<path d="M28.8063 286.591L25.4756 283.311V284.986L28.8063 288.267V286.591Z" fill="white"/>
<path d="M38.8341 301.11L42.4055 304.628C42.4771 304.386 42.5493 304.143 42.5989 303.885C42.6061 303.847 42.6055 303.803 42.6122 303.765C42.6435 303.59 42.653 303.4 42.6722 303.217L39.1923 299.789C39.0969 300.246 38.9906 300.695 38.8341 301.11Z" fill="white"/>
<path d="M28.8063 289.559L25.4756 286.279V287.953L28.8063 291.233V289.559Z" fill="white"/>
<path d="M28.8063 292.526L25.4756 289.245V290.92L28.8063 294.202V292.526Z" fill="white"/>
<path d="M37.7532 303.015L41.4353 306.641C41.4717 306.589 41.5136 306.541 41.5488 306.488C41.5654 306.463 41.5858 306.441 41.6016 306.416C41.6096 306.405 41.6182 306.396 41.6254 306.385C41.7698 306.161 41.8998 305.928 42.0167 305.684C42.0326 305.651 42.0442 305.614 42.0585 305.58L38.4011 301.977C38.2098 302.34 37.9989 302.689 37.7532 303.015Z" fill="white"/>
<path d="M36.9784 303.941C36.7568 304.155 36.4979 304.319 36.255 304.505L39.926 308.12C40.0694 308.024 40.222 307.939 40.3543 307.826C40.4643 307.733 40.5718 307.635 40.6765 307.534C40.7371 307.476 40.7894 307.413 40.8473 307.353L37.1613 303.723C37.0946 303.791 37.0477 303.874 36.9784 303.941Z" fill="white"/>
<path d="M28.8063 295.493L25.4756 292.213V293.888L28.8063 297.169V295.493Z" fill="white"/>
<path d="M34.352 305.598L37.9279 309.12C37.9851 309.103 38.0486 309.094 38.1047 309.076C38.2866 309.014 38.4502 308.927 38.6233 308.853C38.7924 308.78 38.9537 308.698 39.1175 308.618L35.4926 305.048C35.1328 305.259 34.751 305.441 34.352 305.598Z" fill="white"/>
<path d="M28.5875 298.76C28.6679 298.76 28.7302 298.749 28.8063 298.747V298.461L25.4756 295.181V296.854L27.4095 298.76H28.5875Z" fill="white"/>
<path d="M36.6462 309.43C36.7267 309.418 36.8003 309.397 36.876 309.377L33.3479 305.903C32.8935 306.022 32.4247 306.12 31.9286 306.178L35.3293 309.528C35.7821 309.515 36.2286 309.493 36.6462 309.43Z" fill="white"/>
<path d="M25.4756 298.148V298.76H26.0966L25.4756 298.148Z" fill="white"/>
<path d="M34.0402 309.551L30.7113 306.272C30.6374 306.274 30.573 306.289 30.4975 306.289H29.0275L32.3394 309.551H34.0402Z" fill="white"/>
<path d="M31.0268 309.551L27.7149 306.289H26.0163L29.3276 309.551H31.0268Z" fill="white"/>
<path d="M28.0144 309.551L24.7029 306.29H23.0037L26.315 309.551H28.0144Z" fill="white"/>
<path d="M21.6917 306.29H19.991L23.1828 309.434C23.2907 309.502 23.4103 309.551 23.5459 309.551L25.0032 309.551L21.6917 306.29Z" fill="white"/>
<path d="M66.8483 268.749V269.8L70.1647 273.066C70.1543 272.713 70.1226 272.382 70.062 272.08C70.0533 272.037 70.0572 271.981 70.0478 271.939C70.0345 271.884 70.0093 271.841 69.9945 271.788C69.952 271.633 69.9001 271.489 69.8418 271.35C69.817 271.292 69.8049 271.221 69.7774 271.166C69.7596 271.13 69.732 271.104 69.714 271.07C69.6472 270.948 69.5685 270.838 69.4874 270.73C69.4813 270.722 69.476 270.712 69.4704 270.704L66.7982 268.072C66.8213 268.292 66.8483 268.511 66.8483 268.749Z" fill="white"/>
<path d="M70.1786 275.036L66.8485 271.756V273.434L70.1786 276.713V275.036Z" fill="white"/>
<path d="M70.1786 278.673L66.8485 275.393V277.068L70.1786 280.348V278.673Z" fill="white"/>
<path d="M66.8483 279.027V280.702L70.1785 283.983V282.307L66.8483 279.027Z" fill="white"/>
<path d="M58.4871 271.414H57.4193L58.4871 272.466V271.414Z" fill="white"/>
<path d="M58.4871 274.676V274.425L55.4297 271.414H53.7289L57.0402 274.676H58.4871Z" fill="white"/>
<path d="M66.8483 284.337L70.1785 287.617V285.942L66.8483 282.661V284.337Z" fill="white"/>
<path d="M56.0038 275.614L52.6743 272.334V274.01L56.0038 277.289V275.614Z" fill="white"/>
<path d="M66.8483 287.971L70.1785 291.252V289.576L66.8483 286.295V287.971Z" fill="white"/>
<path d="M66.8483 291.604L70.1785 294.885V293.209L66.8483 289.929V291.604Z" fill="white"/>
<path d="M56.0038 279.247L52.6743 275.968V277.643L56.0038 280.923V279.247Z" fill="white"/>
<path d="M56.0038 282.882L52.6743 279.602V281.279L56.0038 284.558V282.882Z" fill="white"/>
<path d="M66.8483 295.239L70.1752 298.519V296.843L66.8483 293.563V295.239Z" fill="white"/>
<path d="M66.8483 298.874L70.1785 302.154V300.477L66.8483 297.197V298.874Z" fill="white"/>
<path d="M56.0038 286.515L52.6743 283.235V284.912L56.0038 288.192V286.515Z" fill="white"/>
<path d="M56.0038 290.15L52.6743 286.87V288.546L56.0038 291.825V290.15Z" fill="white"/>
<path d="M66.8483 301.426C66.8483 301.781 66.8191 302.114 66.7734 302.433L70.1785 305.787V304.112L66.8483 300.832V301.426Z" fill="white"/>
<path d="M65.6393 304.951L69.3204 308.577C69.3468 308.55 69.3753 308.525 69.4003 308.497C69.4773 308.406 69.549 308.31 69.6151 308.208C69.6284 308.186 69.6389 308.163 69.652 308.141C69.6669 308.117 69.6796 308.091 69.6938 308.065C69.727 308.006 69.7626 307.95 69.7925 307.888C69.8492 307.77 69.8994 307.644 69.9436 307.513L66.3138 303.938C66.1313 304.315 65.9142 304.661 65.6393 304.951Z" fill="white"/>
<path d="M56.0038 293.784L52.6743 290.504V292.181L56.0038 295.461V293.784Z" fill="white"/>
<path d="M63.2024 306.186L66.6151 309.547C67.1028 309.542 67.5325 309.479 67.92 309.374C67.964 309.361 68.0134 309.355 68.0566 309.342C68.0693 309.338 68.0769 309.328 68.0896 309.324L64.4801 305.768C64.0939 305.954 63.6751 306.102 63.2024 306.186Z" fill="white"/>
<path d="M56.0038 298.761V297.419L52.6743 294.14V295.815L55.6645 298.761H56.0038Z" fill="white"/>
<path d="M52.6743 297.774V298.76H53.6754L52.6743 297.774Z" fill="white"/>
<path d="M59.6181 306.289L62.929 309.551H64.6303L61.319 306.289H59.6181Z" fill="white"/>
<path d="M55.9296 306.289L59.241 309.551H60.9418L57.6306 306.289H55.9296Z" fill="white"/>
<path d="M52.2402 306.289L55.5516 309.551H57.2524L53.9411 306.289H52.2402Z" fill="white"/>
<path d="M50.2518 306.289H49.0397C48.8523 306.289 48.6837 306.264 48.5074 306.249L51.0666 308.769C51.654 309.284 52.4794 309.551 53.5631 309.551H53.5636L50.2518 306.289Z" fill="white"/>
<path d="M59.6816 299.227V270.932C59.6816 270.538 59.3631 270.219 58.9691 270.219H52.1928C51.7981 270.219 51.4798 270.538 51.4798 270.932V299.227C51.4798 299.637 51.7981 299.955 52.1928 299.955H58.9691C59.3631 299.955 59.6816 299.636 59.6816 299.227ZM62.0315 265.079C64.4569 265.079 65.6546 266.307 65.6546 268.748V301.425C65.6546 303.867 64.4569 305.095 62.0315 305.095L49.0396 305.095C46.6741 305.095 45.4917 303.867 45.4917 301.426V268.749C45.4917 266.308 46.6741 265.08 49.0396 265.08L62.0315 265.079Z" fill="white"/>
<path d="M32.2412 296.543V273.555C32.2412 271.326 31.0738 270.219 28.7392 270.219L25.0097 270.22C24.6159 270.22 24.2823 270.538 24.2823 270.932V299.227C24.2823 299.636 24.6159 299.954 25.0097 299.954H28.5876C31.0132 299.954 32.2412 298.817 32.2412 296.543ZM36.1526 267.111C37.5472 268.46 38.2448 270.31 38.2448 272.661V297.543C38.2448 299.894 37.5472 301.743 36.1526 303.078C34.7575 304.428 32.8628 305.094 30.4979 305.095H19.0217C18.6278 305.095 18.3093 304.762 18.3093 304.367V265.792C18.3093 265.398 18.6278 265.08 19.0217 265.08L30.4979 265.079C32.8628 265.079 34.7575 265.746 36.1526 267.111Z" fill="white"/>
<path d="M126.002 268.351L129.118 271.42L128.752 269.519C128.75 269.505 128.747 269.49 128.744 269.476C128.73 269.416 128.71 269.361 128.684 269.309C128.66 269.261 128.629 269.22 128.597 269.18L125.592 266.221L126.002 268.351Z" fill="white"/>
<path d="M129.447 273.132L126.332 270.062L126.74 272.19L129.856 275.259L129.447 273.132Z" fill="white"/>
<path d="M130.186 276.97L127.07 273.9L127.479 276.028L130.595 279.097L130.186 276.97Z" fill="white"/>
<path d="M130.924 280.808L127.808 277.739L128.217 279.867L131.333 282.936L130.924 280.808Z" fill="white"/>
<path d="M131.662 284.646L128.546 281.578L128.956 283.707L132.071 286.777L131.662 284.646Z" fill="white"/>
<path d="M132.4 288.485L129.285 285.416L129.694 287.544L132.81 290.613L132.4 288.485Z" fill="white"/>
<path d="M120.684 281.543L120.651 281.748L120.729 281.826L120.684 281.543Z" fill="white"/>
<path d="M130.433 291.383L133.548 294.453L133.139 292.325L130.023 289.256L130.433 291.383Z" fill="white"/>
<path d="M120.995 283.474L120.456 282.943L120.214 284.43L121.325 285.523L120.995 283.474Z" fill="white"/>
<path d="M131.171 295.222L134.287 298.291L133.877 296.164L130.761 293.095L131.171 295.222Z" fill="white"/>
<path d="M131.909 299.062L135.026 302.132L134.616 300.002L131.5 296.932L131.909 299.062Z" fill="white"/>
<path d="M121.589 287.17L120.019 285.624L119.777 287.112L121.919 289.222L121.589 287.17Z" fill="white"/>
<path d="M122.184 290.868L119.582 288.306L119.341 289.792L122.514 292.917L122.184 290.868Z" fill="white"/>
<path d="M132.647 302.899L135.763 305.969L135.354 303.841L132.238 300.771L132.647 302.899Z" fill="white"/>
<path d="M132.621 305.986L136.378 309.687C136.381 309.676 136.383 309.666 136.387 309.655C136.388 309.65 136.39 309.645 136.391 309.64C136.395 309.624 136.4 309.609 136.403 309.592C136.411 309.553 136.416 309.512 136.417 309.471C136.419 309.418 136.416 309.365 136.406 309.311L136.093 307.68L132.959 304.594C133.02 305.104 132.896 305.587 132.621 305.986Z" fill="white"/>
<path d="M120.286 293.835H122.037L119.146 290.987L118.903 292.473L120.286 293.835Z" fill="white"/>
<path d="M118.709 293.669L118.682 293.834H118.877L118.709 293.669Z" fill="white"/>
<path d="M131.011 306.841H130.331L133.743 310.202H135.494L131.872 306.634C131.606 306.763 131.315 306.841 131.011 306.841Z" fill="white"/>
<path d="M123.985 301.977L123.594 301.592H121.843L124.303 304.015L123.985 301.977Z" fill="white"/>
<path d="M127.377 306.841L130.576 309.992C130.709 310.123 130.891 310.202 131.095 310.202H132.335L128.923 306.841H127.377Z" fill="white"/>
<path d="M118.685 301.592L122.096 304.953H123.847L120.436 301.592H118.685Z" fill="white"/>
<path d="M117.212 303.254L120.791 306.779L120.974 305.578C120.988 305.491 121.02 305.411 121.061 305.337C121.063 305.333 121.065 305.33 121.067 305.326L117.44 301.754L117.212 303.254Z" fill="white"/>
<path d="M116.92 305.171C116.877 305.414 116.794 305.64 116.68 305.841L120.378 309.484L120.607 307.984L117.028 304.458L116.92 305.171Z" fill="white"/>
<path d="M119.63 310.202C119.65 310.202 119.663 310.185 119.682 310.184L115.974 306.531C115.674 306.714 115.34 306.842 114.969 306.842H114.539L117.949 310.202H119.63Z" fill="white"/>
<path d="M113.131 306.842H111.378L114.611 310.026C114.737 310.131 114.893 310.203 115.07 310.203H116.542L113.131 306.842Z" fill="white"/>
<path d="M123.232 295.065C123.701 295.065 124.045 294.659 123.966 294.206L121.42 278.379C121.35 277.966 121.018 277.758 120.686 277.758C120.354 277.758 120.022 277.966 119.952 278.379L117.375 294.206C117.297 294.659 117.64 295.065 118.093 295.065H123.232ZM131.745 304.72C131.823 305.189 131.48 305.611 131.011 305.611H126.435C126.059 305.611 125.763 305.345 125.7 304.986L125.075 300.986C125.012 300.627 124.701 300.362 124.341 300.362H117.046C116.687 300.362 116.375 300.627 116.312 300.986L115.703 304.986C115.641 305.345 115.345 305.611 114.969 305.611H110.408C109.955 305.611 109.596 305.189 109.69 304.72L117.39 264.912C117.453 264.569 117.75 264.319 118.109 264.319L123.373 264.318C123.732 264.318 124.028 264.569 124.092 264.928L131.745 304.72Z" fill="white"/>
<path d="M199.985 267.774L203.416 271.154V269.675C203.416 269.617 203.41 269.562 203.396 269.508C203.389 269.474 203.374 269.443 203.363 269.412C203.357 269.399 203.354 269.387 203.348 269.374C203.346 269.368 203.344 269.36 203.341 269.353L199.985 266.047V267.774Z" fill="white"/>
<path d="M203.296 274.058C203.312 274.032 203.328 274.005 203.341 273.977C203.346 273.967 203.35 273.955 203.354 273.945C203.356 273.94 203.358 273.936 203.359 273.932C203.365 273.919 203.371 273.905 203.376 273.89C203.387 273.859 203.396 273.827 203.402 273.793C203.409 273.753 203.414 273.712 203.415 273.67C203.416 273.661 203.416 273.652 203.416 273.643V272.494L199.975 269.104C199.961 269.582 199.773 270.008 199.481 270.344L203.277 274.084C203.283 274.075 203.29 274.068 203.296 274.058Z" fill="white"/>
<path d="M202.231 274.394L198.682 270.898C198.473 270.974 198.255 271.032 198.02 271.032L197.068 271.033L200.48 274.394H202.231Z" fill="white"/>
<path d="M199.119 274.394L195.707 271.033L193.956 271.033L197.368 274.394H199.119Z" fill="white"/>
<path d="M196.006 274.394L192.595 271.033L190.844 271.034L194.255 274.394H196.006Z" fill="white"/>
<path d="M192.638 275.128C192.638 275.029 192.66 274.934 192.697 274.848C192.698 274.845 192.699 274.841 192.701 274.839C192.738 274.756 192.79 274.683 192.853 274.62C192.859 274.614 192.864 274.608 192.87 274.602C192.911 274.564 192.962 274.537 193.012 274.51L189.483 271.034H189.207V272.487L192.638 275.867V275.128Z" fill="white"/>
<path d="M192.638 277.21L189.207 273.829V275.555L192.638 278.934V277.21Z" fill="white"/>
<path d="M192.638 280.274L189.207 276.895V278.62L192.638 282V280.274Z" fill="white"/>
<path d="M192.638 283.34L189.207 279.96V281.687L192.638 285.066V283.34Z" fill="white"/>
<path d="M198.485 293.891L201.916 297.27V295.545L198.485 292.166V293.891Z" fill="white"/>
<path d="M192.638 286.407L189.207 283.027V284.752L192.638 288.131V286.407Z" fill="white"/>
<path d="M191.959 288.804L189.207 286.093V287.817L190.209 288.805L191.959 288.804Z" fill="white"/>
<path d="M197.487 295.974L201.192 299.623C201.356 299.621 201.5 299.557 201.621 299.464C201.631 299.456 201.648 299.459 201.657 299.451C201.669 299.44 201.679 299.428 201.691 299.417L201.709 299.4C201.72 299.389 201.731 299.379 201.742 299.367C201.763 299.342 201.782 299.316 201.8 299.288C201.816 299.263 201.831 299.236 201.844 299.209C201.849 299.2 201.851 299.19 201.856 299.182C201.857 299.177 201.858 299.174 201.86 299.17C201.866 299.155 201.873 299.141 201.879 299.125C201.889 299.094 201.897 299.062 201.903 299.03C201.91 298.993 201.915 298.955 201.916 298.915C201.916 298.908 201.916 298.899 201.916 298.891V298.612L198.324 295.073C198.156 295.462 197.85 295.762 197.487 295.974Z" fill="white"/>
<path d="M198.177 298.896C198.785 298.896 199.308 299.19 199.668 299.625H199.834L196.423 296.265H194.671L197.341 298.896H198.177Z" fill="white"/>
<path d="M200.141 304.719L203.572 308.099V306.374L200.141 302.994V304.719Z" fill="white"/>
<path d="M195.981 298.896L193.309 296.265H191.559L194.229 298.896H195.981Z" fill="white"/>
<path d="M192.867 298.896L190.196 296.265H189.207V297.015L191.116 298.896H192.867Z" fill="white"/>
<path d="M198.972 306.634L202.562 310.171H202.838C203 310.171 203.143 310.105 203.265 310.013C203.276 310.004 203.293 310.007 203.303 309.998C203.319 309.986 203.332 309.97 203.346 309.956C203.352 309.95 203.358 309.944 203.364 309.938C203.372 309.929 203.382 309.921 203.391 309.912C203.412 309.886 203.433 309.858 203.451 309.83C203.468 309.803 203.484 309.775 203.498 309.747C203.503 309.736 203.505 309.726 203.511 309.716C203.512 309.711 203.514 309.706 203.516 309.701C203.522 309.688 203.529 309.674 203.533 309.659C203.543 309.628 203.552 309.595 203.558 309.563C203.566 309.524 203.57 309.485 203.572 309.446V309.441L199.861 305.786C199.655 306.154 199.356 306.46 198.972 306.634Z" fill="white"/>
<path d="M189.207 298.355V298.896H189.756L189.207 298.355Z" fill="white"/>
<path d="M201.202 310.171L197.791 306.811H196.04L199.45 310.171H201.202Z" fill="white"/>
<path d="M198.089 310.171L194.677 306.811H192.926L196.338 310.171H198.089Z" fill="white"/>
<path d="M194.976 310.171L191.565 306.811H189.814L193.225 310.171H194.976Z" fill="white"/>
<path d="M191.863 310.171L188.452 306.811H186.701L190.112 310.171H191.863Z" fill="white"/>
<path d="M185.34 306.811H183.588L186.942 310.115C187.027 310.151 187.12 310.171 187.218 310.171H188.751L185.34 306.811Z" fill="white"/>
<path d="M198.02 264.35C198.426 264.35 198.755 264.678 198.755 265.085V269.053C198.755 269.474 198.426 269.803 198.02 269.803H188.727C188.321 269.803 187.977 270.131 187.977 270.537V289.284C187.977 289.707 188.321 290.035 188.727 290.035L196.521 290.034C196.927 290.034 197.255 290.363 197.255 290.769V294.299C197.255 294.706 196.927 295.034 196.521 295.034H188.727C188.321 295.034 187.977 295.362 187.977 295.768V299.378C187.977 299.784 188.321 300.128 188.727 300.128L198.177 300.127C198.583 300.127 198.911 300.455 198.911 300.862V304.83C198.911 305.236 198.583 305.58 198.177 305.58L182.557 305.58C182.15 305.58 181.823 305.237 181.823 304.83V265.085C181.823 264.678 182.15 264.35 182.557 264.35H198.02Z" fill="white"/>
<path d="M146.037 267.781L149.468 271.16V269.675C149.468 269.618 149.461 269.561 149.448 269.508C149.441 269.474 149.427 269.443 149.414 269.412C149.41 269.399 149.406 269.387 149.401 269.375C149.4 269.372 149.398 269.369 149.398 269.365L146.037 266.055V267.781Z" fill="white"/>
<path d="M149.468 272.625L146.037 269.246V270.97L149.468 274.35V272.625Z" fill="white"/>
<path d="M149.468 275.816L146.037 272.436V274.16L149.468 277.54V275.816Z" fill="white"/>
<path d="M149.468 279.004L146.037 275.625V277.349L149.468 280.729V279.004Z" fill="white"/>
<path d="M149.468 282.193L146.037 278.814V280.54L149.468 283.919V282.193Z" fill="white"/>
<path d="M149.468 285.384L146.037 282.005V283.729L149.468 287.109V285.384Z" fill="white"/>
<path d="M149.468 288.574L146.037 285.195V286.92L149.468 290.299V288.574Z" fill="white"/>
<path d="M149.468 291.763L146.037 288.384V290.108L149.468 293.487V291.763Z" fill="white"/>
<path d="M159.442 305.127C159.437 305.114 159.434 305.101 159.429 305.089C159.425 305.08 159.424 305.071 159.42 305.063C159.39 305.005 159.355 304.951 159.312 304.903C159.301 304.89 159.289 304.878 159.277 304.867L156.065 301.703V303.176L159.496 306.555V305.39C159.496 305.332 159.489 305.276 159.476 305.222C159.469 305.188 159.454 305.158 159.442 305.127Z" fill="white"/>
<path d="M149.468 294.954L146.037 291.574V293.3L149.468 296.679V294.954Z" fill="white"/>
<path d="M149.468 298.834V298.143L146.037 294.764V296.489L148.418 298.834H149.468Z" fill="white"/>
<path d="M156.065 304.83C156.065 305.263 155.898 305.643 155.663 305.97L159.443 309.694C159.449 309.682 159.453 309.671 159.457 309.659C159.468 309.627 159.476 309.596 159.483 309.563C159.49 309.525 159.495 309.485 159.496 309.445C159.496 309.437 159.496 309.429 159.496 309.421V308.021L156.065 304.641V304.83Z" fill="white"/>
<path d="M146.037 297.953V298.834H146.931L146.037 297.953Z" fill="white"/>
<path d="M154.101 306.81H153.278L156.69 310.171H158.441L154.868 306.651C154.633 306.753 154.373 306.81 154.101 306.81Z" fill="white"/>
<path d="M150.04 306.81L153.452 310.171H155.203L151.791 306.81H150.04Z" fill="white"/>
<path d="M146.801 306.81L150.213 310.171H151.964L148.552 306.81H146.801Z" fill="white"/>
<path d="M148.725 310.171L145.314 306.811H143.564L146.974 310.171H148.725Z" fill="white"/>
<path d="M142.077 306.811H140.335L143.525 309.953C143.661 310.087 143.847 310.171 144.048 310.171H145.488L142.077 306.811Z" fill="white"/>
<path d="M104.963 267.847L108.393 271.226V269.675C108.393 269.619 108.387 269.565 108.374 269.513C108.37 269.496 108.363 269.479 108.357 269.463L104.963 266.12V267.847Z" fill="white"/>
<path d="M108.393 272.999L104.963 269.621V271.348L108.393 274.727V272.999Z" fill="white"/>
<path d="M108.393 276.5L104.963 273.122V274.847L108.393 278.226V276.5Z" fill="white"/>
<path d="M108.393 280L104.963 276.621V278.347L108.393 281.726V280Z" fill="white"/>
<path d="M108.393 283.5L104.963 280.121V281.847L108.393 285.226V283.5Z" fill="white"/>
<path d="M104.963 285.347L108.393 288.726V287L104.963 283.622V285.347Z" fill="white"/>
<path d="M89.4305 269.488C89.4179 269.435 89.3996 269.385 89.3759 269.338C89.349 269.283 89.3148 269.232 89.2745 269.187C89.2641 269.176 89.2532 269.164 89.242 269.153L86.4216 266.375L86.6668 267.325L89.6244 270.238L89.4305 269.488Z" fill="white"/>
<path d="M90.2397 272.62L87.2821 269.707L87.8799 272.021L90.8369 274.934L90.2397 272.62Z" fill="white"/>
<path d="M104.963 288.848L108.393 292.226V290.501L104.963 287.122V288.848Z" fill="white"/>
<path d="M104.963 292.348L108.393 295.727V294.001L104.963 290.622V292.348Z" fill="white"/>
<path d="M91.4524 277.315L88.4948 274.402L89.0927 276.716L92.0497 279.629L91.4524 277.315Z" fill="white"/>
<path d="M92.194 281.546L89.7079 279.097L90.3058 281.411L91.8385 282.921L92.194 281.546Z" fill="white"/>
<path d="M104.963 295.848L108.393 299.227V297.501L104.963 294.122V295.848Z" fill="white"/>
<path d="M91.4729 284.336L90.9209 283.793L91.2674 285.133L91.4729 284.336Z" fill="white"/>
<path d="M108.393 301.003L104.963 297.623V299.35L108.393 302.728V301.003Z" fill="white"/>
<path d="M108.393 304.501L104.963 301.123V302.849L108.393 306.228V304.501Z" fill="white"/>
<path d="M96.5673 296.355L96.3536 296.144L96.0218 297.543L96.5673 298.08V296.355Z" fill="white"/>
<path d="M104.963 304.829C104.963 305.258 104.797 305.634 104.565 305.958L108.344 309.68C108.348 309.67 108.352 309.66 108.356 309.651C108.366 309.62 108.374 309.589 108.38 309.557C108.387 309.52 108.391 309.482 108.393 309.444C108.393 309.437 108.393 309.428 108.393 309.421V308.003L104.963 304.624V304.829Z" fill="white"/>
<path d="M102.983 306.81H101.878L105.29 310.171H107.042L103.519 306.701C103.345 306.751 103.173 306.81 102.983 306.81Z" fill="white"/>
<path d="M96.5673 299.853L95.6804 298.98L95.348 300.378L96.5673 301.579V299.853Z" fill="white"/>
<path d="M98.3162 306.802L98.3242 306.77C98.3028 306.766 98.2855 306.754 98.2647 306.751L98.3162 306.802Z" fill="white"/>
<path d="M99.487 306.811L102.684 309.96C102.816 310.09 102.995 310.171 103.192 310.171H103.488L100.076 306.811H99.487Z" fill="white"/>
<path d="M96.5673 304.829V303.354L95.0064 301.817L94.6742 303.215L96.6257 305.137C96.6087 305.033 96.5673 304.938 96.5673 304.829Z" fill="white"/>
<path d="M94.182 305.287C94.1269 305.529 94.0222 305.746 93.8901 305.942L97.6355 309.632C97.6395 309.619 97.6434 309.606 97.6467 309.593L97.9695 308.235L94.3325 304.653L94.182 305.287Z" fill="white"/>
<path d="M86.3517 296.792L85.9681 296.414V298.139L86.8916 299.049L86.3517 296.792Z" fill="white"/>
<path d="M87.4475 301.371L85.9681 299.914V301.64L87.9875 303.629L87.4475 301.371Z" fill="white"/>
<path d="M92.2666 306.811H91.2474L94.4452 309.961C94.579 310.093 94.7615 310.171 94.9598 310.171H96.3812L92.8661 306.709C92.676 306.769 92.4765 306.811 92.2666 306.811Z" fill="white"/>
<path d="M89.3993 306.793L85.9684 303.414V304.83C85.9684 304.921 85.9281 305 85.9155 305.089L89.3993 308.52V306.793Z" fill="white"/>
<path d="M88.6495 310.171C88.7497 310.171 88.8428 310.149 88.9288 310.114C88.9581 310.103 88.9805 310.083 89.0075 310.068C89.0417 310.049 89.0765 310.03 89.1085 310.008L85.3193 306.276C84.9904 306.579 84.5629 306.765 84.0891 306.79L87.5217 310.171H88.6495Z" fill="white"/>
<path d="M82.3093 306.811H80.5559L83.8785 310.083C83.9798 310.135 84.09 310.171 84.2134 310.171H85.7208L82.3093 306.811Z" fill="white"/>
<path d="M102.982 264.35C103.389 264.35 103.732 264.678 103.732 265.084V304.83C103.732 305.236 103.389 305.579 102.982 305.579L98.5305 305.58C98.1243 305.58 97.7966 305.236 97.7966 304.83V291.034C97.7966 290.556 97.4226 290.293 97.0506 290.293C96.7426 290.293 96.4358 290.473 96.3436 290.863L92.9856 305.002C92.9073 305.345 92.6109 305.58 92.2669 305.58H90.2984C89.9551 305.58 89.6581 305.346 89.5805 305.002L86.1909 290.831C86.0989 290.442 85.7919 290.262 85.484 290.262C85.1121 290.262 84.7385 290.525 84.7385 291.003V304.83C84.7385 305.237 84.41 305.58 83.9881 305.58H79.5522C79.1306 305.581 78.8024 305.237 78.8024 304.83V265.085C78.8024 264.679 79.1306 264.351 79.5522 264.351H84.0508C84.3948 264.351 84.691 264.569 84.7693 264.898L90.5491 287.269C90.6428 287.637 90.9513 287.82 91.2614 287.82C91.5723 287.82 91.8842 287.637 91.9861 287.269L97.7652 264.897C97.8435 264.569 98.1399 264.35 98.4684 264.35H102.982Z" fill="white"/>
<path d="M176.237 267.784L179.667 271.163V269.696C179.667 269.638 179.66 269.582 179.648 269.528C179.64 269.494 179.625 269.464 179.614 269.432C179.609 269.42 179.605 269.407 179.6 269.394C179.597 269.386 179.595 269.376 179.591 269.369C179.587 269.361 179.581 269.356 179.577 269.349L176.237 266.058V267.784Z" fill="white"/>
<path d="M179.367 274.255C179.378 274.247 179.394 274.25 179.404 274.242C179.418 274.23 179.429 274.217 179.442 274.204C179.447 274.198 179.453 274.193 179.459 274.187C179.469 274.177 179.479 274.168 179.488 274.158C179.509 274.133 179.529 274.107 179.547 274.078C179.563 274.052 179.579 274.026 179.592 273.998C179.598 273.987 179.601 273.976 179.606 273.965C179.608 273.96 179.609 273.956 179.611 273.952C179.616 273.938 179.623 273.925 179.627 273.911C179.638 273.879 179.646 273.847 179.653 273.813C179.66 273.773 179.665 273.732 179.666 273.691C179.667 273.681 179.667 273.672 179.667 273.664V273.099L176.128 269.613C176.006 270.035 175.758 270.384 175.415 270.639L179.162 274.33C179.23 274.302 179.309 274.299 179.367 274.255Z" fill="white"/>
<path d="M177.282 274.414L173.871 271.054H172.119L175.53 274.414H177.282Z" fill="white"/>
<path d="M172.872 275.148C172.872 275.049 172.893 274.955 172.929 274.869C172.93 274.865 172.931 274.861 172.933 274.857C172.969 274.775 173.019 274.702 173.08 274.639C173.085 274.633 173.092 274.627 173.098 274.621C173.117 274.603 173.144 274.592 173.167 274.575C173.28 274.488 173.417 274.431 173.569 274.421L170.151 271.054H169.442V272.083L172.872 275.461V275.148Z" fill="white"/>
<path d="M169.442 275.745L172.873 279.124V277.396L169.442 274.018V275.745Z" fill="white"/>
<path d="M169.442 279.41L172.873 282.789V281.063L169.442 277.683V279.41Z" fill="white"/>
<path d="M169.442 283.074L172.873 286.452V284.724L169.442 281.346V283.074Z" fill="white"/>
<path d="M160.673 274.414H160.842V272.875L158.994 271.054H157.24L160.646 274.409C160.656 274.409 160.663 274.414 160.673 274.414Z" fill="white"/>
<path d="M169.442 286.738L172.873 290.116V288.39L169.442 285.011V286.738Z" fill="white"/>
<path d="M169.442 290.4L172.873 293.779V292.053L169.442 288.674V290.4Z" fill="white"/>
<path d="M169.442 294.065L172.873 297.444V295.716L169.442 292.337V294.065Z" fill="white"/>
<path d="M169.442 297.728L172.873 301.106V299.38L169.442 296.001V297.728Z" fill="white"/>
<path d="M169.442 301.392L172.873 304.77V303.044L169.442 299.665V301.392Z" fill="white"/>
<path d="M169.442 304.851C169.442 304.911 169.413 304.962 169.408 305.021L172.873 308.434V306.707L169.442 303.329V304.851Z" fill="white"/>
<path d="M167.517 306.823L170.936 310.191H172.139C172.292 310.191 172.425 310.13 172.542 310.046L168.761 306.322C168.424 306.62 167.996 306.812 167.517 306.823Z" fill="white"/>
<path d="M165.56 306.831H163.806L167.097 310.072C167.207 310.141 167.33 310.191 167.468 310.191H168.972L165.56 306.831Z" fill="white"/>
<path d="M174.272 264.37C174.678 264.37 175.006 264.698 175.006 265.105V269.073C175.006 269.495 174.678 269.823 174.272 269.823H168.946C168.539 269.823 168.211 270.151 168.211 270.557V304.85C168.211 305.256 167.883 305.6 167.477 305.6H162.807C162.4 305.6 162.072 305.256 162.072 304.85V270.557C162.072 270.151 161.745 269.823 161.338 269.823L156.012 269.823C155.606 269.823 155.277 269.495 155.277 269.073V265.105C155.277 264.699 155.606 264.371 156.012 264.371L174.272 264.37Z" fill="white"/>
<path d="M144.073 264.35C144.479 264.35 144.807 264.678 144.807 265.085V299.33C144.807 299.737 145.135 300.065 145.541 300.065L154.101 300.064C154.506 300.064 154.835 300.393 154.835 300.799V304.83C154.835 305.236 154.506 305.58 154.101 305.58L139.387 305.58C138.981 305.58 138.637 305.237 138.637 304.83V265.085C138.637 264.678 138.981 264.35 139.387 264.35H144.073Z" fill="white"/>
</svg>
