<svg width="221" height="311" viewBox="0 0 221 311" fill="none" xmlns="http://www.w3.org/2000/svg">
<path fill-rule="evenodd" clip-rule="evenodd" d="M152.501 48.5188L109.172 0.0489398C108.624 0.121776 108.06 0.160929 107.486 0.160929C106.79 0.160929 106.112 0.105223 105.456 0L62.0833 48.5188L49.1588 76.8175H56.0625V86.3899C69.3326 89.6543 82.3948 93.4447 95.166 97.7791L107.71 102.893C125.963 96.5818 139.13 92.8371 158.267 90.1706L158.522 76.8175H165.425L152.501 48.5188ZM131.079 89.1141H85.8273V70.0046H131.079V89.1141ZM141.274 37.7238L127.858 36.4889L140.531 36.1158L141.274 37.7238ZM106.736 63.7842V63.154C111.639 63.1306 153.692 63.2487 157.284 62.9997L158.267 64.62C150.362 63.4371 115.358 63.8207 106.736 63.7842ZM101.258 63.7842C93.9895 63.8312 64.653 63.4134 58.0346 64.6333L58.6512 63.3853L59.4779 63.154H101.258V63.7842ZM61.4635 58.8189C68.2846 59.1566 102.56 59.0356 110.098 59.0508C110.231 59.2692 110.363 59.4753 110.51 59.6809C105.654 59.7544 64.1715 59.3787 60.6264 60.1699L61.4635 58.8189ZM62.3421 54.2526C67.9198 54.4668 79.6443 54.542 85.282 54.4973V55.1148C79.9294 55.0644 66.6521 55.0382 61.4904 55.6935L62.3421 54.2526ZM98.8727 55.1148H90.9284V54.4973H98.8439C98.8439 54.7028 98.8537 54.9085 98.8727 55.1148ZM65.1964 49.6862L78.0062 50.0467L77.9592 50.0595H99.4981C99.4153 50.2522 99.3444 50.4583 99.2734 50.677C94.5224 50.7379 68.5101 50.3757 64.4279 51.23L65.1964 49.6862ZM68.845 45.1842L82.0827 45.5059L81.5986 45.5446H110.51C110.192 45.7372 109.887 45.9428 109.583 46.1619C106.374 46.2187 69.9328 45.9244 68.0563 46.5479L68.845 45.1842ZM71.2887 40.6435L75.7645 40.9268H84.4769V41.5441C82.6694 41.598 72.4794 41.2927 70.9797 41.9944L71.2887 40.6435ZM143.129 41.4929L143.858 43.1002C138.141 42.323 126.634 41.7937 120.87 42.0331V41.4022H141.931V41.5313L143.129 41.4929ZM148.857 48.4899L140.871 47.7955H120.456V47.1783C127.184 47.2291 141.421 47.1567 148.046 46.8692L148.857 48.4899ZM152.945 53.8671C146.192 53.1187 116.043 53.363 108.683 53.3395V52.7216H130.664L128.61 52.6189L151.589 52.2461L152.945 53.8671ZM154.999 59.2436L146.911 58.7693H115.887C115.982 58.6286 116.053 58.4879 116.136 58.3384C123.93 58.3441 146.766 58.3905 154.194 58.1366L154.999 59.2436ZM76.7013 36.1029C77.7934 36.3054 79.9978 36.4321 81.1079 36.3734V36.9906C80.1308 36.9864 77.3714 36.8426 76.5489 37.4796L76.7013 36.1029ZM78.6593 31.5367C80.6667 31.7985 86.4281 31.7686 88.5235 31.755V32.373C86.4245 32.3589 80.2855 32.201 78.3668 33.0032L78.6593 31.5367ZM83.5321 26.5847L92.3422 26.893L81.56 28.038L83.5321 26.5847ZM88.7929 22.713L97.4397 23.0084L86.8599 24.1276L88.7929 22.713ZM94.0059 18.8668L109.866 19.1751C108.076 19.3097 93.5353 18.9401 92.3226 20.1014L94.0059 18.8668ZM99.5462 14.7765L108.683 15.0848L97.5069 16.2811L99.5462 14.7765ZM106.163 9.90109L109.164 9.79831L109.866 10.3259L106.125 9.92685L106.163 9.90109ZM114.762 14.0048L115.465 14.5318L111.53 14.1077L114.762 14.0048ZM120.446 18.288L121.177 18.8411L117.071 18.4035L120.446 18.288ZM130.811 24.7963C127.879 24.3294 120.391 24.0002 117.346 23.8962L128.974 23.4074L130.811 24.7963ZM134.566 28.913L124.13 27.8066L132.709 27.5105L134.566 28.913ZM137.172 33.8132L134.32 33.0161H129.093V32.3986C130.723 32.4061 135.379 32.449 136.925 32.1925L137.172 33.8132ZM93.1114 26.7322C97.0107 26.2758 100.94 26.083 104.859 26.227C104.839 29.8912 104.416 33.9044 103.954 36.965C100.534 37.5462 96.4833 38.0102 92.8869 37.5598C93.2944 33.9528 93.585 30.3513 93.1114 26.7322ZM109.042 26.7322C111.546 26.4392 114.062 26.2546 116.58 26.1985C117.983 26.167 119.386 26.1753 120.789 26.227C120.769 29.8912 120.347 33.9044 119.884 36.965C116.464 37.5462 112.413 38.0102 108.817 37.5598C109.225 33.9528 109.515 30.3513 109.042 26.7322Z" fill="#333332"/>
<path fill-rule="evenodd" clip-rule="evenodd" d="M52.9588 135.409C51.3399 132.524 49.9173 129.507 48.7112 126.372C51.8754 127.908 54.9676 129.526 57.9834 131.22C56.2825 132.582 54.6071 133.977 52.9588 135.409ZM65.2946 125.688C59.1247 122.718 52.6859 120.053 46.0106 117.721C45.2231 114.476 44.6529 111.136 44.3273 107.724C55.9275 110.15 67.0237 113.525 77.4681 117.734C73.3057 120.216 69.2423 122.865 65.2946 125.688ZM84.6917 113.647C72.0417 108.28 58.3897 104.155 44.0073 101.476L44 100.845C44 97.1557 44.2833 93.5371 44.8211 90.005C65.3631 92.4297 84.6649 97.7682 101.998 105.46C96.0993 107.902 90.3178 110.63 84.6917 113.647ZM175.888 93.2477C176.155 95.7429 176.297 98.276 176.297 100.845C176.297 102.047 176.267 103.243 176.207 104.43C133.378 111.369 96.3624 130.3 71.4738 156.396C64.9568 151.561 59.3241 145.533 54.8763 138.622C84.9268 112.721 127.785 95.6689 175.888 93.2477ZM175.888 108.443C175.453 112.497 174.672 116.441 173.581 120.25C143.477 129.081 117.665 146.126 99.5967 168.356C92.0091 167.111 84.8515 164.534 78.3518 160.866C101.126 133.315 135.867 113.878 175.888 108.443ZM171.342 126.822C161.517 151.487 138.125 168.915 110.749 169.198C125.724 150.371 146.745 135.525 171.342 126.822Z" fill="#333332"/>
<path d="M164.838 60.4834L158.589 59.9382L159.183 61.0824L165.433 61.6276L164.838 60.4834ZM163.852 58.2783L157.603 57.7336L158.197 58.8778L164.448 59.4223L163.852 58.2783ZM162.808 55.7307L156.559 55.1862L157.154 56.3303L163.403 56.875L162.808 55.7307ZM165.651 62.6876L159.401 62.143L159.995 63.2871L166.246 63.8318L165.651 62.6876ZM166.753 65.0609L160.503 64.5164L161.098 65.6606L167.347 66.2052L166.753 65.0609ZM167.74 67.1743L161.49 66.6292L162.085 67.7734L168.335 68.3185L167.74 67.1743ZM168.727 69.2954L162.478 68.7508L163.073 69.895L169.322 70.4396L168.727 69.2954ZM169.87 71.6657L163.621 71.1211L164.215 72.2654L170.465 72.8101L169.87 71.6657ZM170.954 73.5373L164.704 72.9927L165.3 74.1368L171.549 74.6815L170.954 73.5373ZM111.53 0.66517L112.417 1.64543L119.043 2.45181C118.733 2.12937 118.417 1.84192 118.091 1.60081C118.044 1.56641 118.001 1.512 117.955 1.47961C117.893 1.43671 117.828 1.41426 117.765 1.37453C117.585 1.2588 117.403 1.15948 117.218 1.06908C117.14 1.0318 117.066 0.974073 116.987 0.940534C116.936 0.919662 116.883 0.914337 116.832 0.894761C116.651 0.824948 116.465 0.775431 116.281 0.729513C116.266 0.72649 116.253 0.721453 116.239 0.716559L110.899 0.0673676C111.112 0.257087 111.328 0.442632 111.53 0.66517ZM120.724 4.28149L114.07 3.47137L115.486 5.03648L122.14 5.8466L120.724 4.28149ZM123.796 7.67542L117.142 6.8653L118.557 8.42868L125.211 9.23866L123.796 7.67542ZM120.212 10.2568L121.627 11.8206L128.281 12.6301L126.866 11.0668L120.212 10.2568ZM124.697 15.2125L131.352 16.0226L129.937 14.4587L123.282 13.6485L124.697 15.2125ZM127.767 18.6037L134.421 19.4138L133.006 17.8506L126.351 17.0403L127.767 18.6037ZM130.836 21.994L137.49 22.8041L136.075 21.2402L129.42 20.4301L130.836 21.994ZM133.906 25.3865L140.56 26.196L139.145 24.6319L132.491 23.8218L133.906 25.3865ZM136.976 28.7787L143.631 29.5888L142.215 28.0236L135.56 27.2136L136.976 28.7787ZM139.132 31.16C139.432 31.491 139.68 31.8215 139.896 32.1507L146.7 32.979L145.285 31.4152L138.63 30.6052L139.132 31.16ZM142.371 35.1264L149.025 35.9363L147.611 34.3731L140.956 33.563L142.371 35.1264ZM145.441 38.5189L152.096 39.3283L150.681 37.7643L144.026 36.9549L145.441 38.5189ZM148.512 41.9109L155.167 42.721L153.75 41.1559L147.096 40.3458L148.512 41.9109ZM150.668 44.2926C150.967 44.6237 151.215 44.9542 151.431 45.2834L158.235 46.1112L156.82 44.5477L150.166 43.7379L150.668 44.2926ZM160.107 50.7524L153.857 50.2079L154.452 51.3521L160.702 51.8966L160.107 50.7524ZM158.782 47.5098L152.373 46.7132L153.037 47.9907L159.446 48.7867L158.782 47.5098ZM161.416 53.3569L155.167 52.8125L155.761 53.9566L162.011 54.5013L161.416 53.3569Z" fill="#333332"/>
<path fill-rule="evenodd" clip-rule="evenodd" d="M103.671 36.4106C103.302 33.1715 102.944 30.4444 102.822 27.7767C99.8553 27.792 96.8913 27.6531 93.9354 27.3385C93.6582 30.1316 93.804 32.9121 94.1129 35.6941C97.3472 35.4885 100.258 35.986 103.671 36.4106Z" fill="#333332"/>
<path fill-rule="evenodd" clip-rule="evenodd" d="M119.602 36.4106C119.232 33.1715 118.874 30.4444 118.751 27.7767C115.785 27.792 112.822 27.6531 109.866 27.3385C109.588 30.1316 109.734 32.9121 110.043 35.6941C113.278 35.4885 116.188 35.986 119.602 36.4106Z" fill="#333332"/>
<path d="M129.041 87.4511C123.509 84.1715 115.112 81.5222 108.47 78.8513C101.492 76.0459 94.4919 73.224 87.185 70.6425C87.0833 70.6071 86.9267 70.6873 87.0276 70.7289C94.2043 73.7031 101.26 76.7531 108.434 79.7299C114.701 82.3304 121.423 85.8811 128.814 87.6071C128.989 87.6474 129.162 87.5232 129.041 87.4511Z" fill="#333332"/>
<path d="M129.377 70.4784C121.58 73.0599 114.338 76.3773 106.891 79.2347C99.8199 81.9478 92.573 84.6234 86.149 87.7365C86.0609 87.7789 86.1662 87.857 86.2672 87.8137C93.9307 84.5401 102.269 81.6969 110.307 78.6749C116.596 76.3101 124.887 73.8554 129.605 70.5867C129.721 70.5072 129.52 70.4312 129.377 70.4784Z" fill="#333332"/>
<path d="M27.7507 205.218V207.033L32.1787 211.394V211.143C32.1787 210.78 32.1339 210.428 32.0582 210.088C32.0544 210.07 32.0561 210.051 32.0521 210.033C32.0321 209.947 31.9881 209.871 31.964 209.788C31.8945 209.55 31.8183 209.317 31.7153 209.096C31.6984 209.059 31.6919 209.017 31.6744 208.981C31.6424 208.918 31.5905 208.868 31.5559 208.806C31.4147 208.55 31.2531 208.31 31.0695 208.084C31.0603 208.073 31.053 208.061 31.0454 208.048L27.7042 204.758C27.7217 204.911 27.7507 205.061 27.7507 205.218Z" fill="#333332"/>
<path d="M32.179 213.134L27.751 208.773V211L32.179 215.362V213.134Z" fill="#333332"/>
<path d="M32.179 217.104L27.751 212.743V214.968L32.179 219.33V217.104Z" fill="#333332"/>
<path d="M32.0833 223.055C32.0892 223.042 32.0943 223.028 32.0998 223.015C32.1024 223.009 32.1041 223.004 32.1063 222.998C32.114 222.979 32.1226 222.961 32.1287 222.942C32.1424 222.902 32.1534 222.86 32.1617 222.818C32.1715 222.769 32.1768 222.718 32.1786 222.667C32.1786 222.656 32.179 222.645 32.179 222.634V221.072L27.7505 216.71C27.7505 217.333 27.5025 217.884 27.1338 218.328L32.0295 223.15C32.0493 223.12 32.0674 223.088 32.0833 223.055Z" fill="#333332"/>
<path d="M16.6555 209.75L15.652 208.762H13.3925L16.6555 211.976V209.75Z" fill="#333332"/>
<path d="M25.2162 219.267H24.0578L28.459 223.603H30.7184L26.1278 219.081C25.8435 219.192 25.5395 219.267 25.2162 219.267Z" fill="#333332"/>
<path d="M20.4239 219.267L24.5495 223.331C24.7197 223.498 24.9505 223.603 25.2047 223.603H26.6911L22.2895 219.267H20.4239Z" fill="#333332"/>
<path d="M14.2278 213.389C14.2349 213.382 14.2415 213.375 14.249 213.368C14.3095 213.31 14.3849 213.269 14.4601 213.228C14.4946 213.21 14.5236 213.184 14.5602 213.17C14.6725 213.126 14.7943 213.099 14.9244 213.099H16.0276L11.625 208.763H9.5293V208.924L14.1615 213.486C14.1855 213.456 14.1999 213.418 14.2278 213.389Z" fill="#333332"/>
<path d="M13.9569 215.028L9.52942 210.667V212.892L13.9569 217.253V215.028Z" fill="#333332"/>
<path d="M13.9569 218.995L9.52942 214.634V216.86L13.9569 221.221V218.995Z" fill="#333332"/>
<path d="M13.9569 222.965L9.52942 218.604V220.83L13.9569 225.191V222.965Z" fill="#333332"/>
<path d="M32.1097 246.468C32.1038 246.452 32.0992 246.436 32.0922 246.42C32.0873 246.409 32.0855 246.397 32.0802 246.386C32.0429 246.311 31.9963 246.242 31.9411 246.18C31.9274 246.164 31.912 246.148 31.8965 246.133L27.7507 242.049V242.746L32.1787 247.107V246.808C32.1787 246.734 32.1706 246.661 32.1541 246.592C32.1437 246.548 32.1256 246.509 32.1097 246.468Z" fill="#333332"/>
<path d="M13.9569 226.933L9.52942 222.572V224.797L13.9569 229.158V226.933Z" fill="#333332"/>
<path d="M13.9569 230.901L9.52942 226.539V228.765L13.9569 233.126V230.901Z" fill="#333332"/>
<path d="M27.7507 246.713L32.1787 251.074V248.848L27.7507 244.487V246.713Z" fill="#333332"/>
<path d="M13.9569 234.867L9.52942 230.505V232.733L13.9569 237.094V234.867Z" fill="#333332"/>
<path d="M27.7507 248.666C27.7507 249.276 27.639 249.855 27.4807 250.416L32.1475 255.012C32.1551 254.926 32.1732 254.842 32.1765 254.755C32.1781 254.7 32.1787 254.646 32.1787 254.59V252.816L27.7507 248.454V248.666Z" fill="#333332"/>
<path d="M26.065 252.989L30.963 257.813C30.9805 257.796 30.9985 257.781 31.0144 257.762C31.1086 257.651 31.1907 257.53 31.2752 257.411C31.3053 257.369 31.3392 257.33 31.3678 257.286C31.3786 257.269 31.3929 257.255 31.4039 257.238C31.513 257.068 31.612 256.891 31.7002 256.707C31.7227 256.661 31.7374 256.611 31.7582 256.564C31.7785 256.519 31.7961 256.472 31.8142 256.426L26.9809 251.665C26.7282 252.145 26.4248 252.589 26.065 252.989Z" fill="#333332"/>
<path d="M13.9569 238.837L9.52942 234.475V236.701L13.9569 241.062V238.837Z" fill="#333332"/>
<path d="M13.9569 242.805L9.52942 238.444V240.67L13.9569 245.031V242.805Z" fill="#333332"/>
<path d="M23.7237 254.651L28.4613 259.318C28.4874 259.31 28.5137 259.303 28.5405 259.296C28.7378 259.244 28.9339 259.191 29.1206 259.115C29.2296 259.072 29.331 259.016 29.4356 258.965C29.5999 258.885 29.7616 258.802 29.9143 258.704C29.9516 258.681 29.9854 258.653 30.0212 258.629L25.1474 253.828C24.7091 254.158 24.2379 254.441 23.7237 254.651Z" fill="#333332"/>
<path d="M21.3062 255.133H20.1839L24.5867 259.47L26.8461 259.469L22.337 255.028C21.9996 255.083 21.6595 255.133 21.3062 255.133Z" fill="#333332"/>
<path d="M12.2803 245.122L9.52942 242.413V244.638L10.0208 245.122H12.2803Z" fill="#333332"/>
<path d="M22.819 259.47L18.4157 255.133H16.1562L20.5596 259.47H22.819Z" fill="#333332"/>
<path d="M18.7904 259.47L14.3869 255.133H12.1276L16.5308 259.47H18.7904Z" fill="#333332"/>
<path d="M14.7608 259.47L10.3574 255.133H8.09641L12.5003 259.47H14.7608Z" fill="#333332"/>
<path d="M6.32938 255.133H4.71675C4.46871 255.133 4.24501 255.099 4.013 255.078L7.42649 258.442C8.20638 259.117 9.29918 259.47 10.7321 259.47H10.7332L6.32938 255.133Z" fill="#333332"/>
<path d="M21.2656 200.339C23.9665 200.339 26.164 202.517 26.164 205.218V216.71C26.164 217.234 25.7407 217.678 25.2164 217.678H19.1897C18.6655 217.678 18.242 217.235 18.242 216.711V208.122C18.242 207.597 17.8191 207.174 17.295 207.174H8.90956C8.36509 207.174 7.94174 207.598 7.94174 208.122V245.743C7.94174 246.287 8.36509 246.71 8.90956 246.71H17.295C17.8191 246.71 18.242 246.287 18.242 245.743V240.884C18.242 240.359 18.6655 239.936 19.1897 239.936H25.2164C25.7407 239.936 26.164 240.359 26.164 240.884V248.666C26.164 251.367 23.9867 253.545 21.3061 253.545L4.71648 253.545C1.57211 253.545 0 251.912 0 248.666V205.219C0 201.973 1.57211 200.339 4.71648 200.339H21.2656Z" fill="#333332"/>
<path d="M57.2507 204.759L61.6786 209.12V207.212C61.6786 207.137 61.6699 207.065 61.6538 206.995C61.6434 206.952 61.6249 206.912 61.6096 206.872C61.6029 206.855 61.5992 206.839 61.5921 206.823C61.5878 206.814 61.5854 206.805 61.5821 206.796L57.2507 202.53V204.759Z" fill="#333332"/>
<path d="M61.5235 212.868C61.5449 212.834 61.5646 212.799 61.5821 212.763C61.5887 212.75 61.5936 212.735 61.5995 212.721C61.6019 212.716 61.6034 212.71 61.6056 212.705C61.6133 212.687 61.6209 212.67 61.6274 212.651C61.6412 212.61 61.6522 212.568 61.6604 212.525C61.6703 212.473 61.6762 212.421 61.6779 212.367C61.6783 212.355 61.6783 212.344 61.6783 212.332V210.849L57.2373 206.475C57.2209 207.091 56.9777 207.641 56.6003 208.075L61.4993 212.901C61.507 212.889 61.5162 212.879 61.5235 212.868Z" fill="#333332"/>
<path d="M60.1496 213.301L55.5694 208.789C55.2998 208.887 55.0189 208.963 54.7164 208.963H53.4862L57.89 213.301H60.1496Z" fill="#333332"/>
<path d="M56.1337 213.301L51.7304 208.963H49.4711L53.8742 213.301H56.1337Z" fill="#333332"/>
<path d="M52.1168 213.301L47.714 208.964L45.4552 208.965L49.8573 213.301H52.1168Z" fill="#333332"/>
<path d="M47.7701 214.248C47.7701 214.12 47.798 213.998 47.8464 213.886C47.8479 213.883 47.8497 213.878 47.8507 213.874C47.8984 213.768 47.9662 213.674 48.0474 213.592C48.055 213.584 48.0627 213.577 48.0704 213.57C48.123 213.52 48.1877 213.485 48.2517 213.45L43.6983 208.965H43.3422V210.839L47.7701 215.202V214.248Z" fill="#333332"/>
<path d="M47.7701 216.934L43.3422 212.573V214.798L47.7701 219.16V216.934Z" fill="#333332"/>
<path d="M47.7701 220.889L43.3422 216.528V218.754L47.7701 223.115V220.889Z" fill="#333332"/>
<path d="M47.7701 224.846L43.3422 220.484V222.711L47.7701 227.073V224.846Z" fill="#333332"/>
<path d="M55.316 238.461L59.7433 242.822V240.596L55.316 236.235V238.461Z" fill="#333332"/>
<path d="M47.7701 228.803L43.3422 224.441V226.666L47.7701 231.028V228.803Z" fill="#333332"/>
<path d="M46.8943 231.897L43.3422 228.398V230.623L44.6354 231.897L46.8943 231.897Z" fill="#333332"/>
<path d="M54.0275 241.149L58.8087 245.859C59.0208 245.855 59.207 245.773 59.3633 245.653C59.3762 245.643 59.3971 245.647 59.4092 245.636C59.425 245.623 59.4383 245.607 59.4529 245.593C59.4605 245.585 59.4678 245.578 59.4755 245.571C59.4892 245.556 59.5045 245.543 59.5175 245.528C59.545 245.496 59.5702 245.462 59.5932 245.427C59.6146 245.394 59.6337 245.359 59.6508 245.323C59.6556 245.312 59.6594 245.3 59.6649 245.289C59.6666 245.284 59.6688 245.279 59.6706 245.274C59.6787 245.255 59.6879 245.235 59.6946 245.215C59.7077 245.176 59.7187 245.135 59.7262 245.094C59.7356 245.045 59.7412 244.996 59.7433 244.945C59.7433 244.935 59.7437 244.924 59.7437 244.913V244.553L55.1077 239.986C54.8914 240.489 54.4964 240.875 54.0275 241.149Z" fill="#333332"/>
<path d="M54.9177 244.92C55.7021 244.92 56.3769 245.299 56.8425 245.861H57.0561L52.6549 241.525H50.3933L53.8396 244.92H54.9177Z" fill="#333332"/>
<path d="M57.452 252.434L61.8799 256.796V254.57L57.452 250.209V252.434Z" fill="#333332"/>
<path d="M52.0834 244.92L48.637 241.525H46.377L49.8241 244.92H52.0834Z" fill="#333332"/>
<path d="M48.0655 244.92L44.6185 241.525H43.3417V242.493L45.806 244.92H48.0655Z" fill="#333332"/>
<path d="M55.9432 254.905L60.5766 259.47H60.9327C61.1426 259.47 61.3265 259.385 61.4837 259.265C61.4979 259.255 61.5205 259.259 61.5342 259.247C61.5532 259.23 61.5696 259.211 61.5883 259.193C61.5961 259.184 61.6036 259.178 61.6114 259.17C61.6223 259.158 61.6356 259.148 61.6459 259.136C61.6737 259.102 61.7006 259.067 61.7242 259.029C61.7467 258.995 61.7665 258.959 61.7844 258.922C61.7905 258.909 61.7948 258.896 61.8003 258.883C61.803 258.877 61.8052 258.87 61.808 258.865C61.8152 258.846 61.8233 258.828 61.8299 258.809C61.8431 258.769 61.8546 258.728 61.8628 258.685C61.8722 258.636 61.8775 258.585 61.8797 258.534V258.527L57.092 253.812C56.8253 254.286 56.4395 254.681 55.9432 254.905Z" fill="#333332"/>
<path d="M43.3419 244.222V244.92H44.0507L43.3419 244.222Z" fill="#333332"/>
<path d="M58.8216 259.47L54.42 255.134H52.1594L56.5617 259.47H58.8216Z" fill="#333332"/>
<path d="M54.8037 259.47L50.402 255.134H48.1425L52.5442 259.47H54.8037Z" fill="#333332"/>
<path d="M50.7871 259.47L46.3849 255.134H44.1254L48.5276 259.47H50.7871Z" fill="#333332"/>
<path d="M46.7702 259.47L42.368 255.134H40.1085L44.5107 259.47H46.7702Z" fill="#333332"/>
<path d="M38.3524 255.134H36.0907L40.4194 259.398C40.5296 259.444 40.6497 259.47 40.7756 259.47H42.7551L38.3524 255.134Z" fill="#333332"/>
<path d="M54.716 200.34C55.2401 200.34 55.663 200.762 55.663 201.287V206.408C55.663 206.952 55.2401 207.376 54.716 207.376L42.7226 207.376C42.1983 207.376 41.7552 207.799 41.7552 208.323V232.517C41.7552 233.062 42.1983 233.485 42.7226 233.485L52.7809 233.485C53.3051 233.485 53.7284 233.908 53.7284 234.432V238.989C53.7284 239.513 53.3051 239.936 52.7809 239.936L42.7226 239.936C42.1983 239.936 41.7552 240.36 41.7552 240.884V245.542C41.7552 246.066 42.1983 246.509 42.7226 246.509H54.9174C55.4417 246.509 55.865 246.932 55.865 247.456V252.577C55.865 253.102 55.4417 253.545 54.9174 253.545L34.7605 253.546C34.2364 253.546 33.8129 253.102 33.8129 252.578V201.288C33.8129 200.763 34.2364 200.34 34.7605 200.34L54.716 200.34Z" fill="#333332"/>
<path d="M118.844 204.759L123.272 209.12V207.212C123.272 207.137 123.263 207.065 123.248 206.995C123.238 206.952 123.218 206.912 123.203 206.872C123.196 206.855 123.193 206.839 123.186 206.823C123.182 206.814 123.179 206.805 123.176 206.796L118.844 202.53V204.759Z" fill="#333332"/>
<path d="M123.117 212.868C123.139 212.834 123.158 212.799 123.175 212.763C123.182 212.75 123.187 212.735 123.193 212.721C123.195 212.716 123.197 212.71 123.199 212.705C123.207 212.687 123.215 212.67 123.221 212.651C123.235 212.61 123.246 212.568 123.254 212.525C123.264 212.473 123.27 212.421 123.271 212.367C123.272 212.355 123.272 212.344 123.272 212.332V210.849L118.831 206.475C118.814 207.091 118.571 207.641 118.194 208.075L123.093 212.901C123.101 212.889 123.11 212.879 123.117 212.868Z" fill="#333332"/>
<path d="M121.743 213.301L117.163 208.789C116.893 208.887 116.612 208.963 116.31 208.963H115.08L119.483 213.301H121.743Z" fill="#333332"/>
<path d="M117.727 213.301L113.324 208.963H111.065L115.468 213.301H117.727Z" fill="#333332"/>
<path d="M113.711 213.301L109.308 208.964L107.049 208.965L111.451 213.301H113.711Z" fill="#333332"/>
<path d="M109.364 214.248C109.364 214.12 109.392 213.998 109.44 213.886C109.442 213.883 109.443 213.878 109.444 213.874C109.492 213.768 109.56 213.674 109.641 213.592C109.649 213.584 109.656 213.577 109.664 213.57C109.717 213.52 109.781 213.485 109.845 213.45L105.292 208.965H104.936V210.839L109.364 215.202V214.248Z" fill="#333332"/>
<path d="M109.364 216.934L104.936 212.573V214.798L109.364 219.16V216.934Z" fill="#333332"/>
<path d="M109.364 220.889L104.936 216.528V218.754L109.364 223.115V220.889Z" fill="#333332"/>
<path d="M109.364 224.846L104.936 220.484V222.711L109.364 227.073V224.846Z" fill="#333332"/>
<path d="M116.909 238.461L121.337 242.822V240.596L116.909 236.235V238.461Z" fill="#333332"/>
<path d="M109.364 228.803L104.936 224.441V226.666L109.364 231.028V228.803Z" fill="#333332"/>
<path d="M108.488 231.897L104.936 228.398V230.623L106.229 231.897L108.488 231.897Z" fill="#333332"/>
<path d="M115.621 241.149L120.403 245.859C120.614 245.855 120.8 245.773 120.956 245.653C120.97 245.643 120.991 245.647 121.003 245.636C121.019 245.623 121.032 245.607 121.047 245.593C121.054 245.585 121.062 245.578 121.069 245.571C121.083 245.556 121.098 245.543 121.111 245.528C121.138 245.496 121.164 245.462 121.186 245.427C121.208 245.394 121.227 245.359 121.244 245.323C121.249 245.312 121.253 245.3 121.258 245.289C121.26 245.284 121.263 245.279 121.264 245.274C121.272 245.255 121.282 245.235 121.288 245.215C121.301 245.176 121.312 245.135 121.32 245.094C121.329 245.045 121.335 244.996 121.337 244.945C121.337 244.935 121.338 244.924 121.338 244.913V244.553L116.701 239.986C116.485 240.489 116.09 240.875 115.621 241.149Z" fill="#333332"/>
<path d="M116.511 244.92C117.296 244.92 117.971 245.299 118.436 245.861H118.65L114.248 241.525H111.987L115.433 244.92H116.511Z" fill="#333332"/>
<path d="M119.046 252.434L123.474 256.796V254.57L119.046 250.209V252.434Z" fill="#333332"/>
<path d="M113.677 244.92L110.23 241.525H107.971L111.418 244.92H113.677Z" fill="#333332"/>
<path d="M109.659 244.92L106.212 241.525H104.935V242.493L107.4 244.92H109.659Z" fill="#333332"/>
<path d="M117.537 254.905L122.171 259.47H122.526C122.736 259.47 122.921 259.385 123.077 259.265C123.092 259.255 123.114 259.259 123.128 259.247C123.147 259.23 123.163 259.211 123.182 259.193C123.19 259.184 123.198 259.178 123.205 259.17C123.216 259.158 123.229 259.148 123.239 259.136C123.268 259.102 123.294 259.067 123.318 259.029C123.34 258.995 123.36 258.959 123.378 258.922C123.384 258.909 123.389 258.896 123.394 258.883C123.397 258.877 123.399 258.87 123.401 258.865C123.409 258.846 123.417 258.828 123.423 258.809C123.437 258.769 123.448 258.728 123.456 258.685C123.465 258.636 123.472 258.585 123.473 258.534V258.527L118.685 253.812C118.419 254.286 118.034 254.681 117.537 254.905Z" fill="#333332"/>
<path d="M104.936 244.222V244.92H105.644L104.936 244.222Z" fill="#333332"/>
<path d="M120.415 259.47L116.014 255.134H113.753L118.155 259.47H120.415Z" fill="#333332"/>
<path d="M116.397 259.47L111.996 255.134H109.736L114.138 259.47H116.397Z" fill="#333332"/>
<path d="M112.381 259.47L107.979 255.134H105.719L110.121 259.47H112.381Z" fill="#333332"/>
<path d="M108.364 259.47L103.961 255.134H101.702L106.104 259.47H108.364Z" fill="#333332"/>
<path d="M99.9457 255.134H97.6841L102.013 259.398C102.123 259.444 102.243 259.47 102.369 259.47H104.349L99.9457 255.134Z" fill="#333332"/>
<path d="M116.31 200.34C116.834 200.34 117.257 200.762 117.257 201.287V206.408C117.257 206.952 116.834 207.376 116.31 207.376L104.316 207.376C103.792 207.376 103.348 207.799 103.348 208.323V232.517C103.348 233.062 103.792 233.485 104.316 233.485L114.374 233.485C114.899 233.485 115.322 233.908 115.322 234.432V238.989C115.322 239.513 114.899 239.936 114.374 239.936L104.316 239.936C103.792 239.936 103.348 240.36 103.348 240.884V245.542C103.348 246.066 103.792 246.509 104.316 246.509H116.511C117.035 246.509 117.459 246.932 117.459 247.456V252.577C117.459 253.102 117.035 253.545 116.511 253.545L96.3542 253.546C95.8301 253.546 95.4068 253.102 95.4068 252.578V201.288C95.4068 200.763 95.8301 200.34 96.3542 200.34L116.31 200.34Z" fill="#333332"/>
<path d="M139.11 204.704L143.538 209.066V207.212C143.538 207.137 143.529 207.065 143.513 206.995C143.504 206.952 143.484 206.912 143.469 206.872C143.463 206.855 143.458 206.839 143.452 206.824C143.447 206.813 143.444 206.8 143.439 206.79C143.413 206.738 143.378 206.693 143.344 206.648L139.11 202.478V204.704Z" fill="#333332"/>
<path d="M143.538 210.95L139.11 206.588V208.814L143.538 213.175V210.95Z" fill="#333332"/>
<path d="M143.538 215.06L139.11 210.698V212.925L143.538 217.286V215.06Z" fill="#333332"/>
<path d="M143.538 219.171L139.11 214.809V217.035L143.538 221.396V219.171Z" fill="#333332"/>
<path d="M143.538 223.277L139.11 218.917V221.143L143.538 225.504V223.277Z" fill="#333332"/>
<path d="M143.538 227.389L139.11 223.028V225.253L143.538 229.614V227.389Z" fill="#333332"/>
<path d="M143.538 231.498L139.11 227.137V229.365L143.538 233.727V231.498Z" fill="#333332"/>
<path d="M143.538 235.609L139.11 231.248V233.473L143.538 237.835V235.609Z" fill="#333332"/>
<path d="M143.538 239.718L139.11 235.357V237.582L143.538 241.943V239.718Z" fill="#333332"/>
<path d="M143.538 243.828L139.11 239.466V241.692L143.538 246.053V243.828Z" fill="#333332"/>
<path d="M143.538 250.164V247.938L139.11 243.577V245.803L143.538 250.164Z" fill="#333332"/>
<path d="M139.11 249.912L143.538 254.274V252.048L139.11 247.687V249.912Z" fill="#333332"/>
<path d="M139.11 252.577C139.11 252.996 138.986 253.374 138.808 253.724L143.538 258.382V256.157L139.11 251.796V252.577Z" fill="#333332"/>
<path d="M142.591 259.47C142.631 259.47 142.667 259.454 142.706 259.447L137.893 254.707C137.503 254.953 137.069 255.134 136.576 255.134H136.067L140.469 259.47H142.591Z" fill="#333332"/>
<path d="M134.154 255.134H131.895L136.232 259.407C136.331 259.443 136.433 259.47 136.543 259.47H138.556L134.154 255.134Z" fill="#333332"/>
<path d="M136.575 200.34C137.099 200.34 137.523 200.763 137.523 201.287V252.577C137.523 253.102 137.099 253.545 136.575 253.545H130.528C130.004 253.545 129.581 253.102 129.581 252.577V201.287C129.581 200.763 130.004 200.34 130.528 200.34H136.575Z" fill="#333332"/>
<path d="M76.0026 204.766L80.4301 209.127V207.212C80.4301 207.137 80.4212 207.065 80.4053 206.995C80.3955 206.952 80.377 206.912 80.3609 206.872C80.3544 206.855 80.3505 206.84 80.3434 206.824C80.3419 206.82 80.3401 206.815 80.3391 206.812L76.0026 202.54V204.766Z" fill="#333332"/>
<path d="M80.4302 211.018L76.0028 206.657V208.883L80.4302 213.244V211.018Z" fill="#333332"/>
<path d="M80.4302 215.135L76.0028 210.773V212.999L80.4302 217.36V215.135Z" fill="#333332"/>
<path d="M80.4302 219.25L76.0028 214.889V217.115L80.4302 221.475V219.25Z" fill="#333332"/>
<path d="M80.4302 223.366L76.0028 219.005V221.232L80.4302 225.593V223.366Z" fill="#333332"/>
<path d="M80.4302 227.483L76.0028 223.123V225.348L80.4302 229.709V227.483Z" fill="#333332"/>
<path d="M80.4302 231.6L76.0028 227.239V229.464L80.4302 233.826V231.6Z" fill="#333332"/>
<path d="M80.4302 235.715L76.0028 231.354V233.579L80.4302 237.941V235.715Z" fill="#333332"/>
<path d="M93.3021 252.96C93.2954 252.944 93.2915 252.927 93.2845 252.911C93.2796 252.901 93.2779 252.889 93.2724 252.878C93.2351 252.803 93.1881 252.733 93.1333 252.672C93.119 252.656 93.1043 252.64 93.0889 252.624L88.943 248.542V250.443L93.3711 254.804V253.3C93.3711 253.225 93.3623 253.154 93.3463 253.083C93.3359 253.04 93.3179 253.001 93.3021 252.96Z" fill="#333332"/>
<path d="M80.4302 239.833L76.0028 235.471V237.698L80.4302 242.059V239.833Z" fill="#333332"/>
<path d="M80.4302 244.84V243.949L76.0028 239.588V241.813L79.0751 244.84H80.4302Z" fill="#333332"/>
<path d="M88.9433 252.577C88.9433 253.136 88.7275 253.627 88.4241 254.049L93.3028 258.854C93.3089 258.839 93.3154 258.825 93.3209 258.809C93.3346 258.769 93.3455 258.727 93.3538 258.685C93.363 258.636 93.3691 258.585 93.3708 258.534C93.3708 258.523 93.3708 258.512 93.3708 258.501V256.696L88.9433 252.334V252.577Z" fill="#333332"/>
<path d="M76.0026 243.703V244.839H77.1567L76.0026 243.703Z" fill="#333332"/>
<path d="M86.4089 255.132H85.3468L89.7507 259.47L92.0096 259.469L87.3991 254.928C87.0947 255.059 86.7605 255.132 86.4089 255.132Z" fill="#333332"/>
<path d="M81.1681 255.133L85.5715 259.47H87.8303L83.4276 255.133H81.1681Z" fill="#333332"/>
<path d="M76.9887 255.133L81.3915 259.47H83.6509L79.2482 255.133H76.9887Z" fill="#333332"/>
<path d="M79.4718 259.47L75.0695 255.134H72.81L77.2122 259.47H79.4718Z" fill="#333332"/>
<path d="M70.8923 255.134H68.6448L72.7607 259.188C72.9366 259.362 73.1765 259.47 73.4355 259.47H75.2946L70.8923 255.134Z" fill="#333332"/>
<path d="M71.8576 200.34C72.3818 200.34 72.8053 200.763 72.8053 201.287V245.481C72.8053 246.005 73.228 246.428 73.7522 246.428H84.7986C85.3228 246.428 85.7457 246.851 85.7457 247.376V252.577C85.7457 253.101 85.3228 253.545 84.7986 253.545L65.8106 253.545C65.2863 253.545 64.8426 253.102 64.8426 252.578V201.287C64.8426 200.763 65.2863 200.34 65.8106 200.34H71.8576Z" fill="#333332"/>
<path d="M216.152 205.219V206.616L220.561 210.959C220.548 210.489 220.506 210.049 220.426 209.647C220.414 209.59 220.419 209.516 220.406 209.461C220.388 209.387 220.355 209.33 220.336 209.259C220.279 209.054 220.21 208.862 220.133 208.678C220.1 208.6 220.083 208.506 220.046 208.433C220.023 208.385 219.987 208.351 219.962 208.306C219.874 208.142 219.77 207.996 219.661 207.852C219.653 207.842 219.646 207.83 219.639 207.818L216.085 204.319C216.117 204.612 216.152 204.902 216.152 205.219Z" fill="#333332"/>
<path d="M220.58 213.579L216.152 209.217V211.447L220.58 215.809V213.579Z" fill="#333332"/>
<path d="M220.58 218.414L216.152 214.053V216.28L220.58 220.641V218.414Z" fill="#333332"/>
<path d="M216.152 218.885V221.112L220.58 225.474V223.246L216.152 218.885Z" fill="#333332"/>
<path d="M205.035 208.763H203.615L205.035 210.161V208.763Z" fill="#333332"/>
<path d="M205.035 213.099V212.767L200.97 208.763H198.708L203.111 213.099H205.035Z" fill="#333332"/>
<path d="M216.152 225.945L220.58 230.306V228.079L216.152 223.717V225.945Z" fill="#333332"/>
<path d="M201.733 214.347L197.306 209.985V212.214L201.733 216.574V214.347Z" fill="#333332"/>
<path d="M216.152 230.777L220.58 235.138V232.911L216.152 228.55V230.777Z" fill="#333332"/>
<path d="M216.152 235.608L220.58 239.969V237.741L216.152 233.38V235.608Z" fill="#333332"/>
<path d="M201.733 219.177L197.306 214.817V217.044L201.733 221.405V219.177Z" fill="#333332"/>
<path d="M201.733 224.01L197.306 219.65V221.879L201.733 226.24V224.01Z" fill="#333332"/>
<path d="M216.152 240.441L220.58 244.802V242.574L216.152 238.212V240.441Z" fill="#333332"/>
<path d="M216.152 245.274L220.58 249.635V247.405L216.152 243.044V245.274Z" fill="#333332"/>
<path d="M201.733 228.841L197.306 224.48V226.71L201.733 231.071V228.841Z" fill="#333332"/>
<path d="M201.733 233.674L197.306 229.313V231.54L201.733 235.901V233.674Z" fill="#333332"/>
<path d="M216.152 248.667C216.152 249.138 216.114 249.581 216.053 250.006L220.58 254.465V252.238L216.152 247.876V248.667Z" fill="#333332"/>
<path d="M214.545 253.353L219.439 258.174C219.474 258.139 219.512 258.107 219.545 258.068C219.648 257.948 219.743 257.82 219.831 257.683C219.849 257.655 219.862 257.623 219.88 257.596C219.9 257.563 219.917 257.528 219.936 257.494C219.98 257.417 220.028 257.342 220.067 257.259C220.143 257.101 220.209 256.935 220.268 256.761L215.442 252.007C215.198 252.509 214.91 252.968 214.545 253.353Z" fill="#333332"/>
<path d="M201.733 238.506L197.306 234.145V236.375L201.733 240.735V238.506Z" fill="#333332"/>
<path d="M211.305 254.995L215.842 259.464C216.491 259.457 217.062 259.374 217.577 259.234C217.636 259.218 217.701 259.209 217.758 259.191C217.775 259.186 217.786 259.173 217.803 259.168L213.004 254.441C212.49 254.687 211.933 254.885 211.305 254.995Z" fill="#333332"/>
<path d="M201.733 245.123V243.34L197.306 238.978V241.206L201.282 245.123H201.733Z" fill="#333332"/>
<path d="M197.306 243.811V245.123H198.638L197.306 243.811Z" fill="#333332"/>
<path d="M206.539 255.133L210.941 259.47H213.203L208.8 255.133H206.539Z" fill="#333332"/>
<path d="M201.635 255.133L206.037 259.47H208.299L203.897 255.133H201.635Z" fill="#333332"/>
<path d="M196.729 255.133L201.132 259.47H203.394L198.991 255.133H196.729Z" fill="#333332"/>
<path d="M194.085 255.133H192.474C192.225 255.133 192 255.1 191.766 255.079L195.169 258.431C195.95 259.115 197.047 259.47 198.488 259.47H198.488L194.085 255.133Z" fill="#333332"/>
<path d="M206.623 245.743V208.122C206.623 207.598 206.2 207.174 205.676 207.174H196.665C196.142 207.174 195.718 207.598 195.718 208.122V245.743C195.718 246.288 196.142 246.71 196.665 246.71H205.676C206.2 246.71 206.623 246.287 206.623 245.743ZM209.748 200.34C212.973 200.34 214.565 201.972 214.565 205.218V248.665C214.565 251.912 212.973 253.545 209.748 253.545L192.473 253.546C189.329 253.546 187.756 251.912 187.756 248.667V205.219C187.756 201.973 189.329 200.34 192.473 200.34H209.748Z" fill="#333332"/>
<path d="M177.136 205.218V206.652L181.547 210.997C181.536 210.509 181.49 210.058 181.407 209.644C181.395 209.587 181.4 209.513 181.388 209.458C181.37 209.384 181.337 209.327 181.317 209.257C181.26 209.05 181.191 208.856 181.113 208.671C181.079 208.593 181.063 208.499 181.027 208.425C181.003 208.378 180.966 208.343 180.942 208.298C180.871 208.167 180.786 208.052 180.701 207.936L177.073 204.362C177.102 204.64 177.136 204.916 177.136 205.218Z" fill="#333332"/>
<path d="M181.563 213.369L177.136 209.01V211.239L181.563 215.599V213.369Z" fill="#333332"/>
<path d="M181.563 217.953L177.136 213.594V215.823L181.563 220.183V217.953Z" fill="#333332"/>
<path d="M177.136 218.18V220.408L181.562 224.767V222.539L177.136 218.18Z" fill="#333332"/>
<path d="M166.036 208.762H165.313L166.036 209.474V208.762Z" fill="#333332"/>
<path d="M177.136 224.995L181.562 229.355V227.128L177.136 222.768V224.995Z" fill="#333332"/>
<path d="M166.036 213.099V211.834L162.917 208.762H160.656L165.059 213.099H166.036Z" fill="#333332"/>
<path d="M177.136 229.58L181.562 233.939V231.712L177.136 227.352V229.58Z" fill="#333332"/>
<path d="M163.623 214.046C163.623 214.045 163.624 214.044 163.624 214.044L159.196 209.68V211.908L163.623 216.269V214.046Z" fill="#333332"/>
<path d="M177.136 234.168L181.562 238.528V236.298L177.136 231.938V234.168Z" fill="#333332"/>
<path d="M163.623 218.627L159.196 214.267V216.496L163.623 220.857V218.627Z" fill="#333332"/>
<path d="M176.646 238.269L181.434 242.984C181.44 242.957 181.449 242.933 181.455 242.903C181.464 242.858 181.464 242.798 181.471 242.75C181.505 242.542 181.528 242.319 181.541 242.079C181.544 242.025 181.555 241.984 181.557 241.928C181.561 241.824 181.563 241.717 181.563 241.606V240.883L177.058 236.447C177.001 237.13 176.863 237.738 176.646 238.269Z" fill="#333332"/>
<path d="M163.623 223.213L159.196 218.853V221.083L163.623 225.442V223.213Z" fill="#333332"/>
<path d="M174.409 240.651L179.256 245.425C179.263 245.422 179.277 245.42 179.285 245.417C179.726 245.226 180.094 245.011 180.405 244.755C180.419 244.743 180.442 244.736 180.455 244.725C180.499 244.687 180.536 244.643 180.578 244.603C180.595 244.586 180.612 244.568 180.629 244.551L175.708 239.704C175.352 240.063 174.918 240.38 174.409 240.651Z" fill="#333332"/>
<path d="M163.623 227.799L159.196 223.439V225.666L163.623 230.027V227.799Z" fill="#333332"/>
<path d="M163.127 231.896L159.196 228.024V230.253L160.864 231.897L163.127 231.896Z" fill="#333332"/>
<path d="M170.969 241.457L171.666 242.537L175.267 246.084C175.28 246.073 175.288 246.057 175.301 246.046C175.452 245.932 175.63 245.846 175.838 245.84C176.353 245.828 176.8 245.803 177.215 245.772L172.652 241.279C172.174 241.36 171.619 241.42 170.969 241.457Z" fill="#333332"/>
<path d="M180.615 255.935L176.672 249.824L175.838 249.003L177.266 251.214C177.609 251.746 177.717 252.376 177.619 252.984L180.615 255.935Z" fill="#333332"/>
<path d="M181.139 259.469C181.311 259.469 181.46 259.415 181.593 259.342C181.613 259.331 181.631 259.32 181.649 259.31L176.768 254.503C176.319 254.888 175.751 255.126 175.139 255.13L179.545 259.469H181.139Z" fill="#333332"/>
<path d="M170.489 255.132L174.834 259.411C174.924 259.442 175.015 259.469 175.112 259.469H177.155L172.751 255.132H170.489Z" fill="#333332"/>
<path d="M159.196 241.875V244.009L162.917 247.674L159.196 241.875Z" fill="#333332"/>
<path d="M159.196 248.596L163.623 252.956V252.555V250.728L159.196 246.368V248.596Z" fill="#333332"/>
<path d="M159.196 252.577C159.196 252.755 159.13 252.912 159.095 253.081L163.623 257.541V255.313L159.196 250.953V252.577Z" fill="#333332"/>
<path d="M156.661 255.134H156.525L160.926 259.47H162.675C162.821 259.47 162.95 259.42 163.071 259.355L158.2 254.556C157.768 254.898 157.249 255.134 156.661 255.134Z" fill="#333332"/>
<path d="M154.131 255.134H151.867L156.047 259.252C156.212 259.38 156.408 259.47 156.628 259.47H158.533L154.131 255.134Z" fill="#333332"/>
<path d="M167.625 232.516V208.122C167.625 207.598 167.203 207.174 166.678 207.174H158.555C158.03 207.174 157.608 207.598 157.608 208.122V232.517C157.608 233.062 158.03 233.484 158.555 233.484H166.678C167.203 233.484 167.625 233.061 167.625 232.516ZM175.93 252.073C176.333 252.698 175.89 253.545 175.123 253.545L169.097 253.545C168.775 253.545 168.472 253.364 168.311 253.101L164.561 247.295L160.147 240.42C159.945 240.118 159.623 239.936 159.281 239.936H158.635C158.071 239.936 157.608 240.4 157.608 240.985V246.63V252.578C157.608 253.102 157.184 253.546 156.66 253.546H150.613C150.089 253.546 149.646 253.102 149.646 252.578V201.287C149.646 200.763 150.089 200.34 150.613 200.34L170.77 200.339C173.955 200.339 175.548 201.972 175.548 205.218V235.682C175.548 237.94 174.801 238.827 173.269 239.492C172.665 239.734 171.516 239.875 169.823 239.916C169.097 239.936 168.633 240.763 169.036 241.388L175.93 252.073Z" fill="#333332"/>
<path d="M39.1585 272.208L42.3162 275.318C42.3076 275.258 42.2997 275.198 42.2868 275.14C42.2565 275.009 42.193 274.9 42.1568 274.773C42.0643 274.449 41.9564 274.135 41.8255 273.839C41.7832 273.743 41.7647 273.631 41.7181 273.538C41.6738 273.449 41.6015 273.38 41.5532 273.293C41.3901 273.001 41.201 272.728 40.9957 272.467C40.9179 272.369 40.8685 272.25 40.7854 272.155C40.737 272.102 40.6856 272.051 40.6357 271.999L38.8512 270.241C39.0111 270.859 39.1086 271.518 39.1585 272.208Z" fill="#333332"/>
<path d="M42.5178 277.311C42.5178 277.117 42.487 276.946 42.4749 276.761L39.2072 273.542V275.206L42.5178 278.467V277.311Z" fill="#333332"/>
<path d="M42.5178 279.752L39.2072 276.492V278.155L42.5178 281.417V279.752Z" fill="#333332"/>
<path d="M29.7604 271.8L30.7282 272.753C30.5826 272.309 30.2973 271.979 29.7604 271.8Z" fill="#333332"/>
<path d="M39.2068 281.105L42.5175 284.366V282.702L39.2068 279.441V281.105Z" fill="#333332"/>
<path d="M30.8652 274.884V274.175L28.2925 271.641H26.6033L29.8952 274.884H30.8652Z" fill="#333332"/>
<path d="M39.2068 284.056L42.5175 287.317V285.653L39.2068 282.391V284.056Z" fill="#333332"/>
<path d="M28.6374 275.592C28.6374 275.496 28.6582 275.405 28.6944 275.322L28.6982 275.312C28.7299 275.241 28.7782 275.178 28.8313 275.121L25.3262 271.669V273.333L28.6374 276.595V275.592Z" fill="#333332"/>
<path d="M39.2068 287.006L42.5175 290.267V288.603L39.2068 285.341V287.006Z" fill="#333332"/>
<path d="M28.6374 277.88L25.3262 274.619V276.283L28.6374 279.545V277.88Z" fill="#333332"/>
<path d="M39.2068 289.955L42.5175 293.216V291.552L39.2068 288.291V289.955Z" fill="#333332"/>
<path d="M39.2068 292.905L42.5175 296.167V294.503L39.2068 291.241V292.905Z" fill="#333332"/>
<path d="M28.6374 280.83L25.3262 277.569V279.232L28.6374 282.494V280.83Z" fill="#333332"/>
<path d="M28.6374 283.78L25.3262 280.518V282.182L28.6374 285.444V283.78Z" fill="#333332"/>
<path d="M39.2068 295.856L42.5175 299.117V297.453L39.2068 294.192V295.856Z" fill="#333332"/>
<path d="M39.2069 297.618C39.2069 298.004 39.1521 298.355 39.1176 298.719L42.5175 302.068C42.5175 302.06 42.5175 302.054 42.5175 302.047V300.402L39.2069 297.141V297.618Z" fill="#333332"/>
<path d="M28.6374 286.73L25.3262 283.468V285.134L28.6374 288.395V286.73Z" fill="#333332"/>
<path d="M38.6064 301.164L42.1569 304.661C42.228 304.42 42.2999 304.179 42.3491 303.922C42.3563 303.884 42.3557 303.841 42.3623 303.803C42.3935 303.629 42.4029 303.44 42.422 303.258L38.9625 299.85C38.8677 300.304 38.762 300.751 38.6064 301.164Z" fill="#333332"/>
<path d="M28.6374 289.68L25.3262 286.419V288.083L28.6374 291.344V289.68Z" fill="#333332"/>
<path d="M28.6374 292.63L25.3262 289.368V291.033L28.6374 294.295V292.63Z" fill="#333332"/>
<path d="M37.5319 303.057L41.1924 306.662C41.2286 306.61 41.2702 306.562 41.3052 306.51C41.3217 306.485 41.342 306.463 41.3577 306.439C41.3656 306.428 41.3742 306.418 41.3813 306.407C41.5249 306.185 41.6542 305.953 41.7704 305.711C41.7861 305.677 41.7977 305.641 41.812 305.607L38.176 302.025C37.9858 302.386 37.7761 302.733 37.5319 303.057Z" fill="#333332"/>
<path d="M36.7616 303.977C36.5413 304.19 36.2839 304.354 36.0424 304.538L39.6919 308.133C39.8344 308.037 39.9861 307.952 40.1176 307.84C40.227 307.747 40.3339 307.65 40.438 307.549C40.4982 307.492 40.5502 307.429 40.6078 307.37L36.9434 303.761C36.8771 303.828 36.8305 303.911 36.7616 303.977Z" fill="#333332"/>
<path d="M28.6374 295.579L25.3262 292.318V293.984L28.6374 297.245V295.579Z" fill="#333332"/>
<path d="M34.1506 305.625L37.7056 309.126C37.7624 309.109 37.8255 309.101 37.8813 309.082C38.0621 309.021 38.2248 308.935 38.3968 308.861C38.565 308.789 38.7253 308.707 38.8882 308.627L35.2845 305.078C34.9268 305.288 34.5472 305.469 34.1506 305.625Z" fill="#333332"/>
<path d="M28.4198 298.827C28.4998 298.827 28.5617 298.816 28.6374 298.814V298.53L25.3262 295.269V296.933L27.2488 298.827H28.4198Z" fill="#333332"/>
<path d="M36.4314 309.435C36.5114 309.423 36.5845 309.401 36.6598 309.382L33.1524 305.928C32.7007 306.047 32.2346 306.144 31.7415 306.202L35.1221 309.532C35.5723 309.519 36.0162 309.497 36.4314 309.435Z" fill="#333332"/>
<path d="M25.3262 298.219V298.827H25.9436L25.3262 298.219Z" fill="#333332"/>
<path d="M33.8407 309.554L30.5312 306.295C30.4578 306.297 30.3938 306.312 30.3187 306.312H28.8573L32.1498 309.554H33.8407Z" fill="#333332"/>
<path d="M30.8449 309.555L27.5524 306.312H25.8637L29.1557 309.555H30.8449Z" fill="#333332"/>
<path d="M27.8501 309.555L24.5581 306.313H22.8688L26.1608 309.555H27.8501Z" fill="#333332"/>
<path d="M21.5645 306.313H19.8738L23.0468 309.438C23.1541 309.506 23.273 309.555 23.4078 309.555L24.8566 309.554L21.5645 306.313Z" fill="#333332"/>
<path d="M66.4564 268.992V270.037L69.7534 273.283C69.743 272.933 69.7115 272.603 69.6512 272.303C69.6426 272.26 69.6465 272.205 69.6371 272.164C69.6239 272.109 69.5988 272.066 69.5841 272.013C69.5418 271.86 69.4903 271.716 69.4323 271.578C69.4076 271.52 69.3956 271.45 69.3683 271.394C69.3506 271.359 69.3232 271.334 69.3052 271.3C69.2389 271.178 69.1606 271.069 69.08 270.961C69.074 270.953 69.0686 270.944 69.0631 270.936L66.4065 268.319C66.4295 268.538 66.4564 268.755 66.4564 268.992Z" fill="#333332"/>
<path d="M69.7672 275.242L66.4565 271.981V273.649L69.7672 276.909V275.242Z" fill="#333332"/>
<path d="M69.7672 278.858L66.4565 275.597V277.263L69.7672 280.523V278.858Z" fill="#333332"/>
<path d="M66.4564 279.21V280.875L69.767 284.137V282.471L66.4564 279.21Z" fill="#333332"/>
<path d="M58.1442 271.642H57.0827L58.1442 272.687V271.642Z" fill="#333332"/>
<path d="M58.1442 274.884V274.635L55.1047 271.642H53.4139L56.7058 274.884H58.1442Z" fill="#333332"/>
<path d="M66.4564 284.489L69.767 287.75V286.084L66.4564 282.823V284.489Z" fill="#333332"/>
<path d="M55.6755 275.817L52.3655 272.556V274.222L55.6755 277.482V275.817Z" fill="#333332"/>
<path d="M66.4564 288.101L69.767 291.363V289.697L66.4564 286.436V288.101Z" fill="#333332"/>
<path d="M66.4564 291.713L69.767 294.974V293.309L66.4564 290.047V291.713Z" fill="#333332"/>
<path d="M55.6755 279.428L52.3655 276.168V277.833L55.6755 281.095V279.428Z" fill="#333332"/>
<path d="M55.6755 283.042L52.3655 279.782V281.449L55.6755 284.709V283.042Z" fill="#333332"/>
<path d="M66.4564 295.327L69.7637 298.588V296.921L66.4564 293.661V295.327Z" fill="#333332"/>
<path d="M66.4564 298.941L69.767 302.201V300.534L66.4564 297.274V298.941Z" fill="#333332"/>
<path d="M55.6755 286.654L52.3655 283.393V285.061L55.6755 288.321V286.654Z" fill="#333332"/>
<path d="M55.6755 290.267L52.3655 287.007V288.673L55.6755 291.933V290.267Z" fill="#333332"/>
<path d="M66.4564 301.477C66.4564 301.83 66.4273 302.161 66.3819 302.479L69.767 305.813V304.148L66.4564 300.887V301.477Z" fill="#333332"/>
<path d="M65.2545 304.981L68.914 308.586C68.9402 308.559 68.9686 308.535 68.9934 308.507C69.07 308.417 69.1412 308.321 69.207 308.219C69.2202 308.198 69.2306 308.175 69.2436 308.153C69.2585 308.129 69.2711 308.103 69.2852 308.077C69.3182 308.019 69.3536 307.963 69.3833 307.902C69.4397 307.784 69.4896 307.659 69.5335 307.529L65.925 303.975C65.7436 304.35 65.5278 304.694 65.2545 304.981Z" fill="#333332"/>
<path d="M55.6755 293.88L52.3655 290.62V292.287L55.6755 295.547V293.88Z" fill="#333332"/>
<path d="M62.8318 306.209L66.2246 309.551C66.7094 309.546 67.1366 309.483 67.5218 309.378C67.5655 309.366 67.6147 309.36 67.6576 309.347C67.6702 309.343 67.6778 309.333 67.6904 309.329L64.102 305.794C63.7182 305.979 63.3018 306.126 62.8318 306.209Z" fill="#333332"/>
<path d="M55.6755 298.828V297.494L52.3655 294.234V295.899L55.3381 298.828H55.6755Z" fill="#333332"/>
<path d="M52.3655 297.847V298.828H53.3608L52.3655 297.847Z" fill="#333332"/>
<path d="M59.2686 306.312L62.5601 309.555H64.2514L60.9594 306.312H59.2686Z" fill="#333332"/>
<path d="M55.6017 306.312L58.8936 309.555H60.5845L57.2927 306.312H55.6017Z" fill="#333332"/>
<path d="M51.9339 306.312L55.2258 309.555H56.9167L53.6248 306.312H51.9339Z" fill="#333332"/>
<path d="M49.9572 306.312H48.7522C48.5659 306.312 48.3983 306.287 48.223 306.272L50.7672 308.778C51.3512 309.289 52.1717 309.555 53.2491 309.555H53.2496L49.9572 306.312Z" fill="#333332"/>
<path d="M59.3317 299.291V271.162C59.3317 270.771 59.0151 270.454 58.6233 270.454H51.8868C51.4944 270.454 51.178 270.771 51.178 271.163V299.291C51.178 299.699 51.4944 300.015 51.8868 300.015H58.6233C59.0151 300.015 59.3317 299.698 59.3317 299.291ZM61.6678 265.343C64.079 265.343 65.2697 266.564 65.2697 268.991V301.477C65.2697 303.904 64.079 305.125 61.6678 305.125L48.752 305.125C46.4005 305.125 45.225 303.904 45.225 301.477V268.992C45.225 266.565 46.4005 265.344 48.752 265.344L61.6678 265.343Z" fill="#333332"/>
<path d="M32.0521 296.623V273.77C32.0521 271.554 30.8917 270.454 28.5707 270.454L24.8631 270.454C24.4716 270.454 24.1399 270.771 24.1399 271.163V299.291C24.1399 299.698 24.4716 300.014 24.8631 300.014H28.42C30.8314 300.014 32.0521 298.884 32.0521 296.623ZM35.9406 267.363C37.3271 268.705 38.0206 270.544 38.0206 272.881V297.617C38.0206 299.954 37.3271 301.793 35.9406 303.12C34.5538 304.461 32.6701 305.124 30.3191 305.125H18.9102C18.5186 305.125 18.202 304.794 18.202 304.401V266.053C18.202 265.66 18.5186 265.344 18.9102 265.344L30.3191 265.344C32.6701 265.344 34.5538 266.007 35.9406 267.363Z" fill="#333332"/>
<path d="M125.263 268.597L128.361 271.648L127.997 269.758C127.995 269.743 127.992 269.729 127.989 269.715C127.975 269.656 127.955 269.6 127.929 269.549C127.906 269.501 127.875 269.46 127.843 269.421L124.856 266.479L125.263 268.597Z" fill="#333332"/>
<path d="M128.689 273.349L125.591 270.298L125.997 272.413L129.095 275.464L128.689 273.349Z" fill="#333332"/>
<path d="M129.422 277.164L126.325 274.113L126.731 276.228L129.829 279.28L129.422 277.164Z" fill="#333332"/>
<path d="M130.156 280.981L127.059 277.93L127.466 280.044L130.563 283.096L130.156 280.981Z" fill="#333332"/>
<path d="M130.89 284.796L127.793 281.745L128.2 283.862L131.297 286.914L130.89 284.796Z" fill="#333332"/>
<path d="M131.624 288.612L128.527 285.562L128.933 287.677L132.031 290.728L131.624 288.612Z" fill="#333332"/>
<path d="M119.977 281.711L119.943 281.915L120.021 281.992L119.977 281.711Z" fill="#333332"/>
<path d="M129.668 291.494L132.765 294.545L132.359 292.43L129.261 289.378L129.668 291.494Z" fill="#333332"/>
<path d="M120.285 283.631L119.749 283.103L119.509 284.581L120.613 285.668L120.285 283.631Z" fill="#333332"/>
<path d="M130.402 295.31L133.499 298.361L133.092 296.247L129.995 293.195L130.402 295.31Z" fill="#333332"/>
<path d="M131.136 299.127L134.234 302.179L133.826 300.061L130.729 297.01L131.136 299.127Z" fill="#333332"/>
<path d="M120.876 287.305L119.315 285.768L119.075 287.247L121.204 289.345L120.876 287.305Z" fill="#333332"/>
<path d="M121.468 290.982L118.881 288.434L118.641 289.911L121.795 293.019L121.468 290.982Z" fill="#333332"/>
<path d="M131.87 302.942L134.967 305.993L134.561 303.878L131.463 300.827L131.87 302.942Z" fill="#333332"/>
<path d="M131.844 306.01L135.579 309.69C135.582 309.679 135.584 309.669 135.587 309.658C135.589 309.653 135.59 309.648 135.591 309.643C135.595 309.628 135.6 309.612 135.604 309.595C135.611 309.557 135.616 309.516 135.617 309.475C135.619 309.423 135.616 309.37 135.606 309.317L135.295 307.695L132.18 304.627C132.24 305.134 132.117 305.614 131.844 306.01Z" fill="#333332"/>
<path d="M119.581 293.931H121.321L118.448 291.1L118.206 292.577L119.581 293.931Z" fill="#333332"/>
<path d="M118.013 293.766L117.986 293.93H118.18L118.013 293.766Z" fill="#333332"/>
<path d="M130.243 306.86H129.567L132.959 310.202H134.7L131.099 306.655C130.835 306.784 130.545 306.86 130.243 306.86Z" fill="#333332"/>
<path d="M123.258 302.025L122.87 301.643H121.129L123.574 304.051L123.258 302.025Z" fill="#333332"/>
<path d="M126.63 306.86L129.811 309.993C129.942 310.123 130.123 310.202 130.327 310.202H131.559L128.167 306.86H126.63Z" fill="#333332"/>
<path d="M117.989 301.643L121.381 304.984H123.121L119.729 301.643H117.989Z" fill="#333332"/>
<path d="M116.525 303.294L120.082 306.799L120.264 305.605C120.279 305.519 120.31 305.439 120.351 305.365C120.353 305.362 120.355 305.359 120.357 305.355L116.751 301.803L116.525 303.294Z" fill="#333332"/>
<path d="M116.234 305.2C116.192 305.442 116.109 305.666 115.995 305.867L119.673 309.489L119.9 307.997L116.342 304.492L116.234 305.2Z" fill="#333332"/>
<path d="M118.929 310.202C118.948 310.202 118.961 310.185 118.98 310.184L115.294 306.553C114.996 306.735 114.664 306.862 114.295 306.862H113.867L117.258 310.202H118.929Z" fill="#333332"/>
<path d="M112.467 306.862H110.725L113.939 310.027C114.064 310.131 114.22 310.203 114.395 310.203H115.859L112.467 306.862Z" fill="#333332"/>
<path d="M122.51 295.154C122.976 295.154 123.318 294.75 123.239 294.299L120.708 278.566C120.639 278.155 120.308 277.949 119.979 277.949C119.648 277.949 119.319 278.155 119.249 278.566L116.687 294.299C116.609 294.75 116.951 295.154 117.401 295.154H122.51ZM130.972 304.752C131.05 305.218 130.709 305.638 130.243 305.638H125.693C125.32 305.638 125.026 305.374 124.963 305.017L124.342 301.04C124.279 300.683 123.97 300.419 123.612 300.419H116.36C116.003 300.419 115.693 300.683 115.63 301.04L115.025 305.017C114.963 305.374 114.668 305.638 114.295 305.638H109.761C109.31 305.638 108.954 305.219 109.047 304.753L116.702 265.178C116.765 264.836 117.059 264.588 117.416 264.588L122.65 264.587C123.006 264.587 123.301 264.836 123.364 265.193L130.972 304.752Z" fill="#333332"/>
<path d="M198.812 268.023L202.224 271.383V269.913C202.224 269.855 202.217 269.8 202.204 269.746C202.196 269.713 202.182 269.682 202.17 269.651C202.165 269.638 202.162 269.626 202.156 269.614C202.153 269.607 202.152 269.599 202.149 269.592L198.812 266.306V268.023Z" fill="#333332"/>
<path d="M202.104 274.27C202.12 274.245 202.136 274.218 202.149 274.19C202.154 274.179 202.158 274.168 202.162 274.157C202.164 274.153 202.165 274.149 202.167 274.145C202.173 274.131 202.179 274.118 202.184 274.103C202.194 274.072 202.203 274.04 202.209 274.006C202.217 273.966 202.221 273.926 202.223 273.884C202.223 273.875 202.223 273.867 202.223 273.858V272.715L198.802 269.345C198.789 269.82 198.602 270.244 198.311 270.578L202.085 274.296C202.091 274.287 202.098 274.28 202.104 274.27Z" fill="#333332"/>
<path d="M201.045 274.604L197.517 271.128C197.31 271.204 197.093 271.262 196.86 271.262L195.912 271.262L199.305 274.604H201.045Z" fill="#333332"/>
<path d="M197.951 274.604L194.56 271.262L192.819 271.263L196.211 274.604H197.951Z" fill="#333332"/>
<path d="M194.857 274.604L191.466 271.263L189.725 271.263L193.116 274.604H194.857Z" fill="#333332"/>
<path d="M191.509 275.334C191.509 275.235 191.531 275.141 191.567 275.055C191.568 275.052 191.569 275.049 191.571 275.046C191.608 274.964 191.66 274.891 191.723 274.828C191.728 274.823 191.734 274.816 191.74 274.811C191.78 274.773 191.831 274.746 191.88 274.719L188.372 271.264H188.097V272.708L191.509 276.068V275.334Z" fill="#333332"/>
<path d="M191.509 277.403L188.097 274.043V275.758L191.509 279.117V277.403Z" fill="#333332"/>
<path d="M191.509 280.45L188.097 277.09V278.805L191.509 282.165V280.45Z" fill="#333332"/>
<path d="M191.509 283.498L188.097 280.138V281.854L191.509 285.214V283.498Z" fill="#333332"/>
<path d="M197.321 293.987L200.733 297.346V295.631L197.321 292.272V293.987Z" fill="#333332"/>
<path d="M191.509 286.546L188.097 283.186V284.901L191.509 288.261V286.546Z" fill="#333332"/>
<path d="M190.834 288.93L188.097 286.234V287.948L189.094 288.93L190.834 288.93Z" fill="#333332"/>
<path d="M196.329 296.057L200.013 299.685C200.175 299.683 200.319 299.62 200.439 299.527C200.449 299.519 200.466 299.522 200.475 299.515C200.487 299.504 200.497 299.491 200.509 299.481L200.526 299.464C200.537 299.452 200.548 299.443 200.559 299.431C200.58 299.406 200.599 299.38 200.616 299.352C200.633 299.327 200.648 299.3 200.661 299.273C200.665 299.264 200.668 299.255 200.672 299.247C200.674 299.242 200.675 299.239 200.677 299.235C200.683 299.22 200.69 299.205 200.695 299.19C200.705 299.16 200.713 299.128 200.719 299.096C200.726 299.059 200.731 299.021 200.732 298.981C200.732 298.974 200.732 298.966 200.732 298.957V298.68L197.161 295.162C196.995 295.549 196.69 295.847 196.329 296.057Z" fill="#333332"/>
<path d="M197.015 298.963C197.62 298.963 198.139 299.255 198.498 299.687H198.662L195.271 296.347H193.529L196.184 298.963H197.015Z" fill="#333332"/>
<path d="M198.967 304.751L202.379 308.111V306.396L198.967 303.036V304.751Z" fill="#333332"/>
<path d="M194.831 298.963L192.176 296.347H190.436L193.091 298.963H194.831Z" fill="#333332"/>
<path d="M191.736 298.963L189.08 296.347H188.097V297.093L189.995 298.963H191.736Z" fill="#333332"/>
<path d="M197.805 306.655L201.374 310.171H201.649C201.81 310.171 201.952 310.106 202.073 310.014C202.084 310.006 202.102 310.008 202.111 309.999C202.127 309.987 202.14 309.972 202.153 309.957C202.16 309.951 202.166 309.946 202.171 309.94C202.18 309.931 202.19 309.923 202.198 309.914C202.22 309.888 202.241 309.86 202.259 309.832C202.276 309.805 202.291 309.778 202.305 309.749C202.309 309.739 202.312 309.728 202.317 309.718C202.319 309.714 202.321 309.709 202.323 309.704C202.329 309.691 202.335 309.677 202.34 309.662C202.35 309.631 202.359 309.599 202.365 309.566C202.373 309.528 202.377 309.49 202.379 309.45V309.445L198.69 305.812C198.484 306.177 198.187 306.482 197.805 306.655Z" fill="#333332"/>
<path d="M188.097 298.425V298.962H188.643L188.097 298.425Z" fill="#333332"/>
<path d="M200.023 310.171L196.632 306.831H194.89L198.281 310.171H200.023Z" fill="#333332"/>
<path d="M196.927 310.171L193.536 306.831H191.795L195.186 310.171H196.927Z" fill="#333332"/>
<path d="M193.833 310.171L190.442 306.831H188.701L192.092 310.171H193.833Z" fill="#333332"/>
<path d="M190.738 310.171L187.347 306.831H185.606L188.998 310.171H190.738Z" fill="#333332"/>
<path d="M184.254 306.831H182.511L185.846 310.116C185.931 310.151 186.023 310.171 186.12 310.171H187.645L184.254 306.831Z" fill="#333332"/>
<path d="M196.859 264.619C197.263 264.619 197.589 264.945 197.589 265.349V269.294C197.589 269.713 197.263 270.04 196.859 270.04H187.62C187.217 270.04 186.874 270.366 186.874 270.77V289.407C186.874 289.827 187.217 290.153 187.62 290.153L195.369 290.153C195.773 290.153 196.098 290.479 196.098 290.883V294.393C196.098 294.797 195.773 295.123 195.369 295.123H187.62C187.217 295.123 186.874 295.449 186.874 295.853V299.441C186.874 299.845 187.217 300.187 187.62 300.187L197.015 300.186C197.418 300.186 197.744 300.512 197.744 300.916V304.861C197.744 305.265 197.418 305.607 197.015 305.607L181.487 305.607C181.083 305.607 180.757 305.266 180.757 304.862V265.349C180.757 264.945 181.083 264.619 181.487 264.619H196.859Z" fill="#333332"/>
<path d="M145.181 268.029L148.592 271.389V269.913C148.592 269.856 148.585 269.8 148.572 269.747C148.565 269.713 148.55 269.682 148.538 269.651C148.534 269.639 148.53 269.626 148.525 269.614C148.524 269.611 148.523 269.608 148.522 269.605L145.181 266.314V268.029Z" fill="#333332"/>
<path d="M148.592 272.845L145.181 269.486V271.2L148.592 274.56V272.845Z" fill="#333332"/>
<path d="M148.592 276.017L145.181 272.657V274.372L148.592 277.731V276.017Z" fill="#333332"/>
<path d="M148.592 279.187L145.181 275.827V277.542L148.592 280.901V279.187Z" fill="#333332"/>
<path d="M148.592 282.358L145.181 278.998V280.714L148.592 284.073V282.358Z" fill="#333332"/>
<path d="M148.592 285.53L145.181 282.171V283.884L148.592 287.244V285.53Z" fill="#333332"/>
<path d="M148.592 288.701L145.181 285.341V287.056L148.592 290.416V288.701Z" fill="#333332"/>
<path d="M148.592 291.871L145.181 288.512V290.226L148.592 293.585V291.871Z" fill="#333332"/>
<path d="M158.508 305.156C158.503 305.144 158.499 305.131 158.494 305.119C158.491 305.11 158.489 305.101 158.485 305.093C158.456 305.035 158.42 304.982 158.378 304.934C158.367 304.922 158.355 304.909 158.343 304.898L155.15 301.753V303.217L158.561 306.577V305.418C158.561 305.361 158.554 305.305 158.541 305.251C158.534 305.218 158.519 305.188 158.508 305.156Z" fill="#333332"/>
<path d="M148.592 295.043L145.181 291.683V293.399L148.592 296.758V295.043Z" fill="#333332"/>
<path d="M148.592 298.9V298.214L145.181 294.855V296.569L147.548 298.9H148.592Z" fill="#333332"/>
<path d="M155.15 304.861C155.15 305.292 154.984 305.67 154.75 305.994L158.509 309.697C158.514 309.685 158.518 309.674 158.522 309.662C158.533 309.631 158.541 309.599 158.547 309.566C158.555 309.529 158.56 309.49 158.561 309.45C158.561 309.442 158.561 309.434 158.561 309.425V308.034L155.15 304.674V304.861Z" fill="#333332"/>
<path d="M145.181 298.025V298.901H146.07L145.181 298.025Z" fill="#333332"/>
<path d="M153.197 306.83H152.38L155.772 310.171H157.512L153.96 306.672C153.726 306.773 153.468 306.83 153.197 306.83Z" fill="#333332"/>
<path d="M149.161 306.83L152.552 310.171H154.293L150.901 306.83H149.161Z" fill="#333332"/>
<path d="M145.94 306.83L149.332 310.171H151.073L147.681 306.83H145.94Z" fill="#333332"/>
<path d="M147.853 310.171L144.462 306.83H142.722L146.113 310.171H147.853Z" fill="#333332"/>
<path d="M141.244 306.831H139.512L142.683 309.954C142.819 310.088 143.004 310.171 143.203 310.171H144.635L141.244 306.831Z" fill="#333332"/>
<path d="M104.347 268.095L107.758 271.454V269.913C107.758 269.857 107.751 269.803 107.739 269.751C107.735 269.734 107.727 269.718 107.721 269.702L104.347 266.379V268.095Z" fill="#333332"/>
<path d="M107.758 273.217L104.347 269.859V271.575L107.758 274.935V273.217Z" fill="#333332"/>
<path d="M107.758 276.698L104.347 273.339V275.054L107.758 278.413V276.698Z" fill="#333332"/>
<path d="M107.758 280.177L104.347 276.818V278.534L107.758 281.893V280.177Z" fill="#333332"/>
<path d="M107.758 283.657L104.347 280.298V282.013L107.758 285.372V283.657Z" fill="#333332"/>
<path d="M104.347 285.493L107.758 288.852V287.136L104.347 283.777V285.493Z" fill="#333332"/>
<path d="M88.9062 269.727C88.8936 269.674 88.8755 269.624 88.8519 269.578C88.8252 269.523 88.7912 269.473 88.7511 269.428C88.7407 269.416 88.7299 269.405 88.7187 269.394L85.9149 266.632L86.1586 267.576L89.0989 270.472L88.9062 269.727Z" fill="#333332"/>
<path d="M89.7106 272.84L86.7703 269.945L87.3647 272.245L90.3043 275.141L89.7106 272.84Z" fill="#333332"/>
<path d="M104.347 288.973L107.758 292.332V290.616L104.347 287.258V288.973Z" fill="#333332"/>
<path d="M104.347 292.453L107.758 295.812V294.096L104.347 290.737V292.453Z" fill="#333332"/>
<path d="M90.9162 277.507L87.976 274.612L88.5703 276.912L91.51 279.808L90.9162 277.507Z" fill="#333332"/>
<path d="M91.6535 281.714L89.182 279.28L89.7764 281.58L91.3001 283.081L91.6535 281.714Z" fill="#333332"/>
<path d="M104.347 295.932L107.758 299.292V297.575L104.347 294.217V295.932Z" fill="#333332"/>
<path d="M90.9366 284.488L90.3878 283.947L90.7323 285.28L90.9366 284.488Z" fill="#333332"/>
<path d="M107.758 301.057L104.347 297.697V299.413L107.758 302.772V301.057Z" fill="#333332"/>
<path d="M107.758 304.535L104.347 301.176V302.892L107.758 306.251V304.535Z" fill="#333332"/>
<path d="M96.0011 296.436L95.7887 296.227L95.4589 297.617L96.0011 298.152V296.436Z" fill="#333332"/>
<path d="M104.347 304.861C104.347 305.287 104.183 305.661 103.952 305.983L107.708 309.683C107.713 309.673 107.717 309.664 107.72 309.654C107.73 309.623 107.739 309.592 107.745 309.561C107.751 309.524 107.756 309.487 107.757 309.449C107.758 309.441 107.758 309.433 107.758 309.425V308.016L104.347 304.657V304.861Z" fill="#333332"/>
<path d="M102.379 306.829H101.281L104.672 310.171H106.414L102.912 306.721C102.739 306.771 102.568 306.829 102.379 306.829Z" fill="#333332"/>
<path d="M96.0011 299.914L95.1194 299.045L94.789 300.436L96.0011 301.63V299.914Z" fill="#333332"/>
<path d="M97.7387 306.821L97.7465 306.789C97.7258 306.786 97.7088 306.774 97.6885 306.771L97.7387 306.821Z" fill="#333332"/>
<path d="M98.9037 306.831L102.082 309.962C102.213 310.09 102.391 310.171 102.587 310.171H102.881L99.4896 306.831H98.9037Z" fill="#333332"/>
<path d="M96.0011 304.861V303.394L94.4494 301.866L94.1191 303.256L96.0592 305.166C96.0422 305.064 96.0011 304.969 96.0011 304.861Z" fill="#333332"/>
<path d="M93.6298 305.316C93.575 305.556 93.471 305.772 93.3396 305.967L97.063 309.635C97.067 309.622 97.0709 309.61 97.0742 309.596L97.3951 308.246L93.7794 304.686L93.6298 305.316Z" fill="#333332"/>
<path d="M85.8454 296.871L85.4641 296.495V298.21L86.3822 299.114L85.8454 296.871Z" fill="#333332"/>
<path d="M86.9348 301.423L85.4641 299.974V301.69L87.4716 303.667L86.9348 301.423Z" fill="#333332"/>
<path d="M91.7256 306.831H90.7124L93.8915 309.962C94.0245 310.094 94.2059 310.171 94.403 310.171H95.8161L92.3216 306.729C92.1326 306.789 91.9343 306.831 91.7256 306.831Z" fill="#333332"/>
<path d="M88.8752 306.813L85.4644 303.453V304.861C85.4644 304.952 85.4243 305.03 85.4118 305.118L88.8752 308.53V306.813Z" fill="#333332"/>
<path d="M88.1297 310.171C88.2293 310.171 88.322 310.149 88.4075 310.115C88.4366 310.103 88.4588 310.084 88.4857 310.069C88.5197 310.05 88.5543 310.032 88.586 310.01L84.8191 306.299C84.4921 306.6 84.0671 306.785 83.5961 306.81L87.0086 310.171H88.1297Z" fill="#333332"/>
<path d="M81.8268 306.831H80.0836L83.3867 310.084C83.4875 310.135 83.597 310.172 83.7196 310.172H85.2183L81.8268 306.831Z" fill="#333332"/>
<path d="M102.379 264.619C102.782 264.619 103.123 264.945 103.123 265.349V304.861C103.123 305.265 102.782 305.607 102.379 305.607L97.9528 305.607C97.549 305.607 97.2232 305.265 97.2232 304.861V291.147C97.2232 290.671 96.8514 290.409 96.4816 290.409C96.1754 290.409 95.8704 290.589 95.7788 290.976L92.4404 305.033C92.3626 305.374 92.068 305.607 91.726 305.607H89.769C89.4277 305.607 89.1324 305.374 89.0553 305.033L85.6856 290.945C85.5941 290.558 85.2889 290.379 84.9829 290.379C84.6131 290.379 84.2417 290.64 84.2417 291.116V304.862C84.2417 305.266 83.9151 305.607 83.4957 305.607H79.0858C78.6667 305.608 78.3404 305.266 78.3404 304.862V265.349C78.3404 264.946 78.6667 264.619 79.0858 264.619H83.558C83.9 264.619 84.1945 264.837 84.2723 265.163L90.0182 287.404C90.1114 287.769 90.4181 287.952 90.7264 287.952C91.0354 287.952 91.3455 287.769 91.4468 287.404L97.1921 265.163C97.2698 264.836 97.5645 264.619 97.891 264.619H102.379Z" fill="#333332"/>
<path d="M175.203 268.033L178.614 271.392V269.933C178.614 269.876 178.607 269.82 178.595 269.766C178.587 269.733 178.572 269.703 178.561 269.671C178.556 269.659 178.552 269.646 178.547 269.634C178.544 269.625 178.542 269.615 178.538 269.608C178.534 269.601 178.528 269.596 178.524 269.589L175.203 266.317V268.033Z" fill="#333332"/>
<path d="M178.315 274.466C178.326 274.458 178.343 274.461 178.352 274.452C178.366 274.441 178.377 274.428 178.39 274.415C178.395 274.409 178.401 274.404 178.407 274.398C178.416 274.388 178.427 274.379 178.436 274.369C178.457 274.345 178.477 274.318 178.494 274.29C178.511 274.264 178.526 274.238 178.539 274.21C178.545 274.199 178.548 274.188 178.553 274.178C178.554 274.173 178.556 274.169 178.558 274.164C178.563 274.151 178.57 274.138 178.574 274.124C178.585 274.092 178.593 274.06 178.6 274.026C178.607 273.987 178.612 273.946 178.613 273.905C178.614 273.895 178.614 273.887 178.614 273.878V273.316L175.095 269.851C174.974 270.271 174.727 270.617 174.387 270.871L178.112 274.54C178.179 274.513 178.258 274.51 178.315 274.466Z" fill="#333332"/>
<path d="M176.243 274.624L172.852 271.283H171.109L174.5 274.624H176.243Z" fill="#333332"/>
<path d="M171.859 275.354C171.859 275.255 171.879 275.162 171.915 275.076C171.916 275.072 171.917 275.068 171.92 275.064C171.955 274.983 172.005 274.91 172.065 274.847C172.071 274.842 172.077 274.836 172.083 274.83C172.102 274.811 172.129 274.801 172.151 274.784C172.265 274.697 172.401 274.64 172.552 274.631L169.153 271.283H168.448V272.306L171.859 275.665V275.354Z" fill="#333332"/>
<path d="M168.449 275.947L171.859 279.306V277.589L168.449 274.23V275.947Z" fill="#333332"/>
<path d="M168.449 279.591L171.859 282.95V281.233L168.449 277.874V279.591Z" fill="#333332"/>
<path d="M168.449 283.233L171.859 286.591V284.874L168.449 281.515V283.233Z" fill="#333332"/>
<path d="M159.731 274.624H159.9V273.093L158.062 271.283H156.318L159.704 274.618C159.714 274.619 159.721 274.624 159.731 274.624Z" fill="#333332"/>
<path d="M168.449 286.875L171.859 290.234V288.518L168.449 285.159V286.875Z" fill="#333332"/>
<path d="M168.449 290.516L171.859 293.875V292.159L168.449 288.8V290.516Z" fill="#333332"/>
<path d="M168.449 294.16L171.859 297.519V295.801L168.449 292.442V294.16Z" fill="#333332"/>
<path d="M168.449 297.801L171.859 301.16V299.444L168.449 296.084V297.801Z" fill="#333332"/>
<path d="M168.449 301.443L171.859 304.802V303.086L168.449 299.727V301.443Z" fill="#333332"/>
<path d="M168.449 304.882C168.449 304.942 168.42 304.993 168.415 305.052L171.859 308.444V306.728L168.449 303.369V304.882Z" fill="#333332"/>
<path d="M166.535 306.843L169.934 310.191H171.129C171.282 310.191 171.414 310.13 171.53 310.047L167.772 306.344C167.436 306.641 167.011 306.832 166.535 306.843Z" fill="#333332"/>
<path d="M164.589 306.85H162.845L166.118 310.073C166.227 310.141 166.349 310.191 166.486 310.191H167.981L164.589 306.85Z" fill="#333332"/>
<path d="M173.25 264.639C173.654 264.639 173.98 264.965 173.98 265.369V269.314C173.98 269.733 173.654 270.059 173.25 270.059H167.955C167.551 270.059 167.225 270.386 167.225 270.789V304.881C167.225 305.285 166.899 305.627 166.495 305.627H161.852C161.448 305.627 161.122 305.285 161.122 304.882V270.789C161.122 270.386 160.796 270.059 160.392 270.059L155.097 270.06C154.694 270.06 154.367 269.733 154.367 269.314V265.369C154.367 264.966 154.694 264.639 155.097 264.639L173.25 264.639Z" fill="#333332"/>
<path d="M143.228 264.619C143.632 264.619 143.958 264.945 143.958 265.349V299.394C143.958 299.798 144.284 300.124 144.688 300.124L153.197 300.124C153.601 300.124 153.927 300.45 153.927 300.854V304.861C153.927 305.265 153.601 305.607 153.197 305.607L138.569 305.607C138.166 305.607 137.824 305.266 137.824 304.862V265.349C137.824 264.945 138.166 264.619 138.569 264.619H143.228Z" fill="#333332"/>
</svg>
