<svg width="221" height="111" viewBox="0 0 221 111" fill="none" xmlns="http://www.w3.org/2000/svg">
<path d="M27.7507 5.21835V7.03316L32.1787 11.3943V11.1428C32.1787 10.7798 32.1339 10.4284 32.0582 10.0885C32.0544 10.0702 32.0561 10.0506 32.0521 10.0325C32.0321 9.94656 31.9881 9.87145 31.964 9.78773C31.8945 9.54993 31.8183 9.31704 31.7153 9.09587C31.6984 9.0592 31.6919 9.01748 31.6744 8.98141C31.6424 8.91788 31.5905 8.86847 31.5559 8.80612C31.4147 8.54977 31.2531 8.30988 31.0695 8.08411C31.0603 8.07268 31.053 8.06065 31.0454 8.04848L27.7042 4.75761C27.7217 4.91051 27.7507 5.06056 27.7507 5.21835Z" fill="#333332"/>
<path d="M32.179 13.1344L27.751 8.77287V11.0005L32.179 15.3622V13.1344Z" fill="#333332"/>
<path d="M32.179 17.1043L27.751 12.7426V14.9679L32.179 19.3298V17.1043Z" fill="#333332"/>
<path d="M32.0833 23.0552C32.0892 23.042 32.0943 23.0283 32.0998 23.0146C32.1024 23.0091 32.1041 23.0037 32.1063 22.9982C32.114 22.979 32.1226 22.9614 32.1287 22.9424C32.1424 22.9018 32.1534 22.8601 32.1617 22.8175C32.1715 22.7687 32.1768 22.7182 32.1786 22.6673C32.1786 22.6559 32.179 22.6455 32.179 22.6345V21.0723L27.7505 16.71C27.7505 17.3329 27.5025 17.8839 27.1338 18.3281L32.0295 23.1503C32.0493 23.1197 32.0674 23.088 32.0833 23.0552Z" fill="#333332"/>
<path d="M16.6555 9.75047L15.652 8.76231H13.3925L16.6555 11.9759V9.75047Z" fill="#333332"/>
<path d="M25.2162 19.267H24.0578L28.459 23.6028H30.7184L26.1278 19.0813C25.8435 19.1925 25.5395 19.267 25.2162 19.267Z" fill="#333332"/>
<path d="M20.4239 19.267L24.5495 23.3307C24.7197 23.4984 24.9505 23.6027 25.2047 23.6027H26.6911L22.2895 19.267H20.4239Z" fill="#333332"/>
<path d="M14.2278 13.3894C14.2349 13.3823 14.2415 13.3751 14.249 13.3679C14.3095 13.3099 14.3849 13.2694 14.4601 13.2284C14.4946 13.2097 14.5236 13.1845 14.5602 13.1704C14.6725 13.1264 14.7943 13.0991 14.9244 13.0991H16.0276L11.625 8.76263H9.5293V8.92412L14.1615 13.4862C14.1855 13.4556 14.1999 13.4178 14.2278 13.3894Z" fill="#333332"/>
<path d="M13.9569 15.0277L9.52942 10.6666V12.892L13.9569 17.2531V15.0277Z" fill="#333332"/>
<path d="M13.9569 18.9951L9.52942 14.634V16.8601L13.9569 21.2208V18.9951Z" fill="#333332"/>
<path d="M13.9569 22.9653L9.52942 18.6042V20.8301L13.9569 25.1907V22.9653Z" fill="#333332"/>
<path d="M32.1097 46.4679C32.1038 46.4521 32.0992 46.4357 32.0922 46.4198C32.0873 46.4088 32.0855 46.3968 32.0802 46.3858C32.0429 46.3108 31.9963 46.2417 31.9411 46.1799C31.9274 46.1639 31.912 46.1481 31.8965 46.1327L27.7507 42.0493V42.7456L32.1787 47.1072V46.8081C32.1787 46.7336 32.1706 46.6614 32.1541 46.5918C32.1437 46.5479 32.1256 46.5091 32.1097 46.4679Z" fill="#333332"/>
<path d="M13.9569 26.9327L9.52942 22.5715V24.7975L13.9569 29.158V26.9327Z" fill="#333332"/>
<path d="M13.9569 30.9007L9.52942 26.5395V28.765L13.9569 33.1257V30.9007Z" fill="#333332"/>
<path d="M27.7507 46.7128L32.1787 51.0739V48.8484L27.7507 44.4873V46.7128Z" fill="#333332"/>
<path d="M13.9569 34.8667L9.52942 30.505V32.7332L13.9569 37.0938V34.8667Z" fill="#333332"/>
<path d="M27.7507 48.6662C27.7507 49.2763 27.639 49.8554 27.4807 50.4158L32.1475 55.0124C32.1551 54.9258 32.1732 54.8425 32.1765 54.7551C32.1781 54.7001 32.1787 54.6459 32.1787 54.5901V52.8158L27.7507 48.4537V48.6662Z" fill="#333332"/>
<path d="M26.065 52.9888L30.963 57.8133C30.9805 57.7964 30.9985 57.781 31.0144 57.7622C31.1086 57.6512 31.1907 57.5302 31.2752 57.4108C31.3053 57.3686 31.3392 57.3295 31.3678 57.2863C31.3786 57.2693 31.3929 57.2552 31.4039 57.2377C31.513 57.0679 31.612 56.8909 31.7002 56.7074C31.7227 56.6608 31.7374 56.611 31.7582 56.5639C31.7785 56.5189 31.7961 56.4723 31.8142 56.4264L26.9809 51.6654C26.7282 52.1452 26.4248 52.5895 26.065 52.9888Z" fill="#333332"/>
<path d="M13.9569 38.8365L9.52942 34.4754V36.7008L13.9569 41.0621V38.8365Z" fill="#333332"/>
<path d="M13.9569 42.8051L9.52942 38.4445V40.6701L13.9569 45.0307V42.8051Z" fill="#333332"/>
<path d="M23.7237 54.6511L28.4613 59.3177C28.4874 59.3096 28.5137 59.3031 28.5405 59.2959C28.7378 59.2438 28.9339 59.1908 29.1206 59.1151C29.2296 59.0718 29.331 59.016 29.4356 58.965C29.5999 58.8846 29.7616 58.8018 29.9143 58.7044C29.9516 58.6808 29.9854 58.6533 30.0212 58.6287L25.1474 53.8277C24.7091 54.1576 24.2379 54.4412 23.7237 54.6511Z" fill="#333332"/>
<path d="M21.3062 55.1327H20.1839L24.5867 59.4697L26.8461 59.4692L22.337 55.028C21.9996 55.0834 21.6595 55.1327 21.3062 55.1327Z" fill="#333332"/>
<path d="M12.2803 45.1223L9.52942 42.4125V44.6379L10.0208 45.1223H12.2803Z" fill="#333332"/>
<path d="M22.819 59.47L18.4157 55.1331H16.1562L20.5596 59.47H22.819Z" fill="#333332"/>
<path d="M18.7904 59.47L14.3869 55.1331H12.1276L16.5308 59.47H18.7904Z" fill="#333332"/>
<path d="M14.7608 59.47L10.3574 55.1331H8.09641L12.5003 59.47H14.7608Z" fill="#333332"/>
<path d="M6.32938 55.1326H4.71675C4.46871 55.1326 4.24501 55.0986 4.013 55.0785L7.42649 58.4416C8.20638 59.117 9.29918 59.4697 10.7321 59.4697H10.7332L6.32938 55.1326Z" fill="#333332"/>
<path d="M21.2656 0.339401C23.9665 0.339401 26.164 2.51669 26.164 5.21812V16.7098C26.164 17.234 25.7407 17.6777 25.2164 17.6777H19.1897C18.6655 17.6777 18.242 17.2347 18.242 16.7105V8.12174C18.242 7.59701 17.8191 7.17408 17.295 7.17408H8.90956C8.36509 7.17408 7.94174 7.59761 7.94174 8.12174V45.7425C7.94174 46.287 8.36509 46.7103 8.90956 46.7103H17.295C17.8191 46.7103 18.242 46.287 18.242 45.7425V40.884C18.242 40.3593 18.6655 39.9358 19.1897 39.9358H25.2164C25.7407 39.9358 26.164 40.3593 26.164 40.8835V48.6659C26.164 51.3673 23.9867 53.5446 21.3061 53.5446L4.71648 53.5452C1.57211 53.5452 0 51.9122 0 48.6665V5.21873C0 1.97268 1.57211 0.339401 4.71648 0.339401H21.2656Z" fill="#333332"/>
<path d="M57.2507 4.75865L61.6786 9.11975V7.21203C61.6786 7.13692 61.6699 7.06464 61.6538 6.99503C61.6434 6.95168 61.6249 6.91233 61.6096 6.87181C61.6029 6.85548 61.5992 6.83902 61.5921 6.82299C61.5878 6.81438 61.5854 6.805 61.5821 6.79565L57.2507 2.52985V4.75865Z" fill="#333332"/>
<path d="M61.5235 12.8678C61.5449 12.8344 61.5646 12.7994 61.5821 12.7632C61.5887 12.7495 61.5936 12.7349 61.5995 12.721C61.6019 12.7156 61.6034 12.71 61.6056 12.7047C61.6133 12.6872 61.6209 12.6701 61.6274 12.651C61.6412 12.6105 61.6522 12.5681 61.6604 12.5249C61.6703 12.4734 61.6762 12.4209 61.6779 12.3667C61.6783 12.3551 61.6783 12.3441 61.6783 12.3321V10.8488L57.2373 6.47461C57.2209 7.09137 56.9777 7.64134 56.6003 8.07508L61.4993 12.9008C61.507 12.8891 61.5162 12.8794 61.5235 12.8678Z" fill="#333332"/>
<path d="M60.1496 13.3005L55.5694 8.78891C55.2998 8.88688 55.0189 8.96286 54.7164 8.96286H53.4862L57.89 13.3005H60.1496Z" fill="#333332"/>
<path d="M56.1337 13.3005L51.7304 8.96347H49.4711L53.8742 13.3005H56.1337Z" fill="#333332"/>
<path d="M52.1168 13.3005L47.714 8.96405L45.4552 8.96466L49.8573 13.3005H52.1168Z" fill="#333332"/>
<path d="M47.7701 14.2484C47.7701 14.1197 47.798 13.998 47.8464 13.8864C47.8479 13.8826 47.8497 13.8781 47.8507 13.8742C47.8984 13.7681 47.9662 13.6738 48.0474 13.5922C48.055 13.5845 48.0627 13.5769 48.0704 13.5698C48.123 13.5199 48.1877 13.4853 48.2517 13.4499L43.6983 8.96494H43.3422V10.8393L47.7701 15.2016V14.2484Z" fill="#333332"/>
<path d="M47.7701 16.9345L43.3422 12.5728V14.7983L47.7701 19.16V16.9345Z" fill="#333332"/>
<path d="M47.7701 20.8893L43.3422 16.5282V18.7542L47.7701 23.1153V20.8893Z" fill="#333332"/>
<path d="M47.7701 24.8456L43.3422 20.4843V22.7114L47.7701 27.0732V24.8456Z" fill="#333332"/>
<path d="M55.316 38.4607L59.7433 42.8218V40.5958L55.316 36.2353V38.4607Z" fill="#333332"/>
<path d="M47.7701 28.8027L43.3422 24.4411V26.6665L47.7701 31.0282V28.8027Z" fill="#333332"/>
<path d="M46.8943 31.8967L43.3422 28.3976V30.6231L44.6354 31.8972L46.8943 31.8967Z" fill="#333332"/>
<path d="M54.0275 41.1487L58.8087 45.8587C59.0208 45.8548 59.207 45.7733 59.3633 45.6533C59.3762 45.6435 59.3971 45.6467 59.4092 45.6363C59.425 45.6227 59.4383 45.6066 59.4529 45.5925C59.4605 45.5854 59.4678 45.5783 59.4755 45.5706C59.4892 45.5557 59.5045 45.5431 59.5175 45.5284C59.545 45.4962 59.5702 45.4621 59.5932 45.4266C59.6146 45.3936 59.6337 45.3592 59.6508 45.3234C59.6556 45.312 59.6594 45.3 59.6649 45.289C59.6666 45.2836 59.6688 45.2792 59.6706 45.2737C59.6787 45.2546 59.6879 45.2352 59.6946 45.2151C59.7077 45.1757 59.7187 45.1352 59.7262 45.0939C59.7356 45.0452 59.7412 44.996 59.7433 44.945C59.7433 44.9347 59.7437 44.9237 59.7437 44.9133V44.5529L55.1077 39.9863C54.8914 40.4886 54.4964 40.8753 54.0275 41.1487Z" fill="#333332"/>
<path d="M54.9177 44.9203C55.7021 44.9203 56.3769 45.2992 56.8425 45.8607H57.0561L52.6549 41.5249H50.3933L53.8396 44.9203H54.9177Z" fill="#333332"/>
<path d="M57.452 52.4338L61.8799 56.7961V54.5701L57.452 50.209V52.4338Z" fill="#333332"/>
<path d="M52.0834 44.9203L48.637 41.5249H46.377L49.8241 44.9203H52.0834Z" fill="#333332"/>
<path d="M48.0655 44.9203L44.6185 41.5249H43.3417V42.4933L45.806 44.9203H48.0655Z" fill="#333332"/>
<path d="M55.9433 54.9054L60.5766 59.4697H60.9327C61.1426 59.4697 61.3265 59.3848 61.4837 59.2655C61.498 59.2545 61.5205 59.259 61.5342 59.2468C61.5532 59.2303 61.5697 59.2107 61.5884 59.1926C61.5961 59.1844 61.6037 59.1779 61.6114 59.1696C61.6224 59.1582 61.6356 59.1476 61.646 59.1356C61.6737 59.1022 61.7006 59.0666 61.7242 59.0293C61.7467 58.9949 61.7665 58.9592 61.7845 58.922C61.7905 58.9094 61.7948 58.8957 61.8003 58.8825C61.803 58.8766 61.8052 58.8701 61.8081 58.8646C61.8152 58.8459 61.8233 58.8283 61.8299 58.8092C61.8431 58.7693 61.8547 58.7276 61.8628 58.685C61.8722 58.6355 61.8775 58.5851 61.8797 58.5341V58.5272L57.092 53.8116C56.8253 54.286 56.4395 54.6814 55.9433 54.9054Z" fill="#333332"/>
<path d="M43.3419 44.222V44.9204H44.0507L43.3419 44.222Z" fill="#333332"/>
<path d="M58.8216 59.4697L54.42 55.1339H52.1594L56.5617 59.4697H58.8216Z" fill="#333332"/>
<path d="M54.8037 59.47L50.402 55.1341H48.1425L52.5442 59.47H54.8037Z" fill="#333332"/>
<path d="M50.7871 59.47L46.3849 55.1341H44.1254L48.5276 59.47H50.7871Z" fill="#333332"/>
<path d="M46.7702 59.47L42.368 55.1341H40.1085L44.5107 59.47H46.7702Z" fill="#333332"/>
<path d="M38.3524 55.134H36.0907L40.4194 59.3977C40.5296 59.4438 40.6497 59.4699 40.7756 59.4699H42.7551L38.3524 55.134Z" fill="#333332"/>
<path d="M54.716 0.3395C55.2401 0.3395 55.663 0.762413 55.663 1.28655V6.40796C55.663 6.95243 55.2401 7.37576 54.716 7.37576L42.7226 7.37637C42.1983 7.37637 41.7552 7.79926 41.7552 8.32339V32.5172C41.7552 33.0618 42.1983 33.4852 42.7226 33.4852L52.7809 33.4846C53.3051 33.4846 53.7284 33.9079 53.7284 34.4322V38.989C53.7284 39.5131 53.3051 39.9359 52.7809 39.9359L42.7226 39.9365C42.1983 39.9365 41.7552 40.3599 41.7552 40.8841V45.5416C41.7552 46.0658 42.1983 46.509 42.7226 46.509H54.9174C55.4417 46.509 55.865 46.9323 55.865 47.4565V52.5773C55.865 53.1016 55.4417 53.5447 54.9174 53.5447L34.7605 53.5457C34.2364 53.5457 33.8129 53.1022 33.8129 52.5781V1.28759C33.8129 0.763456 34.2364 0.340109 34.7605 0.340109L54.716 0.3395Z" fill="#333332"/>
<path d="M118.844 4.75865L123.272 9.11975V7.21203C123.272 7.13692 123.263 7.06464 123.248 6.99503C123.238 6.95168 123.218 6.91233 123.203 6.87181C123.196 6.85548 123.193 6.83902 123.186 6.82299C123.182 6.81438 123.179 6.805 123.176 6.79565L118.844 2.52985V4.75865Z" fill="#333332"/>
<path d="M123.117 12.8678C123.139 12.8344 123.158 12.7994 123.175 12.7632C123.182 12.7495 123.187 12.7349 123.193 12.721C123.195 12.7156 123.197 12.71 123.199 12.7047C123.207 12.6872 123.215 12.6701 123.221 12.651C123.235 12.6105 123.246 12.5681 123.254 12.5249C123.264 12.4734 123.27 12.4209 123.271 12.3667C123.272 12.3551 123.272 12.3441 123.272 12.3321V10.8488L118.831 6.47461C118.814 7.09137 118.571 7.64134 118.194 8.07508L123.093 12.9008C123.101 12.8891 123.11 12.8794 123.117 12.8678Z" fill="#333332"/>
<path d="M121.743 13.3005L117.163 8.78891C116.893 8.88688 116.612 8.96286 116.31 8.96286H115.08L119.483 13.3005H121.743Z" fill="#333332"/>
<path d="M117.727 13.3005L113.324 8.96347H111.065L115.468 13.3005H117.727Z" fill="#333332"/>
<path d="M113.711 13.3005L109.308 8.96405L107.049 8.96466L111.451 13.3005H113.711Z" fill="#333332"/>
<path d="M109.364 14.2484C109.364 14.1197 109.392 13.998 109.44 13.8864C109.442 13.8826 109.443 13.8781 109.444 13.8742C109.492 13.7681 109.56 13.6738 109.641 13.5922C109.649 13.5845 109.656 13.5769 109.664 13.5698C109.717 13.5199 109.781 13.4853 109.845 13.4499L105.292 8.96494H104.936V10.8393L109.364 15.2016V14.2484Z" fill="#333332"/>
<path d="M109.364 16.9345L104.936 12.5728V14.7983L109.364 19.16V16.9345Z" fill="#333332"/>
<path d="M109.364 20.8893L104.936 16.5282V18.7542L109.364 23.1153V20.8893Z" fill="#333332"/>
<path d="M109.364 24.8456L104.936 20.4843V22.7114L109.364 27.0732V24.8456Z" fill="#333332"/>
<path d="M116.909 38.4607L121.337 42.8218V40.5958L116.909 36.2353V38.4607Z" fill="#333332"/>
<path d="M109.364 28.8027L104.936 24.4411V26.6665L109.364 31.0282V28.8027Z" fill="#333332"/>
<path d="M108.488 31.8967L104.936 28.3976V30.6231L106.229 31.8972L108.488 31.8967Z" fill="#333332"/>
<path d="M115.621 41.1487L120.403 45.8587C120.614 45.8548 120.8 45.7733 120.956 45.6533C120.97 45.6435 120.991 45.6467 121.003 45.6363C121.019 45.6227 121.032 45.6066 121.047 45.5925C121.054 45.5854 121.062 45.5783 121.069 45.5706C121.083 45.5557 121.098 45.5431 121.111 45.5284C121.138 45.4962 121.164 45.4621 121.186 45.4266C121.208 45.3936 121.227 45.3592 121.244 45.3234C121.249 45.312 121.253 45.3 121.258 45.289C121.26 45.2836 121.263 45.2792 121.264 45.2737C121.272 45.2546 121.282 45.2352 121.288 45.2151C121.301 45.1757 121.312 45.1352 121.32 45.0939C121.329 45.0452 121.335 44.996 121.337 44.945C121.337 44.9347 121.338 44.9237 121.338 44.9133V44.5529L116.701 39.9863C116.485 40.4886 116.09 40.8753 115.621 41.1487Z" fill="#333332"/>
<path d="M116.511 44.9203C117.296 44.9203 117.971 45.2992 118.436 45.8607H118.65L114.248 41.5249H111.987L115.433 44.9203H116.511Z" fill="#333332"/>
<path d="M119.046 52.4338L123.474 56.7961V54.5701L119.046 50.209V52.4338Z" fill="#333332"/>
<path d="M113.677 44.9203L110.23 41.5249H107.971L111.418 44.9203H113.677Z" fill="#333332"/>
<path d="M109.659 44.9203L106.212 41.5249H104.935V42.4933L107.4 44.9203H109.659Z" fill="#333332"/>
<path d="M117.537 54.9054L122.171 59.4697H122.526C122.736 59.4697 122.921 59.3848 123.077 59.2655C123.092 59.2545 123.114 59.259 123.128 59.2468C123.147 59.2303 123.163 59.2107 123.182 59.1926C123.19 59.1844 123.198 59.1779 123.205 59.1696C123.216 59.1582 123.229 59.1476 123.239 59.1356C123.268 59.1022 123.294 59.0666 123.318 59.0293C123.34 58.9949 123.36 58.9592 123.378 58.922C123.384 58.9094 123.389 58.8957 123.394 58.8825C123.397 58.8766 123.399 58.8701 123.401 58.8646C123.409 58.8459 123.417 58.8283 123.423 58.8092C123.437 58.7693 123.448 58.7276 123.456 58.685C123.465 58.6355 123.472 58.5851 123.473 58.5341V58.5272L118.685 53.8116C118.419 54.286 118.034 54.6814 117.537 54.9054Z" fill="#333332"/>
<path d="M104.936 44.222V44.9204H105.644L104.936 44.222Z" fill="#333332"/>
<path d="M120.415 59.4697L116.014 55.1339H113.753L118.155 59.4697H120.415Z" fill="#333332"/>
<path d="M116.397 59.47L111.996 55.1341H109.736L114.138 59.47H116.397Z" fill="#333332"/>
<path d="M112.381 59.47L107.979 55.1341H105.719L110.121 59.47H112.381Z" fill="#333332"/>
<path d="M108.364 59.47L103.961 55.1341H101.702L106.104 59.47H108.364Z" fill="#333332"/>
<path d="M99.9457 55.134H97.6841L102.013 59.3977C102.123 59.4438 102.243 59.4699 102.369 59.4699H104.349L99.9457 55.134Z" fill="#333332"/>
<path d="M116.31 0.3395C116.834 0.3395 117.257 0.762413 117.257 1.28655V6.40796C117.257 6.95243 116.834 7.37576 116.31 7.37576L104.316 7.37637C103.792 7.37637 103.348 7.79926 103.348 8.32339V32.5172C103.348 33.0618 103.792 33.4852 104.316 33.4852L114.374 33.4846C114.899 33.4846 115.322 33.9079 115.322 34.4322V38.989C115.322 39.5131 114.899 39.9359 114.374 39.9359L104.316 39.9365C103.792 39.9365 103.348 40.3599 103.348 40.8841V45.5416C103.348 46.0658 103.792 46.509 104.316 46.509H116.511C117.035 46.509 117.459 46.9323 117.459 47.4565V52.5773C117.459 53.1016 117.035 53.5447 116.511 53.5447L96.3542 53.5457C95.8301 53.5457 95.4068 53.1022 95.4068 52.5781V1.28759C95.4068 0.763456 95.8301 0.340109 96.3542 0.340109L116.31 0.3395Z" fill="#333332"/>
<path d="M139.11 4.70447L143.538 9.06557V7.21203C143.538 7.13678 143.529 7.06465 143.513 6.99503C143.504 6.95243 143.484 6.91234 143.469 6.87182C143.463 6.85534 143.458 6.83886 143.452 6.82372C143.447 6.81258 143.444 6.80013 143.439 6.78959C143.413 6.73809 143.378 6.69325 143.344 6.64768L139.11 2.47775V4.70447Z" fill="#333332"/>
<path d="M143.538 10.9499L139.11 6.58832V8.8137L143.538 13.1748V10.9499Z" fill="#333332"/>
<path d="M143.538 15.0595L139.11 10.6984V12.9245L143.538 17.2857V15.0595Z" fill="#333332"/>
<path d="M143.538 19.1705L139.11 14.8094V17.0351L143.538 21.3962V19.1705Z" fill="#333332"/>
<path d="M143.538 23.2774L139.11 18.9168V21.1434L143.538 25.5041V23.2774Z" fill="#333332"/>
<path d="M143.538 27.3886L139.11 23.0275V25.2529L143.538 29.614V27.3886Z" fill="#333332"/>
<path d="M143.538 31.4985L139.11 27.1366V29.365L143.538 33.7267V31.4985Z" fill="#333332"/>
<path d="M143.538 35.609L139.11 31.2479V33.4734L143.538 37.8347V35.609Z" fill="#333332"/>
<path d="M143.538 39.7178L139.11 35.3567V37.5821L143.538 41.9427V39.7178Z" fill="#333332"/>
<path d="M143.538 43.8276L139.11 39.4665V41.6922L143.538 46.0533V43.8276Z" fill="#333332"/>
<path d="M143.538 50.1638V47.9385L139.11 43.5773V45.8027L143.538 50.1638Z" fill="#333332"/>
<path d="M139.11 49.9122L143.538 54.274V52.048L139.11 47.6869V49.9122Z" fill="#333332"/>
<path d="M139.11 52.5765C139.11 52.9956 138.986 53.3741 138.808 53.7237L143.538 58.3821V56.1567L139.11 51.7956V52.5765Z" fill="#333332"/>
<path d="M142.591 59.4697C142.631 59.4697 142.667 59.454 142.706 59.4473L137.893 54.7071C137.503 54.9535 137.069 55.1339 136.576 55.1339H136.067L140.469 59.4697H142.591Z" fill="#333332"/>
<path d="M134.154 55.134H131.895L136.232 59.4065C136.331 59.4426 136.433 59.4699 136.543 59.4699H138.556L134.154 55.134Z" fill="#333332"/>
<path d="M136.575 0.3395C137.099 0.3395 137.523 0.762848 137.523 1.28698V52.5773C137.523 53.1016 137.099 53.5453 136.575 53.5453H130.528C130.004 53.5453 129.581 53.1016 129.581 52.5773V1.28698C129.581 0.762848 130.004 0.3395 130.528 0.3395H136.575Z" fill="#333332"/>
<path d="M76.0026 4.76638L80.4301 9.12705V7.21205C80.4301 7.13694 80.4212 7.06466 80.4053 6.99505C80.3955 6.952 80.3769 6.9125 80.3609 6.87198C80.3544 6.8555 80.3505 6.83962 80.3434 6.82373C80.3419 6.81987 80.3401 6.81541 80.3391 6.8117L76.0026 2.53981V4.76638Z" fill="#333332"/>
<path d="M80.4302 11.0179L76.0028 6.65717V8.88287L80.4302 13.244V11.0179Z" fill="#333332"/>
<path d="M80.4302 15.1351L76.0028 10.7734V12.9994L80.4302 17.3605V15.1351Z" fill="#333332"/>
<path d="M80.4302 19.2498L76.0028 14.8891V17.1146L80.4302 21.4752V19.2498Z" fill="#333332"/>
<path d="M80.4302 23.3657L76.0028 19.005V21.2316L80.4302 25.5927V23.3657Z" fill="#333332"/>
<path d="M80.4302 27.4834L76.0028 23.1227V25.3476L80.4302 29.7088V27.4834Z" fill="#333332"/>
<path d="M80.4302 31.6L76.0028 27.2389V29.4643L80.4302 33.8256V31.6Z" fill="#333332"/>
<path d="M80.4302 35.715L76.0028 31.3539V33.5794L80.4302 37.9405V35.715Z" fill="#333332"/>
<path d="M93.3021 52.9603C93.2954 52.9438 93.2915 52.9273 93.2845 52.9114C93.2796 52.901 93.2779 52.8886 93.2724 52.8779C93.2351 52.8029 93.1881 52.7335 93.1333 52.672C93.119 52.6557 93.1043 52.6402 93.0889 52.6243L88.943 48.5421V50.4433L93.3711 54.8045V53.3003C93.3711 53.2252 93.3623 53.1535 93.3463 53.0833C93.3359 53.0401 93.3179 53.0008 93.3021 52.9603Z" fill="#333332"/>
<path d="M80.4302 39.8325L76.0028 35.4714V37.6978L80.4302 42.0585V39.8325Z" fill="#333332"/>
<path d="M80.4302 44.8395V43.9489L76.0028 39.5878V41.8131L79.0751 44.8395H80.4302Z" fill="#333332"/>
<path d="M88.9433 52.5771C88.9433 53.1365 88.7275 53.6272 88.4241 54.0489L93.3028 58.8539C93.3089 58.839 93.3154 58.8248 93.3209 58.8095C93.3346 58.7689 93.3455 58.7272 93.3538 58.6846C93.363 58.6358 93.3691 58.5849 93.3708 58.534C93.3708 58.523 93.3708 58.512 93.3708 58.5015V56.6956L88.9433 52.3345V52.5771Z" fill="#333332"/>
<path d="M76.0026 43.7028V44.8394H77.1567L76.0026 43.7028Z" fill="#333332"/>
<path d="M86.4089 55.132H85.3468L89.7507 59.4697L92.0096 59.4691L87.3991 54.9278C87.0947 55.0589 86.7605 55.132 86.4089 55.132Z" fill="#333332"/>
<path d="M81.1681 55.1327L85.5715 59.4697H87.8303L83.4276 55.1327H81.1681Z" fill="#333332"/>
<path d="M76.9887 55.1332L81.3915 59.4697H83.6509L79.2482 55.1332H76.9887Z" fill="#333332"/>
<path d="M79.4718 59.47L75.0695 55.1336H72.81L77.2122 59.47H79.4718Z" fill="#333332"/>
<path d="M70.8923 55.134H68.6448L72.7607 59.1878C72.9366 59.3615 73.1765 59.4699 73.4355 59.4699H75.2946L70.8923 55.134Z" fill="#333332"/>
<path d="M71.8576 0.339767C72.3818 0.339767 72.8053 0.76268 72.8053 1.28682V45.481C72.8053 46.0047 73.228 46.4281 73.7522 46.4281H84.7986C85.3228 46.4281 85.7457 46.8514 85.7457 47.3757V52.577C85.7457 53.1013 85.3228 53.5449 84.7986 53.5449L65.8106 53.5454C65.2863 53.5454 64.8426 53.1019 64.8426 52.5776V1.28725C64.8426 0.763115 65.2863 0.339767 65.8106 0.339767H71.8576Z" fill="#333332"/>
<path d="M216.152 5.21897V6.61562L220.561 10.9588C220.548 10.4894 220.506 10.049 220.426 9.64748C220.414 9.58988 220.419 9.51596 220.406 9.46074C220.388 9.38726 220.355 9.33027 220.336 9.25901C220.279 9.05372 220.21 8.86193 220.133 8.67802C220.1 8.60024 220.083 8.50644 220.046 8.43252C220.023 8.38546 219.987 8.35086 219.962 8.30559C219.874 8.14216 219.77 7.99596 219.661 7.85242C219.653 7.84203 219.646 7.83015 219.639 7.81797L216.085 4.31883C216.117 4.612 216.152 4.90176 216.152 5.21897Z" fill="#333332"/>
<path d="M220.58 13.5787L216.152 9.21715V11.4474L220.58 15.8086V13.5787Z" fill="#333332"/>
<path d="M220.58 18.4142L216.152 14.0525V16.2803L220.58 20.6414V18.4142Z" fill="#333332"/>
<path d="M216.152 18.8848V21.1124L220.58 25.4741V23.2459L216.152 18.8848Z" fill="#333332"/>
<path d="M205.035 8.76292H203.615L205.035 10.1612V8.76292Z" fill="#333332"/>
<path d="M205.035 13.0989V12.7669L200.97 8.76292H198.708L203.111 13.0989H205.035Z" fill="#333332"/>
<path d="M216.152 25.9452L220.58 30.3064V28.0794L216.152 23.717V25.9452Z" fill="#333332"/>
<path d="M201.733 14.3466L197.306 9.98546V12.2137L201.733 16.5742V14.3466Z" fill="#333332"/>
<path d="M216.152 30.7768L220.58 35.1385V32.9109L216.152 28.5496V30.7768Z" fill="#333332"/>
<path d="M216.152 35.6075L220.58 39.9687V37.741L216.152 33.3798V35.6075Z" fill="#333332"/>
<path d="M201.733 19.1772L197.306 14.8168V17.0443L201.733 21.4054V19.1772Z" fill="#333332"/>
<path d="M201.733 24.0102L197.306 19.6496V21.8789L201.733 26.2396V24.0102Z" fill="#333332"/>
<path d="M216.152 40.4407L220.58 44.8018V42.5736L216.152 38.2125V40.4407Z" fill="#333332"/>
<path d="M216.152 45.2737L220.58 49.6348V47.4054L216.152 43.0443V45.2737Z" fill="#333332"/>
<path d="M201.733 28.841L197.306 24.4803V26.7097L201.733 31.0708V28.841Z" fill="#333332"/>
<path d="M201.733 33.6738L197.306 29.3132V31.5403L201.733 35.9014V33.6738Z" fill="#333332"/>
<path d="M216.152 48.6669C216.152 49.1384 216.114 49.5809 216.053 50.006L220.58 54.4653V52.2381L216.152 47.8764V48.6669Z" fill="#333332"/>
<path d="M214.545 53.3533L219.439 58.174C219.474 58.1385 219.512 58.1066 219.545 58.0683C219.648 57.9478 219.743 57.8195 219.831 57.6833C219.849 57.6554 219.862 57.6234 219.88 57.5957C219.9 57.5632 219.917 57.5283 219.936 57.4943C219.98 57.4165 220.028 57.3416 220.067 57.2587C220.143 57.1011 220.209 56.935 220.268 56.7609L215.442 52.007C215.198 52.5087 214.91 52.9683 214.545 53.3533Z" fill="#333332"/>
<path d="M201.733 38.5056L197.306 34.1451V36.3748L201.733 40.7355V38.5056Z" fill="#333332"/>
<path d="M211.305 54.9952L215.842 59.4644C216.491 59.4573 217.062 59.3744 217.577 59.2336C217.636 59.2178 217.701 59.2091 217.758 59.191C217.775 59.1859 217.786 59.1733 217.803 59.1679L213.004 54.4408C212.49 54.6874 211.933 54.8846 211.305 54.9952Z" fill="#333332"/>
<path d="M201.733 45.123V43.3395L197.306 38.9784V41.2062L201.282 45.123H201.733Z" fill="#333332"/>
<path d="M197.306 43.8113V45.1232H198.638L197.306 43.8113Z" fill="#333332"/>
<path d="M206.539 55.1332L210.941 59.4697H213.203L208.8 55.1332H206.539Z" fill="#333332"/>
<path d="M201.635 55.1332L206.037 59.4697H208.299L203.897 55.1332H201.635Z" fill="#333332"/>
<path d="M196.729 55.1332L201.132 59.4697H203.394L198.991 55.1332H196.729Z" fill="#333332"/>
<path d="M194.085 55.1332H192.474C192.225 55.1332 192 55.0999 191.766 55.0791L195.169 58.4306C195.95 59.1148 197.047 59.4697 198.488 59.4697H198.488L194.085 55.1332Z" fill="#333332"/>
<path d="M206.623 45.7428V8.12184C206.623 7.5977 206.2 7.17418 205.676 7.17418H196.665C196.142 7.17418 195.718 7.5977 195.718 8.12184V45.7428C195.718 46.2877 196.142 46.7104 196.665 46.7104H205.676C206.2 46.7104 206.623 46.2871 206.623 45.7428ZM209.748 0.339645C212.973 0.339645 214.565 1.97232 214.565 5.21836V48.6654C214.565 51.9119 212.973 53.5447 209.748 53.5447L192.473 53.5459C189.329 53.5459 187.756 51.9125 187.756 48.6666V5.21883C187.756 1.97293 189.329 0.340091 192.473 0.339645H209.748Z" fill="#333332"/>
<path d="M177.136 5.21764V6.65213L181.547 10.9969C181.536 10.5093 181.49 10.058 181.407 9.64449C181.395 9.58749 181.4 9.51344 181.388 9.45822C181.37 9.3843 181.337 9.32729 181.317 9.25664C181.26 9.04957 181.191 8.85585 181.113 8.6706C181.079 8.59281 181.063 8.4987 181.027 8.42463C181.003 8.37757 180.966 8.34316 180.942 8.29759C180.871 8.16726 180.786 8.0516 180.701 7.93597L177.073 4.36203C177.102 4.64035 177.136 4.91571 177.136 5.21764Z" fill="#333332"/>
<path d="M181.563 13.3694L177.136 9.01038V11.2392L181.563 15.5987V13.3694Z" fill="#333332"/>
<path d="M181.563 17.953L177.136 13.594V15.8234L181.563 20.1827V17.953Z" fill="#333332"/>
<path d="M177.136 18.18V20.4076L181.562 24.7671V22.5395L177.136 18.18Z" fill="#333332"/>
<path d="M166.036 8.76175H165.313L166.036 9.47425V8.76175Z" fill="#333332"/>
<path d="M177.136 24.9947L181.562 29.3549V27.1277L177.136 22.7676V24.9947Z" fill="#333332"/>
<path d="M166.036 13.0987V11.834L162.917 8.76175H160.656L165.059 13.0987H166.036Z" fill="#333332"/>
<path d="M177.136 29.5799L181.562 33.9394V31.7122L177.136 27.3522V29.5799Z" fill="#333332"/>
<path d="M163.623 14.0464C163.623 14.0448 163.624 14.0438 163.624 14.0438L159.196 9.68044V11.9082L163.623 16.2687V14.0464Z" fill="#333332"/>
<path d="M177.136 34.168L181.562 38.5276V36.2976L177.136 31.9383V34.168Z" fill="#333332"/>
<path d="M163.623 18.6271L159.196 14.2672V16.4964L163.623 20.8571V18.6271Z" fill="#333332"/>
<path d="M176.646 38.2689L181.434 42.9845C181.44 42.9566 181.449 42.9326 181.455 42.9035C181.464 42.858 181.464 42.7978 181.471 42.7501C181.505 42.5425 181.528 42.3189 181.541 42.0786C181.544 42.0249 181.555 41.9837 181.557 41.9285C181.561 41.8244 181.563 41.717 181.563 41.6064V40.8833L177.058 36.4467C177.001 37.1302 176.863 37.7377 176.646 38.2689Z" fill="#333332"/>
<path d="M163.623 23.2133L159.196 18.8532V21.0826L163.623 25.4419V23.2133Z" fill="#333332"/>
<path d="M174.409 40.6513L179.256 45.425C179.263 45.4223 179.277 45.4201 179.285 45.4174C179.726 45.2256 180.094 45.0105 180.405 44.7546C180.419 44.743 180.442 44.7365 180.455 44.7251C180.499 44.6872 180.536 44.6428 180.578 44.6029C180.595 44.5864 180.612 44.5685 180.629 44.5514L175.708 39.7037C175.352 40.0632 174.918 40.3798 174.409 40.6513Z" fill="#333332"/>
<path d="M163.623 27.7992L159.196 23.4391V25.6663L163.623 30.027V27.7992Z" fill="#333332"/>
<path d="M163.127 31.896L159.196 28.0235V30.2534L160.864 31.8968L163.127 31.896Z" fill="#333332"/>
<path d="M170.969 41.4574L171.666 42.5374L175.267 46.0836C175.28 46.073 175.288 46.0567 175.301 46.0457C175.452 45.9319 175.63 45.8464 175.838 45.8403C176.353 45.8283 176.8 45.803 177.215 45.7723L172.652 41.2786C172.174 41.3603 171.619 41.4201 170.969 41.4574Z" fill="#333332"/>
<path d="M180.615 55.935L176.672 49.8239L175.838 49.0027L177.266 51.2139C177.609 51.7459 177.717 52.3763 177.619 52.9843L180.615 55.935Z" fill="#333332"/>
<path d="M181.139 59.4694C181.311 59.4694 181.46 59.4153 181.593 59.3418C181.613 59.3314 181.631 59.3204 181.649 59.3096L176.768 54.5025C176.319 54.8882 175.751 55.1258 175.139 55.1297L179.545 59.4694H181.139Z" fill="#333332"/>
<path d="M170.489 55.1319L174.834 59.4114C174.924 59.4415 175.015 59.4694 175.112 59.4694H177.155L172.751 55.1319H170.489Z" fill="#333332"/>
<path d="M159.196 41.875V44.0086L162.917 47.6735L159.196 41.875Z" fill="#333332"/>
<path d="M159.196 48.5956L163.623 52.9562V52.5547V50.7285L159.196 46.368V48.5956Z" fill="#333332"/>
<path d="M159.196 52.5769C159.196 52.7554 159.13 52.9122 159.095 53.0809L163.623 57.5412V55.3135L159.196 50.9528V52.5769Z" fill="#333332"/>
<path d="M156.661 55.1343H156.525L160.926 59.4702H162.675C162.821 59.4702 162.95 59.4204 163.071 59.3547L158.2 54.556C157.768 54.8977 157.249 55.1343 156.661 55.1343Z" fill="#333332"/>
<path d="M154.131 55.1343H151.867L156.047 59.2517C156.212 59.3804 156.408 59.4701 156.628 59.4701H158.533L154.131 55.1343Z" fill="#333332"/>
<path d="M167.625 32.5165V8.12167C167.625 7.59753 167.203 7.17404 166.678 7.17404H158.555C158.03 7.17404 157.608 7.59753 157.608 8.12167V32.5171C157.608 33.0615 158.03 33.4844 158.555 33.4844H166.678C167.203 33.4844 167.625 33.0611 167.625 32.5165ZM175.93 52.0732C176.333 52.6982 175.89 53.5445 175.123 53.5445L169.097 53.545C168.775 53.545 168.472 53.3637 168.311 53.1014L164.561 47.2947L160.147 40.4201C159.945 40.1175 159.623 39.9363 159.281 39.9363H158.635C158.071 39.9363 157.608 40.4003 157.608 40.9847V46.6297V52.5776C157.608 53.1019 157.184 53.5456 156.66 53.5456H150.613C150.089 53.5456 149.646 53.1019 149.646 52.5776V1.28742C149.646 0.763282 150.089 0.339964 150.613 0.339964L170.77 0.339211C173.955 0.339211 175.548 1.97203 175.548 5.21807V35.6819C175.548 37.9398 174.801 38.8272 173.269 39.4922C172.665 39.7343 171.516 39.8754 169.823 39.916C169.097 39.9357 168.633 40.7628 169.036 41.3877L175.93 52.0732Z" fill="#333332"/>
<path d="M39.1585 72.2079L42.3162 75.318C42.3076 75.2579 42.2997 75.1976 42.2868 75.14C42.2565 75.0087 42.193 74.9002 42.1568 74.7731C42.0643 74.4488 41.9564 74.1354 41.8255 73.8391C41.7832 73.7433 41.7647 73.6306 41.7181 73.538C41.6738 73.4487 41.6015 73.3796 41.5532 73.2932C41.3901 73.001 41.201 72.7282 40.9957 72.4671C40.9179 72.3685 40.8685 72.2495 40.7854 72.1552C40.737 72.1022 40.6856 72.0509 40.6357 71.9987L38.8512 70.241C39.0111 70.8588 39.1086 71.5185 39.1585 72.2079Z" fill="#333332"/>
<path d="M42.5178 77.3106C42.5178 77.1171 42.487 76.9458 42.4749 76.7612L39.2072 73.542V75.206L42.5178 78.4673V77.3106Z" fill="#333332"/>
<path d="M42.5178 79.7525L39.2072 76.4917V78.1553L42.5178 81.4171V79.7525Z" fill="#333332"/>
<path d="M29.7604 71.8L30.7282 72.7533C30.5826 72.309 30.2973 71.9786 29.7604 71.8Z" fill="#333332"/>
<path d="M39.2068 81.1049L42.5175 84.3661V82.7021L39.2068 79.4408V81.1049Z" fill="#333332"/>
<path d="M30.8652 74.8839V74.1751L28.2925 71.6412H26.6033L29.8952 74.8839H30.8652Z" fill="#333332"/>
<path d="M39.2068 84.0557L42.5175 87.3169V85.6529L39.2068 82.3911V84.0557Z" fill="#333332"/>
<path d="M28.6374 75.5924C28.6374 75.4965 28.6582 75.4055 28.6944 75.3218L28.6982 75.3124C28.7299 75.2407 28.7782 75.1782 28.8313 75.1212L25.3262 71.6689V73.3328L28.6374 76.5948V75.5924Z" fill="#333332"/>
<path d="M39.2068 87.0059L42.5175 90.2671V88.6031L39.2068 85.3413V87.0059Z" fill="#333332"/>
<path d="M28.6374 77.8798L25.3262 74.6186V76.2826L28.6374 79.5445V77.8798Z" fill="#333332"/>
<path d="M39.2068 89.9549L42.5175 93.2161V91.5521L39.2068 88.2908V89.9549Z" fill="#333332"/>
<path d="M39.2068 92.9055L42.5175 96.1666V94.5027L39.2068 91.2413V92.9055Z" fill="#333332"/>
<path d="M28.6374 80.8302L25.3262 77.5688V79.2324L28.6374 82.4942V80.8302Z" fill="#333332"/>
<path d="M28.6374 83.7801L25.3262 80.5184V82.1824L28.6374 85.4442V83.7801Z" fill="#333332"/>
<path d="M39.2068 95.8557L42.5175 99.117V97.4535L39.2068 94.1917V95.8557Z" fill="#333332"/>
<path d="M39.2069 97.6182C39.2069 98.0043 39.1521 98.3549 39.1176 98.7186L42.5175 102.068C42.5175 102.06 42.5175 102.054 42.5175 102.047V100.402L39.2069 97.1407V97.6182Z" fill="#333332"/>
<path d="M28.6374 86.7295L25.3262 83.4684V85.1335L28.6374 88.3953V86.7295Z" fill="#333332"/>
<path d="M38.6064 101.164L42.1569 104.661C42.228 104.42 42.2999 104.179 42.3491 103.922C42.3563 103.884 42.3557 103.841 42.3623 103.803C42.3935 103.629 42.4029 103.44 42.422 103.258L38.9625 99.8503C38.8677 100.304 38.762 100.751 38.6064 101.164Z" fill="#333332"/>
<path d="M28.6374 89.6803L25.3262 86.4191V88.0832L28.6374 91.3445V89.6803Z" fill="#333332"/>
<path d="M28.6374 92.6296L25.3262 89.3679V91.0335L28.6374 94.2954V92.6296Z" fill="#333332"/>
<path d="M37.5319 103.057L41.1924 106.662C41.2286 106.61 41.2702 106.562 41.3052 106.51C41.3217 106.485 41.342 106.463 41.3577 106.439C41.3656 106.428 41.3742 106.418 41.3813 106.407C41.5249 106.185 41.6542 105.953 41.7704 105.711C41.7861 105.677 41.7977 105.641 41.812 105.607L38.176 102.025C37.9858 102.386 37.7761 102.733 37.5319 103.057Z" fill="#333332"/>
<path d="M36.7616 103.977C36.5413 104.19 36.2839 104.354 36.0424 104.538L39.6919 108.133C39.8344 108.037 39.9861 107.952 40.1176 107.84C40.227 107.747 40.3339 107.65 40.438 107.549C40.4982 107.492 40.5502 107.429 40.6078 107.37L36.9434 103.761C36.8771 103.828 36.8305 103.911 36.7616 103.977Z" fill="#333332"/>
<path d="M28.6374 95.5794L25.3262 92.3182V93.9839L28.6374 97.2452V95.5794Z" fill="#333332"/>
<path d="M34.1506 105.625L37.7056 109.126C37.7624 109.109 37.8255 109.101 37.8813 109.082C38.0621 109.021 38.2248 108.935 38.3968 108.861C38.565 108.789 38.7253 108.707 38.8882 108.627L35.2845 105.078C34.9268 105.288 34.5472 105.469 34.1506 105.625Z" fill="#333332"/>
<path d="M28.4198 98.8268C28.4998 98.8268 28.5617 98.8164 28.6374 98.8142V98.5299L25.3262 95.2688V96.9328L27.2488 98.8268H28.4198Z" fill="#333332"/>
<path d="M36.4314 109.435C36.5114 109.423 36.5845 109.401 36.6598 109.382L33.1524 105.928C32.7007 106.047 32.2346 106.144 31.7415 106.202L35.1221 109.532C35.5723 109.519 36.0162 109.497 36.4314 109.435Z" fill="#333332"/>
<path d="M25.3262 98.2186V98.8267H25.9436L25.3262 98.2186Z" fill="#333332"/>
<path d="M33.8407 109.554L30.5312 106.295C30.4578 106.297 30.3938 106.312 30.3187 106.312H28.8573L32.1498 109.554H33.8407Z" fill="#333332"/>
<path d="M30.8449 109.555L27.5524 106.312H25.8637L29.1557 109.555H30.8449Z" fill="#333332"/>
<path d="M27.8501 109.555L24.5581 106.313H22.8688L26.1608 109.555H27.8501Z" fill="#333332"/>
<path d="M21.5645 106.313H19.8738L23.0468 109.438C23.1541 109.506 23.273 109.555 23.4078 109.555L24.8566 109.554L21.5645 106.313Z" fill="#333332"/>
<path d="M66.4564 68.992V70.0368L69.7534 73.2832C69.743 72.9326 69.7115 72.6034 69.6512 72.3032C69.6426 72.2605 69.6465 72.2051 69.6371 72.1636C69.6239 72.1088 69.5988 72.066 69.5841 72.0129C69.5418 71.8596 69.4903 71.716 69.4323 71.578C69.4076 71.5204 69.3956 71.4497 69.3683 71.3945C69.3506 71.3595 69.3232 71.3337 69.3052 71.2998C69.2389 71.1782 69.1606 71.0687 69.08 70.9614C69.074 70.953 69.0686 70.9438 69.0631 70.9355L66.4065 68.319C66.4295 68.5381 66.4564 68.755 66.4564 68.992Z" fill="#333332"/>
<path d="M69.7672 75.2425L66.4566 71.9813V73.6492L69.7672 76.9093V75.2425Z" fill="#333332"/>
<path d="M69.7672 78.8581L66.4566 75.597V77.2627L69.7672 80.5235V78.8581Z" fill="#333332"/>
<path d="M66.4564 79.2096V80.8754L69.767 84.1366V82.471L66.4564 79.2096Z" fill="#333332"/>
<path d="M58.1442 71.6417H57.0827L58.1442 72.6874V71.6417Z" fill="#333332"/>
<path d="M58.1442 74.8838V74.6352L55.1047 71.6417H53.4139L56.7058 74.8838H58.1442Z" fill="#333332"/>
<path d="M66.4564 84.4888L69.767 87.7496V86.0844L66.4564 82.8228V84.4888Z" fill="#333332"/>
<path d="M55.6755 75.8168L52.3655 72.556V74.2218L55.6755 77.4824V75.8168Z" fill="#333332"/>
<path d="M66.4564 88.1014L69.767 91.3627V89.6969L66.4564 86.4356V88.1014Z" fill="#333332"/>
<path d="M66.4564 91.7132L69.767 94.9744V93.3086L66.4564 90.0474V91.7132Z" fill="#333332"/>
<path d="M55.6755 79.4285L52.3655 76.1683V77.8335L55.6755 81.0947V79.4285Z" fill="#333332"/>
<path d="M55.6755 83.042L52.3655 79.7819V81.4487L55.6755 84.7089V83.042Z" fill="#333332"/>
<path d="M66.4564 95.3269L69.7637 98.5877V96.9215L66.4564 93.6607V95.3269Z" fill="#333332"/>
<path d="M66.4564 98.9405L69.767 102.201V100.534L66.4564 97.2737V98.9405Z" fill="#333332"/>
<path d="M55.6755 86.6539L52.3655 83.3932V85.0606L55.6755 88.3208V86.6539Z" fill="#333332"/>
<path d="M55.6755 90.2674L52.3655 87.0068V88.6726L55.6755 91.9332V90.2674Z" fill="#333332"/>
<path d="M66.4564 101.477C66.4564 101.83 66.4273 102.161 66.3819 102.479L69.767 105.813V104.148L66.4564 100.887V101.477Z" fill="#333332"/>
<path d="M65.2545 104.981L68.914 108.586C68.9402 108.559 68.9686 108.535 68.9934 108.507C69.07 108.417 69.1412 108.321 69.207 108.219C69.2202 108.198 69.2306 108.175 69.2436 108.153C69.2585 108.129 69.2711 108.103 69.2852 108.077C69.3182 108.019 69.3536 107.963 69.3833 107.902C69.4397 107.784 69.4896 107.659 69.5335 107.529L65.925 103.975C65.7436 104.35 65.5278 104.694 65.2545 104.981Z" fill="#333332"/>
<path d="M55.6755 93.8804L52.3655 90.6197V92.2869L55.6755 95.5471V93.8804Z" fill="#333332"/>
<path d="M62.8318 106.209L66.2245 109.551C66.7093 109.546 67.1365 109.483 67.5217 109.378C67.5655 109.366 67.6147 109.36 67.6576 109.347C67.6702 109.343 67.6777 109.333 67.6904 109.329L64.102 105.794C63.7182 105.979 63.3018 106.126 62.8318 106.209Z" fill="#333332"/>
<path d="M55.6755 98.8277V97.4944L52.3655 94.2337V95.8994L55.3381 98.8277H55.6755Z" fill="#333332"/>
<path d="M52.3655 97.8471V98.8276H53.3608L52.3655 97.8471Z" fill="#333332"/>
<path d="M59.2686 106.312L62.5601 109.555H64.2514L60.9594 106.312H59.2686Z" fill="#333332"/>
<path d="M55.6017 106.312L58.8936 109.555H60.5845L57.2927 106.312H55.6017Z" fill="#333332"/>
<path d="M51.9339 106.312L55.2258 109.555H56.9167L53.6248 106.312H51.9339Z" fill="#333332"/>
<path d="M49.9572 106.312H48.7522C48.5659 106.312 48.3983 106.287 48.223 106.272L50.7672 108.778C51.3512 109.289 52.1717 109.555 53.2491 109.555H53.2496L49.9572 106.312Z" fill="#333332"/>
<path d="M59.3317 99.2911V71.1622C59.3317 70.7706 59.0151 70.4539 58.6233 70.4539H51.8868C51.4944 70.4539 51.178 70.7706 51.178 71.1627V99.2911C51.178 99.6986 51.4944 100.015 51.8868 100.015H58.6233C59.0151 100.015 59.3317 99.6981 59.3317 99.2911ZM61.6678 65.3434C64.079 65.3434 65.2697 66.5645 65.2697 68.9915V101.477C65.2697 103.904 64.079 105.125 61.6678 105.125L48.752 105.125C46.4005 105.125 45.225 103.904 45.225 101.477V68.992C45.225 66.5649 46.4005 65.3442 48.752 65.3442L61.6678 65.3434Z" fill="#333332"/>
<path d="M32.0521 96.6228V73.7703C32.0521 71.5541 30.8917 70.4537 28.5707 70.4537L24.8631 70.4543C24.4716 70.4543 24.1399 70.7708 24.1399 71.1625V99.2914C24.1399 99.6983 24.4716 100.014 24.8631 100.014H28.42C30.8314 100.014 32.0521 98.8838 32.0521 96.6228ZM35.9406 67.3634C37.3271 68.7046 38.0206 70.5441 38.0206 72.8807V97.6175C38.0206 99.9542 37.3271 101.793 35.9406 103.12C34.5538 104.461 32.6701 105.124 30.3191 105.125H18.9102C18.5186 105.125 18.202 104.794 18.202 104.401V66.0527C18.202 65.6603 18.5186 65.3445 18.9102 65.3445L30.3191 65.3439C32.6701 65.3439 34.5538 66.0066 35.9406 67.3634Z" fill="#333332"/>
<path d="M125.263 68.5967L128.361 71.6477L127.997 69.7575C127.995 69.7433 127.992 69.7286 127.989 69.7146C127.975 69.6555 127.955 69.6003 127.929 69.5487C127.906 69.5012 127.875 69.4605 127.843 69.4206L124.856 66.4787L125.263 68.5967Z" fill="#333332"/>
<path d="M128.689 73.3491L125.591 70.2977L125.997 72.4131L129.095 75.4641L128.689 73.3491Z" fill="#333332"/>
<path d="M129.422 77.1644L126.325 74.1129L126.731 76.2284L129.829 79.2798L129.422 77.1644Z" fill="#333332"/>
<path d="M130.156 80.9805L127.059 77.9295L127.466 80.0445L130.563 83.0959L130.156 80.9805Z" fill="#333332"/>
<path d="M130.89 84.7961L127.793 81.7454L128.2 83.8625L131.297 86.9139L130.89 84.7961Z" fill="#333332"/>
<path d="M131.624 88.6125L128.527 85.5616L128.933 87.677L132.031 90.728L131.624 88.6125Z" fill="#333332"/>
<path d="M119.977 81.7115L119.943 81.9152L120.021 81.9924L119.977 81.7115Z" fill="#333332"/>
<path d="M129.668 91.4938L132.765 94.5454L132.359 92.4299L129.261 89.3784L129.668 91.4938Z" fill="#333332"/>
<path d="M120.285 83.6306L119.749 83.1032L119.509 84.581L120.613 85.6677L120.285 83.6306Z" fill="#333332"/>
<path d="M130.402 95.3103L133.499 98.3613L133.092 96.2465L129.995 93.1951L130.402 95.3103Z" fill="#333332"/>
<path d="M131.136 99.1274L134.234 102.179L133.826 100.061L130.729 97.0099L131.136 99.1274Z" fill="#333332"/>
<path d="M120.876 87.3055L119.315 85.7679L119.075 87.2474L121.204 89.3447L120.876 87.3055Z" fill="#333332"/>
<path d="M121.468 90.9817L118.881 88.434L118.641 89.9113L121.795 93.0185L121.468 90.9817Z" fill="#333332"/>
<path d="M131.87 102.942L134.967 105.993L134.561 103.878L131.463 100.827L131.87 102.942Z" fill="#333332"/>
<path d="M131.844 106.01L135.579 109.69C135.582 109.679 135.584 109.669 135.587 109.658C135.589 109.653 135.59 109.648 135.591 109.643C135.595 109.628 135.6 109.612 135.604 109.595C135.611 109.557 135.616 109.516 135.617 109.475C135.619 109.423 135.616 109.37 135.606 109.317L135.295 107.695L132.18 104.627C132.24 105.134 132.117 105.614 131.844 106.01Z" fill="#333332"/>
<path d="M119.581 93.9312H121.321L118.448 91.0999L118.206 92.5771L119.581 93.9312Z" fill="#333332"/>
<path d="M118.013 93.7656L117.986 93.9303H118.18L118.013 93.7656Z" fill="#333332"/>
<path d="M130.243 106.86H129.567L132.959 110.202H134.7L131.099 106.655C130.835 106.784 130.545 106.86 130.243 106.86Z" fill="#333332"/>
<path d="M123.258 102.025L122.87 101.643H121.129L123.574 104.051L123.258 102.025Z" fill="#333332"/>
<path d="M126.63 106.86L129.811 109.993C129.942 110.123 130.123 110.202 130.327 110.202H131.559L128.167 106.86H126.63Z" fill="#333332"/>
<path d="M117.989 101.643L121.381 104.984H123.121L119.729 101.643H117.989Z" fill="#333332"/>
<path d="M116.525 103.294L120.082 106.799L120.264 105.605C120.279 105.519 120.31 105.439 120.351 105.365C120.353 105.362 120.355 105.359 120.357 105.355L116.751 101.803L116.525 103.294Z" fill="#333332"/>
<path d="M116.234 105.2C116.192 105.442 116.109 105.666 115.995 105.867L119.673 109.489L119.9 107.997L116.342 104.492L116.234 105.2Z" fill="#333332"/>
<path d="M118.929 110.202C118.948 110.202 118.961 110.185 118.98 110.184L115.294 106.553C114.996 106.735 114.664 106.862 114.295 106.862H113.867L117.258 110.202H118.929Z" fill="#333332"/>
<path d="M112.467 106.862H110.725L113.939 110.027C114.064 110.131 114.22 110.203 114.395 110.203H115.859L112.467 106.862Z" fill="#333332"/>
<path d="M122.51 95.1539C122.976 95.1539 123.318 94.7501 123.239 94.2994L120.708 78.566C120.639 78.1547 120.308 77.9487 119.979 77.9487C119.648 77.9487 119.319 78.1547 119.249 78.566L116.687 94.2994C116.609 94.7501 116.951 95.1539 117.401 95.1539H122.51ZM130.972 104.752C131.05 105.218 130.709 105.638 130.243 105.638H125.693C125.32 105.638 125.026 105.374 124.963 105.017L124.342 101.04C124.279 100.683 123.97 100.419 123.612 100.419H116.36C116.003 100.419 115.693 100.683 115.63 101.04L115.025 105.017C114.963 105.374 114.668 105.638 114.295 105.638H109.761C109.31 105.638 108.954 105.219 109.047 104.753L116.702 65.1779C116.765 64.8362 117.059 64.5882 117.416 64.5882L122.65 64.5874C123.006 64.5874 123.301 64.8362 123.364 65.1934L130.972 104.752Z" fill="#333332"/>
<path d="M198.812 68.0232L202.224 71.3831V69.9128C202.224 69.8553 202.217 69.8001 202.204 69.7464C202.196 69.713 202.182 69.6823 202.17 69.6511C202.165 69.6385 202.162 69.6259 202.156 69.6139C202.153 69.6073 202.152 69.5994 202.149 69.5925L198.812 66.3061V68.0232Z" fill="#333332"/>
<path d="M202.104 74.2704C202.12 74.2445 202.136 74.2177 202.149 74.1898C202.154 74.1794 202.158 74.1679 202.162 74.1571C202.164 74.1531 202.165 74.1488 202.167 74.1449C202.173 74.1313 202.179 74.1181 202.184 74.1034C202.194 74.072 202.203 74.0398 202.209 74.0064C202.217 73.9664 202.221 73.9263 202.223 73.8843C202.223 73.8754 202.223 73.8666 202.223 73.8579V72.7153L198.802 69.345C198.789 69.82 198.602 70.2438 198.311 70.578L202.085 74.2956C202.091 74.2868 202.098 74.2797 202.104 74.2704Z" fill="#333332"/>
<path d="M201.045 74.6036L197.517 71.1281C197.31 71.2038 197.093 71.2618 196.86 71.2618L195.912 71.2624L199.305 74.6036H201.045Z" fill="#333332"/>
<path d="M197.951 74.6036L194.56 71.2624L192.819 71.2629L196.211 74.6036H197.951Z" fill="#333332"/>
<path d="M194.857 74.6036L191.466 71.2628L189.725 71.2634L193.116 74.6036H194.857Z" fill="#333332"/>
<path d="M191.509 75.3339C191.509 75.2349 191.531 75.1412 191.567 75.0553C191.568 75.052 191.569 75.0488 191.571 75.0459C191.608 74.9639 191.66 74.8914 191.723 74.8283C191.728 74.8225 191.734 74.8165 191.74 74.8108C191.78 74.7727 191.831 74.7463 191.88 74.7189L188.372 71.2637H188.097V72.708L191.509 76.0681V75.3339Z" fill="#333332"/>
<path d="M191.509 77.403L188.097 74.0427V75.7577L191.509 79.1175V77.403Z" fill="#333332"/>
<path d="M191.509 80.4499L188.097 77.09V78.8049L191.509 82.1649V80.4499Z" fill="#333332"/>
<path d="M191.509 83.4976L188.097 80.1375V81.8538L191.509 85.2136V83.4976Z" fill="#333332"/>
<path d="M197.321 93.9865L200.733 97.3457V95.6314L197.321 92.2721V93.9865Z" fill="#333332"/>
<path d="M191.509 86.5462L188.097 83.1864V84.9008L191.509 88.2607V86.5462Z" fill="#333332"/>
<path d="M190.834 88.9295L188.097 86.234V87.9484L189.094 88.93L190.834 88.9295Z" fill="#333332"/>
<path d="M196.329 96.0571L200.013 99.6852C200.175 99.6827 200.319 99.6196 200.439 99.5271C200.449 99.5193 200.466 99.5221 200.475 99.5145C200.487 99.5035 200.497 99.4913 200.509 99.4805L200.526 99.4636C200.537 99.4525 200.548 99.4428 200.559 99.4306C200.58 99.406 200.599 99.3797 200.616 99.3523C200.633 99.327 200.648 99.3002 200.661 99.2733C200.665 99.2641 200.668 99.2547 200.672 99.2466C200.674 99.2421 200.675 99.2389 200.677 99.235C200.683 99.2199 200.69 99.2055 200.695 99.1897C200.705 99.1596 200.713 99.1277 200.719 99.0959C200.726 99.0588 200.731 99.021 200.732 98.9815C200.732 98.9739 200.732 98.9656 200.732 98.9574V98.6796L197.161 95.162C196.995 95.5488 196.69 95.8468 196.329 96.0571Z" fill="#333332"/>
<path d="M197.015 98.9626C197.62 98.9626 198.139 99.2546 198.498 99.6873H198.662L195.271 96.3471H193.529L196.184 98.9626H197.015Z" fill="#333332"/>
<path d="M198.967 104.751L202.379 108.111V106.396L198.967 103.036V104.751Z" fill="#333332"/>
<path d="M194.831 98.9626L192.176 96.3471H190.436L193.091 98.9626H194.831Z" fill="#333332"/>
<path d="M191.736 98.9626L189.08 96.3471H188.097V97.0926L189.995 98.9626H191.736Z" fill="#333332"/>
<path d="M197.805 106.655L201.374 110.171H201.649C201.81 110.171 201.952 110.106 202.073 110.014C202.084 110.006 202.102 110.008 202.111 109.999C202.127 109.987 202.14 109.972 202.153 109.957C202.16 109.951 202.166 109.946 202.171 109.94C202.18 109.931 202.19 109.923 202.198 109.914C202.22 109.888 202.241 109.86 202.259 109.832C202.276 109.805 202.291 109.778 202.305 109.749C202.309 109.739 202.312 109.728 202.317 109.718C202.319 109.714 202.321 109.709 202.323 109.704C202.329 109.691 202.335 109.677 202.34 109.662C202.35 109.631 202.359 109.599 202.365 109.566C202.373 109.528 202.377 109.49 202.379 109.45V109.445L198.69 105.812C198.484 106.177 198.187 106.482 197.805 106.655Z" fill="#333332"/>
<path d="M188.097 98.4245V98.9625H188.643L188.097 98.4245Z" fill="#333332"/>
<path d="M200.023 110.171L196.632 106.831H194.89L198.281 110.171H200.023Z" fill="#333332"/>
<path d="M196.927 110.171L193.536 106.831H191.795L195.186 110.171H196.927Z" fill="#333332"/>
<path d="M193.833 110.171L190.442 106.831H188.701L192.092 110.171H193.833Z" fill="#333332"/>
<path d="M190.738 110.171L187.347 106.831H185.606L188.998 110.171H190.738Z" fill="#333332"/>
<path d="M184.254 106.831H182.511L185.846 110.116C185.931 110.151 186.023 110.171 186.12 110.171H187.645L184.254 106.831Z" fill="#333332"/>
<path d="M196.859 64.6191C197.263 64.6191 197.589 64.9449 197.589 65.3491V69.294C197.589 69.713 197.263 70.0396 196.859 70.0396H187.62C187.217 70.0396 186.874 70.3658 186.874 70.7696V89.4071C186.874 89.8269 187.217 90.1531 187.62 90.1531L195.369 90.1527C195.773 90.1527 196.098 90.4791 196.098 90.8828V94.3927C196.098 94.797 195.773 95.123 195.369 95.123H187.62C187.217 95.123 186.874 95.4492 186.874 95.853V99.4413C186.874 99.8451 187.217 100.187 187.62 100.187L197.015 100.186C197.418 100.186 197.744 100.512 197.744 100.916V104.861C197.744 105.265 197.418 105.607 197.015 105.607L181.487 105.607C181.083 105.607 180.757 105.266 180.757 104.862V65.3491C180.757 64.9453 181.083 64.6191 181.487 64.6191H196.859Z" fill="#333332"/>
<path d="M145.181 68.0293L148.592 71.3886V69.913C148.592 69.8555 148.585 69.7997 148.572 69.7466C148.565 69.713 148.55 69.6824 148.538 69.6513C148.534 69.6386 148.53 69.6265 148.525 69.6144C148.524 69.6112 148.523 69.6079 148.522 69.6046L145.181 66.3138V68.0293Z" fill="#333332"/>
<path d="M148.592 72.8453L145.181 69.486V71.2005L148.592 74.5598V72.8453Z" fill="#333332"/>
<path d="M148.592 76.0172L145.181 72.6571V74.3716L148.592 77.7315V76.0172Z" fill="#333332"/>
<path d="M148.592 79.1869L145.181 75.8275V77.5419L148.592 80.9014V79.1869Z" fill="#333332"/>
<path d="M148.592 82.3576L145.181 78.9983V80.7138L148.592 84.0731V82.3576Z" fill="#333332"/>
<path d="M148.592 85.5298L145.181 82.1706V83.8844L148.592 87.2443V85.5298Z" fill="#333332"/>
<path d="M148.592 88.7011L145.181 85.3412V87.0562L148.592 90.4155V88.7011Z" fill="#333332"/>
<path d="M148.592 91.8709L145.181 88.5115V90.226L148.592 93.5853V91.8709Z" fill="#333332"/>
<path d="M158.508 105.156C158.503 105.144 158.499 105.131 158.494 105.119C158.491 105.11 158.489 105.101 158.485 105.093C158.456 105.035 158.42 104.982 158.378 104.934C158.367 104.922 158.355 104.909 158.343 104.898L155.15 101.753V103.217L158.561 106.577V105.418C158.561 105.361 158.554 105.305 158.541 105.251C158.534 105.218 158.519 105.188 158.508 105.156Z" fill="#333332"/>
<path d="M148.592 95.0431L145.181 91.6834V93.3989L148.592 96.7582V95.0431Z" fill="#333332"/>
<path d="M148.592 98.9004V98.2142L145.181 94.8547V96.5692L147.548 98.9004H148.592Z" fill="#333332"/>
<path d="M155.15 104.861C155.15 105.292 154.984 105.67 154.75 105.994L158.509 109.697C158.514 109.685 158.518 109.674 158.522 109.662C158.533 109.631 158.541 109.599 158.547 109.566C158.555 109.529 158.56 109.49 158.561 109.45C158.561 109.442 158.561 109.434 158.561 109.425V108.034L155.15 104.674V104.861Z" fill="#333332"/>
<path d="M145.181 98.0246V98.9006H146.07L145.181 98.0246Z" fill="#333332"/>
<path d="M153.197 106.83H152.38L155.772 110.171H157.512L153.96 106.672C153.726 106.773 153.468 106.83 153.197 106.83Z" fill="#333332"/>
<path d="M149.161 106.83L152.552 110.171H154.293L150.901 106.83H149.161Z" fill="#333332"/>
<path d="M145.94 106.83L149.332 110.171H151.073L147.681 106.83H145.94Z" fill="#333332"/>
<path d="M147.853 110.171L144.462 106.83H142.722L146.113 110.171H147.853Z" fill="#333332"/>
<path d="M141.244 106.831H139.512L142.683 109.954C142.819 110.088 143.004 110.171 143.203 110.171H144.635L141.244 106.831Z" fill="#333332"/>
<path d="M104.347 68.0949L107.758 71.4542V69.9128C107.758 69.8574 107.751 69.8033 107.739 69.7512C107.735 69.7342 107.727 69.7182 107.721 69.7019L104.347 66.3786V68.0949Z" fill="#333332"/>
<path d="M107.758 73.2173L104.347 69.8586V71.5753L107.758 74.9346V73.2173Z" fill="#333332"/>
<path d="M107.758 76.6978L104.347 73.3389V75.0544L107.758 78.4133V76.6978Z" fill="#333332"/>
<path d="M107.758 80.177L104.347 76.8179V78.5338L107.758 81.8925V80.177Z" fill="#333332"/>
<path d="M107.758 83.6567L104.347 80.2979V82.0134L107.758 85.3722V83.6567Z" fill="#333332"/>
<path d="M104.347 85.4929L107.758 88.8522V87.1362L104.347 83.7774V85.4929Z" fill="#333332"/>
<path d="M88.9062 69.7268C88.8936 69.6741 88.8755 69.6244 88.8519 69.5778C88.8252 69.5232 88.7912 69.4727 88.7511 69.4277C88.7407 69.4163 88.7299 69.4049 88.7187 69.3937L85.9149 66.632L86.1586 67.5764L89.0989 70.4723L88.9062 69.7268Z" fill="#333332"/>
<path d="M89.7106 72.8404L86.7703 69.9447L87.3647 72.2451L90.3043 75.1411L89.7106 72.8404Z" fill="#333332"/>
<path d="M104.347 88.973L107.758 92.3319V90.6164L104.347 87.2575V88.973Z" fill="#333332"/>
<path d="M104.347 92.4527L107.758 95.812V94.0959L104.347 90.7371V92.4527Z" fill="#333332"/>
<path d="M90.9162 77.5075L87.976 74.6116L88.5703 76.9123L91.51 79.8081L90.9162 77.5075Z" fill="#333332"/>
<path d="M91.6535 81.7138L89.182 79.2796L89.7764 81.5797L91.3001 83.0809L91.6535 81.7138Z" fill="#333332"/>
<path d="M104.347 95.9322L107.758 99.2915V97.5753L104.347 94.2166V95.9322Z" fill="#333332"/>
<path d="M90.9366 84.4881L90.3878 83.9475L90.7323 85.2797L90.9366 84.4881Z" fill="#333332"/>
<path d="M107.758 101.057L104.347 97.6972V99.4134L107.758 102.772V101.057Z" fill="#333332"/>
<path d="M107.758 104.535L104.347 101.176V102.892L107.758 106.251V104.535Z" fill="#333332"/>
<path d="M96.0011 96.436L95.7887 96.2269L95.4589 97.617L96.0011 98.1515V96.436Z" fill="#333332"/>
<path d="M104.347 104.861C104.347 105.287 104.183 105.661 103.952 105.983L107.708 109.683C107.713 109.673 107.717 109.664 107.72 109.654C107.73 109.623 107.739 109.592 107.745 109.561C107.751 109.524 107.756 109.487 107.757 109.449C107.758 109.441 107.758 109.433 107.758 109.425V108.016L104.347 104.657V104.861Z" fill="#333332"/>
<path d="M102.379 106.829H101.281L104.672 110.171H106.414L102.912 106.721C102.739 106.771 102.568 106.829 102.379 106.829Z" fill="#333332"/>
<path d="M96.0011 99.9141L95.1194 99.0453L94.789 100.436L96.0011 101.63V99.9141Z" fill="#333332"/>
<path d="M97.7387 106.821L97.7465 106.789C97.7258 106.786 97.7088 106.774 97.6885 106.771L97.7387 106.821Z" fill="#333332"/>
<path d="M98.9037 106.831L102.082 109.962C102.213 110.09 102.391 110.171 102.587 110.171H102.881L99.4896 106.831H98.9037Z" fill="#333332"/>
<path d="M96.0011 104.861V103.394L94.4494 101.866L94.1191 103.256L96.0592 105.166C96.0422 105.064 96.0011 104.969 96.0011 104.861Z" fill="#333332"/>
<path d="M93.6298 105.316C93.575 105.556 93.471 105.772 93.3396 105.967L97.063 109.635C97.067 109.622 97.0709 109.61 97.0742 109.596L97.3951 108.246L93.7794 104.686L93.6298 105.316Z" fill="#333332"/>
<path d="M85.8454 96.8705L85.4641 96.4947V98.2096L86.3822 99.1145L85.8454 96.8705Z" fill="#333332"/>
<path d="M86.9348 101.423L85.4641 99.9742V101.69L87.4716 103.667L86.9348 101.423Z" fill="#333332"/>
<path d="M91.7256 106.831H90.7124L93.8915 109.962C94.0245 110.094 94.2059 110.171 94.403 110.171H95.8161L92.3216 106.729C92.1326 106.789 91.9343 106.831 91.7256 106.831Z" fill="#333332"/>
<path d="M88.8752 106.813L85.4644 103.453V104.861C85.4644 104.952 85.4243 105.03 85.4118 105.118L88.8752 108.53V106.813Z" fill="#333332"/>
<path d="M88.1297 110.171C88.2293 110.171 88.322 110.149 88.4075 110.115C88.4366 110.103 88.4588 110.084 88.4857 110.069C88.5197 110.05 88.5543 110.032 88.586 110.01L84.8191 106.299C84.4921 106.6 84.0671 106.785 83.5961 106.81L87.0086 110.171H88.1297Z" fill="#333332"/>
<path d="M81.8268 106.831H80.0836L83.3867 110.084C83.4875 110.135 83.597 110.172 83.7196 110.172H85.2183L81.8268 106.831Z" fill="#333332"/>
<path d="M102.379 64.6188C102.782 64.6188 103.123 64.9446 103.123 65.3489V104.861C103.123 105.265 102.782 105.607 102.379 105.607L97.9528 105.607C97.549 105.607 97.2232 105.265 97.2232 104.861V91.1466C97.2232 90.6712 96.8514 90.4093 96.4816 90.4093C96.1754 90.4093 95.8703 90.5891 95.7788 90.9762L92.4404 105.033C92.3626 105.374 92.0679 105.607 91.7259 105.607H89.7689C89.4277 105.607 89.1324 105.374 89.0552 105.033L85.6856 90.945C85.5941 90.5582 85.2889 90.3786 84.9828 90.3786C84.6131 90.3786 84.2417 90.6404 84.2417 91.116V104.862C84.2417 105.266 83.9151 105.607 83.4956 105.607H79.0858C78.6666 105.608 78.3404 105.266 78.3404 104.862V65.3494C78.3404 64.9458 78.6666 64.6194 79.0858 64.6194H83.558C83.9 64.6194 84.1945 64.8367 84.2723 65.1632L90.0182 87.4039C90.1114 87.7692 90.4181 87.9516 90.7264 87.9516C91.0354 87.9516 91.3455 87.7692 91.4467 87.4039L97.192 65.1626C97.2698 64.8362 97.5645 64.6188 97.891 64.6188H102.379Z" fill="#333332"/>
<path d="M175.203 68.033L178.614 71.3923V69.9331C178.614 69.8757 178.607 69.8199 178.595 69.7661C178.587 69.7328 178.572 69.7026 178.561 69.6707C178.556 69.6588 178.552 69.6462 178.547 69.6336C178.544 69.6254 178.542 69.6155 178.538 69.6079C178.534 69.6008 178.528 69.5957 178.524 69.5886L175.203 66.317V68.033Z" fill="#333332"/>
<path d="M178.315 74.4661C178.326 74.458 178.343 74.4605 178.352 74.4525C178.366 74.4409 178.377 74.4278 178.39 74.4152C178.395 74.4091 178.401 74.4042 178.407 74.3982C178.416 74.3884 178.427 74.3795 178.436 74.3691C178.457 74.3446 178.477 74.3182 178.494 74.2902C178.511 74.2644 178.526 74.2377 178.539 74.2098C178.545 74.1994 178.548 74.188 178.553 74.1776C178.554 74.1725 178.556 74.1687 178.558 74.1644C178.563 74.1507 178.57 74.1375 178.574 74.1239C178.585 74.0919 178.593 74.0597 178.6 74.0263C178.607 73.9869 178.612 73.9457 178.613 73.9048C178.614 73.8954 178.614 73.8865 178.614 73.8779V73.3164L175.095 69.8514C174.974 70.2709 174.727 70.6171 174.387 70.8713L178.112 74.5401C178.179 74.5128 178.258 74.5099 178.315 74.4661Z" fill="#333332"/>
<path d="M176.243 74.6235L172.852 71.2832H171.109L174.5 74.6235H176.243Z" fill="#333332"/>
<path d="M171.859 75.3535C171.859 75.255 171.879 75.1617 171.915 75.0758C171.916 75.0721 171.917 75.0681 171.92 75.0642C171.955 74.9832 172.005 74.9105 172.065 74.8474C172.071 74.8419 172.077 74.8359 172.083 74.83C172.102 74.8113 172.129 74.8009 172.151 74.7838C172.265 74.6974 172.401 74.6404 172.552 74.6311L169.153 71.2832H168.448V72.3064L171.859 75.6647V75.3535Z" fill="#333332"/>
<path d="M168.449 75.9473L171.859 79.3061V77.5888L168.449 74.2301V75.9473Z" fill="#333332"/>
<path d="M168.449 79.5907L171.859 82.9495V81.2334L168.449 77.8741V79.5907Z" fill="#333332"/>
<path d="M168.449 83.2326L171.859 86.5915V84.8737L168.449 81.5149V83.2326Z" fill="#333332"/>
<path d="M159.731 74.624H159.9V73.0934L158.062 71.2832H156.318L159.704 74.6185C159.714 74.6189 159.721 74.624 159.731 74.624Z" fill="#333332"/>
<path d="M168.449 86.8751L171.859 90.2338V88.5179L168.449 85.1591V86.8751Z" fill="#333332"/>
<path d="M168.449 90.5162L171.859 93.8751V92.159L168.449 88.8002V90.5162Z" fill="#333332"/>
<path d="M168.449 94.1597L171.859 97.5186V95.8009L168.449 92.4422V94.1597Z" fill="#333332"/>
<path d="M168.449 97.8008L171.859 101.16V99.4436L168.449 96.0843V97.8008Z" fill="#333332"/>
<path d="M168.449 101.443L171.859 104.802V103.086L168.449 99.7272V101.443Z" fill="#333332"/>
<path d="M168.449 104.882C168.449 104.942 168.42 104.993 168.415 105.052L171.859 108.444V106.728L168.449 103.369V104.882Z" fill="#333332"/>
<path d="M166.535 106.843L169.934 110.191H171.129C171.282 110.191 171.414 110.13 171.53 110.047L167.772 106.344C167.436 106.641 167.011 106.832 166.535 106.843Z" fill="#333332"/>
<path d="M164.589 106.85H162.845L166.118 110.073C166.227 110.141 166.349 110.191 166.486 110.191H167.981L164.589 106.85Z" fill="#333332"/>
<path d="M173.25 64.6388C173.654 64.6388 173.98 64.9646 173.98 65.369V69.3138C173.98 69.7333 173.654 70.0593 173.25 70.0593H167.955C167.551 70.0593 167.225 70.3857 167.225 70.7895V104.881C167.225 105.285 166.899 105.627 166.495 105.627H161.852C161.448 105.627 161.122 105.285 161.122 104.882V70.7895C161.122 70.3857 160.796 70.0593 160.392 70.0593L155.097 70.0599C154.694 70.0599 154.367 69.7333 154.367 69.3145V65.369C154.367 64.9659 154.694 64.6394 155.097 64.6394L173.25 64.6388Z" fill="#333332"/>
<path d="M143.228 64.6191C143.632 64.6191 143.958 64.9449 143.958 65.3491V99.3941C143.958 99.7979 144.284 100.124 144.688 100.124L153.197 100.124C153.601 100.124 153.927 100.45 153.927 100.854V104.861C153.927 105.265 153.601 105.607 153.197 105.607L138.569 105.607C138.166 105.607 137.824 105.266 137.824 104.862V65.3491C137.824 64.9453 138.166 64.6191 138.569 64.6191H143.228Z" fill="#333332"/>
</svg>
