<svg width="120" height="153" viewBox="0 0 120 153" fill="none" xmlns="http://www.w3.org/2000/svg">
<path fill-rule="evenodd" clip-rule="evenodd" d="M97.9364 43.7948L58.8266 0.0441748C58.3318 0.109919 57.8226 0.14526 57.3046 0.14526C56.6766 0.14526 56.0647 0.0949785 55.4726 0L16.3226 43.7948L4.65649 69.3382H10.888V77.9786C22.8661 80.9252 34.6564 84.3465 46.1842 88.2589L57.5066 92.8749C73.9826 87.1782 85.8677 83.798 103.141 81.3912L103.372 69.3382H109.603L97.9364 43.7948ZM78.6008 80.4376H37.7547V63.1886H78.6008V80.4376ZM87.8031 34.0509L75.693 32.9362L87.1325 32.5995L87.8031 34.0509ZM56.6275 57.5739V57.005C61.0534 56.984 99.0117 57.0905 102.254 56.8657L103.141 58.3284C96.0062 57.2606 64.4102 57.6069 56.6275 57.5739ZM51.6835 57.5739C45.1223 57.6163 18.6421 57.2392 12.6681 58.3403L13.2247 57.2138L13.9709 57.005H51.6835V57.5739ZM15.7631 53.0921C21.9201 53.3969 52.8581 53.2876 59.6628 53.3014C59.7821 53.4985 59.9014 53.6845 60.034 53.8701C55.6511 53.9365 18.2075 53.5974 15.0076 54.3115L15.7631 53.0921ZM16.5562 48.9703C21.5909 49.1636 32.1737 49.2316 37.2626 49.1912V49.7486C32.4311 49.7031 20.4466 49.6795 15.7874 50.2709L16.5562 48.9703ZM49.53 49.7486H42.3592V49.1912H49.504C49.504 49.3767 49.5128 49.5624 49.53 49.7486ZM19.1326 44.8486L30.6952 45.1739L30.6528 45.1855H50.0945C50.0198 45.3594 49.9558 45.5455 49.8917 45.7429C45.6033 45.7978 22.1237 45.4709 18.4389 46.2421L19.1326 44.8486ZM22.4259 40.7849L34.3748 41.0753L33.9378 41.1102H60.034C59.7469 41.2841 59.4722 41.4696 59.1973 41.6674C56.3011 41.7187 23.4078 41.453 21.714 42.0158L22.4259 40.7849ZM24.6317 36.6863L28.6718 36.942H36.5359V37.4992C34.9044 37.5478 25.7065 37.2722 24.3528 37.9056L24.6317 36.6863ZM89.477 37.453L90.1354 38.9038C84.9748 38.2023 74.5885 37.7245 69.3853 37.9406V37.3711H88.3956V37.4877L89.477 37.453ZM94.648 43.7687L87.439 43.1419H69.012V42.5848C75.0849 42.6307 87.9355 42.5653 93.9157 42.3058L94.648 43.7687ZM98.3375 48.6224C92.2424 47.9469 65.0282 48.1673 58.3855 48.1462V47.5884H78.2264L76.3717 47.4957L97.1134 47.1592L98.3375 48.6224ZM100.191 53.4754L92.8913 53.0472H64.8881C64.9737 52.9203 65.0377 52.7932 65.1123 52.6584C72.1474 52.6634 92.7599 52.7054 99.4646 52.4762L100.191 53.4754ZM29.5173 32.5878C30.5031 32.7706 32.4929 32.8849 33.4949 32.8319V33.389C32.6129 33.3853 30.1222 33.2555 29.3797 33.8304L29.5173 32.5878ZM31.2846 28.4661C33.0966 28.7025 38.2971 28.6754 40.1885 28.6632V29.221C38.2938 29.2083 32.7526 29.0658 31.0206 29.7899L31.2846 28.4661ZM35.683 23.9963L43.6353 24.2746L33.903 25.3081L35.683 23.9963ZM40.4317 20.5016L48.2366 20.7682L38.6869 21.7784L40.4317 20.5016ZM45.1371 17.0299L59.453 17.3082C57.837 17.4297 44.7123 17.096 43.6177 18.1443L45.1371 17.0299ZM50.1379 13.3378L58.3855 13.6161L48.2972 14.6959L50.1379 13.3378ZM56.1105 8.93707L58.8196 8.8443L59.453 9.32049L56.0762 8.96033L56.1105 8.93707ZM63.8723 12.6412L64.5065 13.1169L60.9551 12.7341L63.8723 12.6412ZM69.0031 16.5074L69.6631 17.0066L65.9561 16.6116L69.0031 16.5074ZM78.359 22.3821C75.7118 21.9606 68.9534 21.6634 66.2046 21.5696L76.7009 21.1284L78.359 22.3821ZM81.7477 26.0979L72.3285 25.0993L80.0721 24.832L81.7477 26.0979ZM84.1006 30.521L81.5263 29.8015H76.8082V29.2441C78.2789 29.2509 82.4818 29.2896 83.8774 29.0581L84.1006 30.521ZM44.3297 24.1295C47.8494 23.7175 51.3957 23.5435 54.9331 23.6734C54.9154 26.9809 54.5337 30.6033 54.1166 33.3659C51.0294 33.8906 47.3733 34.3093 44.127 33.9028C44.4948 30.647 44.7572 27.3962 44.3297 24.1295ZM58.709 24.1295C60.969 23.8649 63.2402 23.6984 65.5129 23.6477C66.7793 23.6192 68.0465 23.6268 69.3124 23.6734C69.2947 26.9809 68.9131 30.6033 68.4955 33.3659C65.4083 33.8906 61.7522 34.3093 58.5063 33.9028C58.8741 30.647 59.1365 27.3962 58.709 24.1295Z" fill="white"/>
<path fill-rule="evenodd" clip-rule="evenodd" d="M8.08655 122.225C6.62524 119.621 5.34114 116.897 4.25246 114.067C7.10858 115.455 9.89972 116.914 12.6219 118.444C11.0866 119.673 9.57438 120.933 8.08655 122.225ZM19.2213 113.45C13.6521 110.769 7.84021 108.364 1.81486 106.259C1.10401 103.33 0.589363 100.315 0.295463 97.2354C10.7662 99.4257 20.782 102.472 30.2095 106.271C26.4524 108.511 22.7846 110.903 19.2213 113.45ZM36.7298 102.582C25.3114 97.7373 12.9887 94.0139 0.00662971 91.5959L0 91.0264C0 87.6962 0.255702 84.4299 0.741119 81.2417C19.2831 83.4304 36.7056 88.2491 52.3508 95.192C47.0267 97.3966 41.8081 99.8587 36.7298 102.582ZM119.047 84.1688C119.288 86.421 119.416 88.7075 119.416 91.0264C119.416 92.1112 119.389 93.1911 119.335 94.2625C80.6755 100.526 47.2642 117.614 24.7989 141.169C18.9163 136.804 13.832 131.363 9.81735 125.125C36.942 101.746 75.6269 86.3542 119.047 84.1688ZM119.047 97.8844C118.654 101.544 117.949 105.104 116.965 108.542C89.7916 116.513 66.4926 131.898 50.1836 151.964C43.3348 150.841 36.874 148.514 31.0072 145.204C51.5638 120.335 82.9227 102.791 119.047 97.8844ZM114.944 114.474C106.075 136.738 84.9607 152.469 60.2503 152.724C73.767 135.73 92.7414 122.33 114.944 114.474Z" fill="white"/>
<path d="M109.073 54.5945L103.432 54.1024L103.969 55.1352L109.61 55.6273L109.073 54.5945ZM108.183 52.6041L102.542 52.1124L103.079 53.1452L108.72 53.6367L108.183 52.6041ZM107.241 50.3046L101.6 49.813L102.136 50.8457L107.777 51.3374L107.241 50.3046ZM109.806 56.5841L104.165 56.0925L104.702 57.1252L110.343 57.6169L109.806 56.5841ZM110.801 58.7263L105.16 58.2348L105.697 59.2676L111.338 59.7592L110.801 58.7263ZM111.692 60.634L106.051 60.1419L106.588 61.1747L112.229 61.6668L111.692 60.634ZM112.583 62.5485L106.942 62.057L107.479 63.0898L113.12 63.5813L112.583 62.5485ZM113.615 64.688L107.974 64.1965L108.511 65.2293L114.152 65.721L113.615 64.688ZM114.594 66.3774L108.952 65.8859L109.489 66.9185L115.13 67.4102L114.594 66.3774ZM60.9547 0.600419L61.7555 1.48524L67.7361 2.2131C67.4566 1.92206 67.1713 1.66259 66.8774 1.44496C66.8348 1.41391 66.7961 1.3648 66.7542 1.33556C66.6985 1.29684 66.6394 1.27657 66.583 1.24071C66.4206 1.13625 66.2561 1.0466 66.0894 0.965002C66.0186 0.931351 65.9517 0.879246 65.8805 0.848973C65.8346 0.830133 65.7865 0.825327 65.7408 0.807656C65.5772 0.74464 65.4099 0.699945 65.2432 0.658497C65.2298 0.655769 65.2178 0.651223 65.2051 0.646805L60.3857 0.0608215C60.578 0.232069 60.7729 0.399548 60.9547 0.600419ZM69.2541 3.86464L63.2474 3.13339L64.526 4.54612L70.5321 5.27737L69.2541 3.86464ZM72.0268 6.92812L66.0201 6.19688L67.2976 7.60804L73.3043 8.33915L72.0268 6.92812ZM68.7913 9.25814L70.0687 10.6697L76.0749 11.4004L74.7979 9.98926L68.7913 9.25814ZM72.84 13.7314L78.8469 14.4626L77.5694 13.0509L71.5627 12.3197L72.84 13.7314ZM75.6108 16.7924L81.6174 17.5236L80.3399 16.1126L74.3333 15.3812L75.6108 16.7924ZM78.3809 19.8526L84.3875 20.5838L83.11 19.1722L77.1034 18.4409L78.3809 19.8526ZM81.1525 22.9148L87.1588 23.6455L85.8812 22.2337L79.8752 21.5024L81.1525 22.9148ZM83.9236 25.9767L89.9303 26.7079L88.6524 25.2951L82.6457 24.564L83.9236 25.9767ZM85.8696 28.1261C86.1402 28.425 86.3639 28.7233 86.5589 29.0204L92.7004 29.768L91.4234 28.3565L85.4168 27.6254L85.8696 28.1261ZM88.7934 31.7063L94.7994 32.4374L93.5227 31.0264L87.5159 30.2952L88.7934 31.7063ZM91.5647 34.7685L97.5713 35.4991L96.2937 34.0874L90.2871 33.3568L91.5647 34.7685ZM94.3362 37.8303L100.343 38.5615L99.0645 37.1488L93.0577 36.4176L94.3362 37.8303ZM96.2822 39.9801C96.5523 40.2789 96.7759 40.5773 96.9714 40.8744L103.113 41.6216L101.835 40.2103L95.8288 39.4794L96.2822 39.9801ZM104.802 45.811L99.1606 45.3194L99.6981 46.3522L105.339 46.8438L104.802 45.811ZM103.606 42.884L97.8217 42.165L98.4211 43.3181L104.206 44.0366L103.606 42.884ZM105.984 48.1619L100.343 47.6705L100.88 48.7032L106.521 49.1948L105.984 48.1619Z" fill="white"/>
<path fill-rule="evenodd" clip-rule="evenodd" d="M53.8615 32.8655C53.528 29.9417 53.2049 27.4802 53.0944 25.0722C50.417 25.086 47.7416 24.9606 45.0735 24.6767C44.8233 27.1979 44.9549 29.7076 45.2337 32.2187C48.1531 32.0332 50.7804 32.4822 53.8615 32.8655Z" fill="white"/>
<path fill-rule="evenodd" clip-rule="evenodd" d="M68.241 32.8655C67.9075 29.9417 67.5843 27.4802 67.4732 25.0722C64.7959 25.086 62.1212 24.9606 59.453 24.6767C59.2022 27.1979 59.3337 29.7076 59.6125 32.2187C62.5326 32.0332 65.1597 32.4822 68.241 32.8655Z" fill="white"/>
<path d="M76.7606 78.9365C71.7674 75.9762 64.1883 73.5848 58.1932 71.174C51.8939 68.6418 45.5757 66.0946 38.9803 63.7645C38.8885 63.7325 38.7471 63.8049 38.8382 63.8424C45.3161 66.527 51.6851 69.2801 58.1602 71.9671C63.8173 74.3144 69.8852 77.5193 76.5563 79.0773C76.7137 79.1137 76.8699 79.0016 76.7606 78.9365Z" fill="white"/>
<path d="M77.0643 63.6163C70.0265 65.9465 63.4891 68.9409 56.7676 71.5201C50.385 73.969 43.8436 76.3841 38.0452 79.1941C37.9656 79.2323 38.0606 79.3029 38.1518 79.2638C45.0692 76.3089 52.5952 73.7425 59.8507 71.0148C65.5276 68.8802 73.011 66.6645 77.2702 63.7141C77.3747 63.6423 77.1936 63.5737 77.0643 63.6163Z" fill="white"/>
</svg>
